<?xml version="1.0" encoding="UTF-8" standalone="no"?>
<!-- Created with Inkscape (http://www.inkscape.org/) -->

<svg
   xmlns:dc="http://purl.org/dc/elements/1.1/"
   xmlns:cc="http://creativecommons.org/ns#"
   xmlns:rdf="http://www.w3.org/1999/02/22-rdf-syntax-ns#"
   xmlns:svg="http://www.w3.org/2000/svg"
   xmlns="http://www.w3.org/2000/svg"
   xmlns:sodipodi="http://sodipodi.sourceforge.net/DTD/sodipodi-0.dtd"
   xmlns:inkscape="http://www.inkscape.org/namespaces/inkscape"
   width="480"
   height="480"
   id="svg2"
   version="1.1"
   inkscape:version="0.48.0 r9654"
   sodipodi:docname="New document 1">
  <defs
     id="defs4" />
  <sodipodi:namedview
     id="base"
     pagecolor="#ffffff"
     bordercolor="#666666"
     borderopacity="1.0"
     inkscape:pageopacity="0.0"
     inkscape:pageshadow="2"
     inkscape:zoom="1.4"
     inkscape:cx="168.22996"
     inkscape:cy="228.87279"
     inkscape:document-units="px"
     inkscape:current-layer="layer1"
     showgrid="false"
     fit-margin-top="0"
     fit-margin-left="0"
     fit-margin-right="0"
     fit-margin-bottom="0"
     inkscape:window-width="1440"
     inkscape:window-height="869"
     inkscape:window-x="0"
     inkscape:window-y="1"
     inkscape:window-maximized="1" />
  <metadata
     id="metadata7">
    <rdf:RDF>
      <cc:Work
         rdf:about="">
        <dc:format>image/svg+xml</dc:format>
        <dc:type
           rdf:resource="http://purl.org/dc/dcmitype/StillImage" />
        <dc:title></dc:title>
      </cc:Work>
    </rdf:RDF>
  </metadata>
  <g
     inkscape:label="Layer 1"
     inkscape:groupmode="layer"
     id="layer1"
     transform="translate(-122.85715,-315.21933)">
    <path
       style="fill:#000000"
       d="m 230.35715,752.3988 c -1.65,-0.19604 -3.52146,-0.78767 -4.15881,-1.31472 -0.63735,-0.52705 -5.78471,-1.20564 -11.43859,-1.50797 -5.65388,-0.30232 -11.38232,-0.96887 -12.72988,-1.48121 -1.34755,-0.51234 -2.66841,-0.71322 -2.93523,-0.44639 -0.26682,0.26682 -2.19476,-0.38706 -4.2843,-1.45306 -2.7913,-1.42402 -3.9091,-1.61162 -4.21356,-0.70716 -0.32141,0.95484 -0.77408,0.93418 -2.01757,-0.0921 -0.88175,-0.72772 -1.36248,-2.07772 -1.06829,-3 0.38641,-1.21139 0.28007,-1.32333 -0.38306,-0.40326 -0.71286,0.98907 -1.32713,0.8215 -2.74932,-0.75 -1.00725,-1.11296 -2.45074,-2.0236 -3.20776,-2.0236 -0.75702,0 -1.65697,-0.7875 -1.99989,-1.75 -0.34291,-0.9625 -1.70255,-2.65 -3.02141,-3.75 -1.31887,-1.1 -2.5395,-2.9 -2.71253,-4 -0.17303,-1.1 -1.01262,-1.94361 -1.86577,-1.87468 -1.01378,0.0819 -1.42427,-0.53363 -1.18487,-1.77671 0.20146,-1.04612 -0.0196,-1.66355 -0.49119,-1.37208 -0.47162,0.29148 -1.61083,0.24088 -2.53157,-0.11245 -1.20366,-0.46188 -1.33635,-0.85114 -0.47221,-1.38521 0.86378,-0.53384 0.57821,-1.36647 -1.01513,-2.95981 -1.57145,-1.57145 -2.09303,-3.06174 -1.79123,-5.11803 0.23418,-1.59557 0.0537,-2.90103 -0.40102,-2.90103 -0.45475,0 -0.82681,-0.42071 -0.82681,-0.9349 0,-0.5142 -0.52813,-2.2017 -1.17363,-3.75 -1.59183,-3.81824 -1.84531,-9.6499 -0.45856,-10.54979 0.72978,-0.47356 0.54204,-0.74013 -0.52821,-0.75 -1.449,-0.0134 -1.61167,-1.12935 -1.27762,-8.76531 0.21053,-4.8125 -0.2264,-12.8 -0.97095,-17.75 -0.74456,-4.95 -1.16553,-10.05553 -0.93549,-11.34563 0.28596,-1.60372 0.0112,-2.19998 -0.86864,-1.88513 -0.7078,0.25328 -2.03393,0.0771 -2.94696,-0.39142 -1.3836,-0.71004 -1.59786,-2.14475 -1.28652,-8.61487 0.20545,-4.26962 0.60923,-9.33795 0.89727,-11.26295 1.90027,-12.69928 3.66735,-85.7846 2.22442,-92 -1.15077,-4.95692 -1.76164,-12.44085 -2.24465,-27.5 -0.76537,-23.86248 -1.02548,-28.65015 -1.71134,-31.5 -0.33092,-1.375 -0.86127,-6.775 -1.17856,-12 -0.31728,-5.225 -0.76613,-11.075 -0.99744,-13 -2.22243,-18.49574 -2.2147,-27.60043 0.0255,-30.07588 0.83655,-0.92437 1.69468,-4.09795 1.90696,-7.0524 0.3419,-4.75849 0.61183,-6.52115 1.5883,-10.37172 0.13947,-0.55 -0.12027,-1.86378 -0.5772,-2.91951 -1.0336,-2.38806 2.5468,-13.1867 4.25805,-12.84249 0.67743,0.13627 0.93706,-0.40353 0.60736,-1.26273 -0.31674,-0.82541 -0.003,-2.19131 0.69771,-3.03534 1.0253,-1.23541 1.45543,-1.28167 2.20621,-0.23726 0.66755,0.92861 0.76599,0.78271 0.34637,-0.51336 -0.60629,-1.87264 5.46133,-12.49291 7.97647,-13.96137 0.72731,-0.42464 1.9353,-1.38499 2.68443,-2.13412 1.21628,-1.21628 2.99115,-2.27459 12.57179,-7.49621 1.41521,-0.77132 5.70821,-1.5622 9.53999,-1.75751 3.83179,-0.1953 8.57744,-0.76551 10.54589,-1.26713 1.96845,-0.50161 7.15278,-0.95951 11.52073,-1.01756 4.36795,-0.058 8.11432,-0.27812 8.32527,-0.48908 0.21095,-0.21095 1.73833,0.005 3.39417,0.47989 2.00512,0.57507 3.64991,0.4642 4.92473,-0.33194 1.46497,-0.91489 2.35327,-0.92111 3.78577,-0.0265 1.22838,0.76714 2.21011,0.83044 2.85636,0.18419 0.64534,-0.64534 3.8773,-0.64754 9.37833,-0.006 4.6165,0.53808 9.29364,0.9554 10.39364,0.92738 7.01686,-0.17874 17.63687,0.61946 18.09454,1.35998 0.29901,0.48381 1.02318,0.5833 1.60926,0.22108 0.58607,-0.36222 3.14248,-0.82894 5.6809,-1.03717 5.48765,-0.45015 15.00645,-1.93636 17.1153,-2.67229 2.58094,-0.90068 35.69992,-2.0712 54,-1.90851 25.58045,0.22741 31.61184,0.19379 40.5,-0.22574 24.73928,-1.16773 34.13781,-1.6017 44.5,-2.05474 6.325,-0.27653 14.425,-0.76543 18,-1.08643 3.575,-0.321 11.9,-0.70603 18.5,-0.85562 6.6,-0.14959 19.03517,-0.61775 27.63371,-1.04036 16.44863,-0.80839 20.86629,-0.38694 20.86629,1.99072 0,1.72365 3.04121,3.51613 5.96564,3.51613 1.15342,0 2.35615,0.675 2.67273,1.5 0.31659,0.825 1.33033,1.5 2.25278,1.5 1.85175,0 11.47349,9.47654 12.43769,12.25 0.33461,0.9625 1.09907,1.75 1.69879,1.75 0.59972,0 0.81229,0.45 0.47237,1 -0.33992,0.55 -0.0665,1 0.60765,1 0.67413,0 0.96798,0.2577 0.65301,0.57268 -0.31498,0.31497 1.00835,2.02158 2.94072,3.79246 3.43768,3.15041 3.51606,3.39484 3.63735,11.34336 0.0729,4.7758 0.51077,7.88452 1.06256,7.54349 0.5209,-0.32194 0.65989,0.14619 0.31232,1.05194 -0.34444,0.89761 -0.15671,1.92222 0.41718,2.2769 0.5739,0.35469 0.82137,1.4941 0.54995,2.53203 -0.27143,1.03793 -0.19813,1.88694 0.16288,1.8867 0.36101,-2.4e-4 0.59008,4.16226 0.50905,9.25 -0.081,5.08774 0.33262,10.15044 0.91922,11.25044 1.74821,3.27822 1.46669,9.76142 -0.5097,11.73781 -2.1802,2.1802 -2.29394,3.90347 -0.20472,3.10176 0.85661,-0.32871 1.32073,-1.21459 1.03139,-1.96861 -0.28935,-0.75403 -0.0902,-1.37096 0.44252,-1.37096 1.36316,0 1.2089,4.35972 -0.20425,5.77287 -0.86771,0.86771 -0.88783,1.79849 -0.0773,3.57733 0.80008,1.75599 0.79276,2.70724 -0.0271,3.52713 -0.83023,0.83023 -0.73383,1.12267 0.37005,1.12267 1.20302,0 1.4839,1.55261 1.44729,8 -0.025,4.4 0.22615,8 0.55807,8 0.33193,0 0.12142,1.54023 -0.4678,3.42274 -1.29203,4.12797 -2.49112,3.8178 -2.1196,-0.54828 0.14776,-1.7364 -0.1225,-4.52097 -0.60058,-6.18793 -0.59417,-2.07174 -0.48014,-3.53015 0.36033,-4.60869 1.05814,-1.35785 1.0076,-1.40477 -0.36244,-0.33652 -0.8756,0.68273 -1.7756,1.05773 -2,0.83334 -0.62332,-0.62332 -0.89886,3.96639 -0.86523,14.41199 0.0168,5.21766 0.44608,9.90219 0.95397,10.41008 0.56458,0.56458 1.74869,-0.0131 3.04705,-1.48665 1.80904,-2.05306 2.01688,-2.11381 1.403,-0.41008 -0.39634,1.1 -0.64673,3.125 -0.55643,4.5 0.0903,1.375 0.22127,4.4125 0.29103,6.75 0.0698,2.3375 0.43249,4.25 0.80606,4.25 0.91746,0 0.92084,3.25397 0.005,4.5 -0.4044,0.55 -0.60788,1.7875 -0.45218,2.75 0.1557,0.9625 -0.23959,1.75689 -0.87842,1.76531 -0.69104,0.009 -0.58245,0.38177 0.26811,0.92003 1.5977,1.01109 2.20856,2.91379 2.58915,8.06466 0.14224,1.925 0.32606,3.725 0.40849,4 0.12668,0.42259 0.94623,29.49805 1.04007,36.89889 0.0167,1.31939 -0.47418,3.00689 -1.09091,3.75 -0.70124,0.84494 -0.7409,1.35111 -0.10586,1.35111 1.17511,0 2.22092,2.28947 2.9036,6.3565 0.35059,2.08862 0.14848,2.65193 -0.75185,2.09549 -0.79448,-0.49101 -0.97577,-0.34749 -0.51099,0.40453 0.63775,1.03191 1.46842,11.50247 1.89556,23.89348 0.0806,2.3375 0.49449,4.25 0.91981,4.25 0.42531,0 0.7733,0.675 0.7733,1.5 0,0.825 -0.49814,1.5 -1.10699,1.5 -0.64772,0 -0.82371,0.72604 -0.4242,1.75 0.78949,2.02346 1.17098,5.3596 2.00512,17.53455 0.33101,4.83151 1.00103,9.83448 1.48891,11.11771 0.57942,1.52399 0.46687,3.15937 -0.32454,4.71545 -0.69168,1.36001 -0.95538,3.9066 -0.61452,5.9345 0.3284,1.95371 0.47952,5.55371 0.33583,8 -0.54842,9.33679 -0.50185,15.53803 0.13479,17.94779 1.08742,4.11603 1.27371,15.3675 0.28666,17.31392 -0.59594,1.17519 -0.52618,2.28826 0.1981,3.16097 0.70563,0.85023 0.75839,1.56928 0.14304,1.94958 -0.55741,0.3445 -0.73278,2.94851 -0.40951,6.08069 0.40441,3.91842 0.0716,6.77112 -1.16888,10.01929 -1.29305,3.38582 -1.45124,4.88216 -0.62179,5.88159 1.181,1.42348 0.47084,4.59396 -1.02939,4.59396 -0.49115,0 -0.89301,-0.675 -0.89301,-1.5 0,-0.825 -0.47656,-1.5 -1.05902,-1.5 -0.58246,0 -0.79221,0.4317 -0.46612,0.95932 0.32609,0.52763 0.17607,1.76513 -0.33338,2.75 -0.50945,0.98488 -1.42143,2.91568 -2.02662,4.29068 -0.60519,1.375 -1.52114,3.175 -2.03545,4 -0.51431,0.825 -1.17845,2.2875 -1.47587,3.25 -0.38019,1.23033 -1.58011,1.75 -4.04077,1.75 -2.70027,0 -3.36848,0.34274 -2.9244,1.5 0.77706,2.02498 -1.30498,1.91816 -2.44874,-0.12563 -0.76443,-1.36597 -1.0136,-1.21187 -1.55988,0.9647 -0.44082,1.75636 -1.12979,2.40628 -2.13994,2.01864 -1.33053,-0.51057 -1.96528,0.63099 -1.60823,2.89229 0.0651,0.4125 -0.37972,0.75 -0.98857,0.75 -0.60884,0 -0.84797,0.675 -0.53138,1.5 0.82181,2.14162 -1.00906,1.85257 -3.3981,-0.53647 -1.12007,-1.12007 -2.53959,-1.72554 -3.15451,-1.3455 -0.67969,0.42007 -0.83828,0.23834 -0.40451,-0.46352 0.76884,-1.24402 -0.62074,-1.60495 -1.76679,-0.4589 -0.72402,0.72402 -2.06962,1.02159 -7.17442,1.5866 -1.67018,0.18485 -3.67813,0.73253 -4.4621,1.21705 -2.01773,1.24702 -7.90834,0.67919 -10.29486,-0.99239 -1.40049,-0.98094 -2.56017,-1.12028 -3.80026,-0.45661 -1.1612,0.62146 -2.00473,0.59915 -2.41449,-0.0639 -0.34638,-0.56046 -1.12271,-0.71437 -1.72517,-0.34203 -2.17096,1.34175 -6.76642,1.16475 -6.76642,-0.2606 0,-0.76105 -0.45,-1.38373 -1,-1.38373 -0.55,0 -1,0.72378 -1,1.60841 0,1.21629 -0.60948,1.45544 -2.5,0.98095 -1.375,-0.34511 -2.5,-0.2003 -2.5,0.32178 0,0.57532 -1.16015,0.61652 -2.94518,0.10458 -2.00109,-0.5739 -3.06772,-0.47703 -3.32746,0.3022 -0.21026,0.63077 -1.60963,1.04528 -3.10972,0.92113 -1.89281,-0.15666 -2.53494,0.15474 -2.09838,1.01761 0.34598,0.68384 -0.005,0.4715 -0.7799,-0.47186 -1.10568,-1.34601 -1.67059,-1.45363 -2.62445,-0.5 -1.51422,1.51385 -13.60008,1.38736 -15.4668,-0.16188 -0.73267,-0.60806 -1.58603,-0.85167 -1.89635,-0.54135 -0.31032,0.31032 -2.18141,0.11769 -4.15799,-0.42807 -3.077,-0.8496 -3.60512,-0.75223 -3.67272,0.67711 -0.0434,0.91816 -0.28419,1.17207 -0.53505,0.56424 -0.44693,-1.08292 -6.59658,-1.04496 -11.07471,0.0683 -1.2038,0.29928 -2.43204,0.15044 -2.72943,-0.33075 -0.2974,-0.48119 -2.01247,-0.68195 -3.81129,-0.44612 -8.61568,1.12951 -14.96178,0.97897 -15.47834,-0.36718 -0.42503,-1.10761 -0.81589,-1.12944 -2.03951,-0.11392 -0.84371,0.70021 -4.49199,1.31079 -8.24235,1.37944 -3.70074,0.0677 -7.15523,0.38682 -7.67663,0.70907 -1.14816,0.7096 -3.38471,0.43052 -5.0908,-0.63524 -0.76968,-0.48081 -1.48967,-0.17912 -1.85699,0.77812 -0.69247,1.80454 -3.38595,2.12941 -3.38595,0.40839 0,-0.65499 -0.86581,-0.37144 -2,0.65499 -1.1,0.99549 -1.99997,1.40273 -1.99993,0.90499 7e-5,-0.77109 -5.50773,-1.02577 -7.00007,-0.32369 -1.69467,0.79726 -21.99653,0.26113 -22.01212,-0.5813 -0.0123,-0.66667 -0.2634,-0.66667 -0.75319,0 -0.92297,1.25627 -5.23469,1.77263 -5.23469,0.62688 0,-1.06379 -4.83503,-0.20282 -5.57379,0.99252 -0.29934,0.48433 -1.21924,0.8806 -2.04424,0.8806 -0.825,0 -1.22189,-0.45 -0.88197,-1 0.36058,-0.58342 -0.65628,-1 -2.44098,-1 -1.76359,0 -3.07249,-0.52935 -3.09082,-1.25 -0.0193,-0.75749 -0.56022,-0.55365 -1.37295,0.51737 -0.79819,1.05187 -1.99983,1.51461 -2.96819,1.14301 -2.15721,-0.82779 -2.07968,-2.3922 0.12294,-2.48067 1.59337,-0.064 1.58518,-0.13516 -0.0915,-0.79518 -1.01283,-0.39869 -3.03783,-0.65009 -4.5,-0.55866 -1.46218,0.0914 -4.121,0.22426 -5.9085,0.29518 -1.7875,0.0709 -3.19671,0.46645 -3.13158,0.87895 0.4299,2.72272 -0.15519,3.24523 -2.24907,2.00847 -1.69257,-0.99972 -2.22318,-1.0031 -2.58067,-0.0165 -0.32247,0.88997 -0.97875,0.95904 -2.3154,0.24369 -1.74607,-0.93447 -9.24732,-1.55293 -11.47328,-0.94594 -2.32009,0.63266 -6.5,0.46812 -6.5,-0.25586 0,-0.43115 -0.47656,-0.7839 -1.05902,-0.7839 -0.58246,0 -0.83753,0.35838 -0.56682,0.79639 0.27071,0.43801 -1.16523,0.82618 -3.19098,0.86258 -11.94581,0.21469 -54.92688,1.48911 -56.18318,1.66588 -0.825,0.11608 -2.85,0.0507 -4.5,-0.14538 z m 129,-7.17947 c 0.73784,-1.19384 -1.22178,-1.19384 -4,0 -1.78583,0.7674 -1.71184,0.86696 0.69098,0.92971 1.48004,0.0387 2.9691,-0.37971 3.30902,-0.92971 z m 10.5,0 c 0,-1.14477 -1.42545,-1.14477 -5,0 -2.23115,0.71454 -2.09672,0.81136 1.25,0.90032 2.0625,0.0548 3.75,-0.35032 3.75,-0.90032 z m 10,0 c 0,-1.25292 -1.06124,-1.25292 -3,0 -1.21296,0.78387 -1.06944,0.9723 0.75,0.98469 1.2375,0.008 2.25,-0.43469 2.25,-0.98469 z m 99.22738,-1.19388 c -0.22361,-1.32984 0.76531,-1.6402 5.5,-1.7261 3.17494,-0.0576 8.92262,-0.35714 12.77262,-0.66564 3.85,-0.30849 9.5875,-0.61304 12.75,-0.67677 3.1625,-0.0637 5.75,-0.42667 5.75,-0.80655 0,-0.37987 2.5875,-0.96857 5.75,-1.30821 11.20939,-1.20386 14.76658,-1.86124 16.15362,-2.98527 0.772,-0.6256 2.2702,-0.99066 3.32933,-0.81122 4.53456,0.76821 16.23324,-8.22411 16.96669,-13.04164 0.19131,-1.2566 0.8269,-2.19647 1.41242,-2.08861 0.58552,0.10786 2.08037,-2.25464 3.32187,-5.25 1.24151,-2.99536 2.88926,-5.44611 3.66168,-5.44611 0.77241,0 1.40439,-0.47656 1.40439,-1.05902 0,-0.58246 -0.42742,-0.79485 -0.94983,-0.47199 -1.72704,1.06737 -3.13877,-3.10575 -2.03381,-6.01201 1.13779,-2.99261 0.90547,-18.51658 -0.26636,-17.79852 -1.12183,0.68742 -0.90441,-1.10405 0.27742,-2.28588 1.09436,-1.09436 1.8972,-17.37359 0.85678,-17.37296 -0.33869,2.1e-4 -0.65709,-5.23629 -0.70755,-11.63666 -0.0505,-6.40037 -0.55185,-13.93787 -1.11419,-16.75 -0.56234,-2.81213 -1.24164,-9.16296 -1.50955,-14.11296 -0.26792,-4.95 -0.73716,-10.35 -1.04276,-12 -0.3056,-1.65 -0.77469,-5.25 -1.04243,-8 -0.26774,-2.75 -1.15386,-6.6875 -1.96916,-8.75 -0.8153,-2.0625 -1.24518,-3.75 -0.95528,-3.75 0.2899,0 0.0454,-0.9 -0.54328,-2 -0.81196,-1.51716 -0.7601,-2.0037 0.21482,-2.01531 0.99489,-0.0119 1.00869,-0.19098 0.0611,-0.79301 -0.69909,-0.44414 -1.10079,-2.34344 -0.93659,-4.42839 0.15813,-2.00788 -0.0305,-3.45414 -0.41923,-3.2139 -1.94289,1.20077 -2.34954,-9.74377 -2.38336,-64.14522 -0.031,-49.84436 -0.26149,-59.36673 -1.47243,-60.82622 -0.93467,-1.12652 -1.07679,-1.96552 -0.40725,-2.40417 2.98228,-1.95382 2.07503,-13.92442 -3.04474,-40.17378 -4.5945,-23.55621 -3.994,-22.18517 -14.43009,-32.94641 -3.17852,-3.27755 -4.53076,-4.10768 -5.125,-3.14618 -0.58969,0.95414 -0.99833,0.9969 -1.51638,0.15868 -0.39003,-0.6311 -1.56616,-0.87544 -2.61362,-0.54299 -1.04746,0.33245 -5.39709,-0.35644 -9.66584,-1.53086 -4.26877,-1.17443 -10.01139,-2.32268 -12.76139,-2.55168 -9.0458,-0.75327 -53.42215,-1.40767 -54.97772,-0.81074 -0.83726,0.32129 -1.52917,1.32351 -1.53759,2.22717 -0.0106,1.13557 -0.25037,1.27326 -0.7764,0.4458 -0.50194,-0.78959 -1.26281,-0.87992 -2.23468,-0.26532 -0.81049,0.51255 -3.58455,0.9388 -6.16459,0.94722 -2.58004,0.008 -4.94015,0.41846 -5.24468,0.9112 -0.30528,0.49396 -2.09167,0.54902 -3.98181,0.12272 -2.30965,-0.52091 -6.04176,-0.15417 -11.43893,1.12407 -6.0415,1.43084 -9.01044,1.67263 -12.0772,0.98357 -2.6578,-0.59716 -4.0664,-0.56652 -4.0664,0.0885 0,0.56958 -1.07906,0.73129 -2.5,0.37466 -1.50871,-0.37867 -2.5,-0.19999 -2.5,0.4506 0,0.59294 -0.50064,0.76866 -1.11253,0.39049 -0.61189,-0.37817 -9.72439,-0.845 -20.25,-1.03741 -10.52561,-0.19241 -19.58747,-0.40712 -20.13747,-0.47715 -1.9736,-0.25127 -41.00823,1.30709 -41.37678,1.65187 -0.20724,0.19386 -1.55724,-0.22057 -3,-0.92096 -3.16675,-1.53729 -21.27907,-1.22938 -25.2995,0.43011 -1.47196,0.60756 -3.56542,0.82246 -4.65213,0.47755 -1.08672,-0.34491 -5.05739,-0.55787 -8.82372,-0.47325 -19.86928,0.44644 -27.34636,0.33974 -27.34708,-0.39023 -4.3e-4,-0.44496 -0.42911,-0.5443 -0.95261,-0.22075 -0.52351,0.32354 -6.48601,0.71268 -13.25,0.86476 -7.53036,0.16931 -13.19795,0.76785 -14.61906,1.54388 -1.63856,0.89477 -3.13079,0.98503 -5.07578,0.307 -1.5152,-0.5282 -3.39581,-0.60183 -4.17912,-0.16362 -0.78332,0.43821 -3.67422,1.26644 -6.42422,1.84052 -2.75,0.57408 -6.92219,1.45616 -9.27153,1.96017 -4.44289,0.95315 -5.85839,0.26099 -4.84847,-2.37083 1.50294,-3.91658 -3.40162,0.37855 -14.85764,13.0115 -3.89521,4.29538 -5.02789,6.30963 -5.20869,9.2627 -0.92712,15.14285 -1.54134,22.16032 -2.78686,31.84 -1.10601,8.59538 -1.20486,13.95419 -0.44274,24 0.53967,7.11353 1.16349,29.13369 1.38625,48.93369 0.22277,19.8 0.86836,39.15 1.43464,43 0.56628,3.85 1.04433,7.5312 1.06232,8.18045 0.018,0.64925 1.04522,1.32425 2.28272,1.5 2.03574,0.28912 2.36439,1.1766 3.45124,9.31955 2.18018,16.33449 2.55373,25.57072 2.77044,68.5 0.22137,43.85497 0.62128,50.2279 3.34515,53.30854 1.2046,1.36237 1.33588,2.22581 0.53214,3.5 -1.48564,2.35523 -3.58134,2.1098 -4.92048,-0.57625 -1.42644,-2.86115 -2.95142,-4.30229 -2.13149,-2.01432 0.33861,0.94489 0.21643,1.96471 -0.2715,2.26627 -0.48794,0.30156 -0.67562,1.77847 -0.41706,3.28203 0.76367,4.44096 1.53131,6.42731 2.21837,5.74025 0.35431,-0.35431 1.17319,2.77707 1.81972,6.95862 0.87526,5.6608 2.15613,9.25203 5.0145,14.05927 2.11143,3.55104 4.62647,6.71607 5.58897,7.0334 0.9625,0.31733 1.75,1.38519 1.75,2.37301 0,2.21936 10.25405,7.06918 14.94647,7.06918 1.75801,0 3.80858,0.6122 4.55682,1.36043 0.74824,0.74824 5.5536,1.93918 10.67857,2.64652 10.76063,1.48518 38.1244,2.09183 41.8141,0.92702 1.37722,-0.43478 16.83352,-1.01476 34.34732,-1.28885 17.5138,-0.27409 32.1013,-0.75637 32.41666,-1.07173 0.31537,-0.31537 0.16089,-0.64234 -0.34327,-0.72662 -1.0228,-0.17098 -9.59698,-0.67114 -13.33334,-0.77779 -1.32916,-0.0379 -2.13989,-0.34576 -1.80161,-0.68404 0.33829,-0.33828 14.47579,-0.7537 31.41667,-0.92316 16.94089,-0.16946 34.00635,-0.78287 37.92326,-1.36313 10.2979,-1.52556 21.99176,-1.66438 23.6588,-0.28086 0.77196,0.64067 1.69966,0.94376 2.06156,0.67353 0.36189,-0.27022 0.47936,-0.23769 0.26103,0.0723 -0.21833,0.30999 -4.83083,0.69474 -10.25,0.855 -12.35846,0.36547 -24.39153,1.59124 -26.35304,2.68451 -1.74783,0.97417 -0.0561,1.08518 13.75,0.90223 5.0875,-0.0674 9.25,0.29139 9.25,0.79735 0,0.50597 1.19188,0.69209 2.64862,0.41362 2.07496,-0.39665 2.46657,-0.20418 1.80805,0.88867 -0.6642,1.10227 -0.53801,1.15696 0.60137,0.26064 1.90598,-1.49938 13.03322,-1.5261 14.87775,-0.0357 0.83529,0.67491 1.17744,0.71734 0.80851,0.10026 -0.43999,-0.73593 2.3051,-0.99357 8.7957,-0.82551 5.18942,0.13436 9.69242,-0.17172 10.00667,-0.68019 0.31425,-0.50846 0.20731,-0.96151 -0.23765,-1.00678 -6.10254,-0.62078 -10.17424,-1.06164 -11.80902,-1.27862 -1.1,-0.14599 -2.74025,0.091 -3.64499,0.52672 -1.05528,0.50818 -2.09858,0.24565 -2.91022,-0.73232 -0.69587,-0.83847 -1.85371,-1.29867 -2.57298,-1.02266 -0.71927,0.27601 -1.60131,0.0269 -1.9601,-0.55367 -0.61609,-0.99686 13.96588,-0.65433 23.58829,0.55408 1.925,0.24175 8.5613,0.73776 14.74734,1.10225 6.18604,0.36449 12.03604,0.81363 13,0.9981 0.96396,0.18447 5.49548,0.36983 10.07005,0.41191 7.96886,0.0733 8.28956,0.16417 7.65344,2.16843 -0.53031,1.67086 -0.29228,2.0158 1.18261,1.71375 1.04167,-0.21333 1.72773,-1.08491 1.57394,-1.99955 z M 316.85715,721.71933 c 0,-0.825 0.17686,-1.5 0.39301,-1.5 0.21616,0 0.65203,0.675 0.96862,1.5 0.31658,0.825 0.13972,1.5 -0.39301,1.5 -0.53274,0 -0.96862,-0.675 -0.96862,-1.5 z m -76.25952,-57.38145 c -0.96774,-0.35827 -3.15364,-3.56901 -4.85756,-7.13498 -3.9662,-8.30047 -4.37238,-15.88912 -1.1248,-21.01468 1.20885,-1.90789 2.92707,-4.84944 3.81826,-6.53678 0.8912,-1.68735 2.8136,-3.59579 4.27199,-4.24098 1.4584,-0.6452 4.18068,-2.30215 6.04951,-3.68211 2.38544,-1.76142 4.67708,-2.50902 7.69099,-2.50902 4.91434,0 6.63993,1.57563 3.22537,2.94507 -1.27283,0.51049 -1.7428,0.95668 -1.04437,0.99154 0.69843,0.0349 3.10628,1.22266 5.35077,2.63954 l 4.08089,2.57616 -0.68909,-4.07866 c -0.59935,-3.54755 -0.47228,-3.99547 0.97584,-3.43977 2.16037,0.82901 3.51172,4.48356 3.51172,9.49696 0,2.20035 0.50453,4.94336 1.12117,6.09557 2.1535,4.02385 -2.36483,17.44128 -8.08996,24.02359 -2.97287,3.41797 -4.83005,3.61812 -2.64622,0.28518 0.88826,-1.35565 1.61501,-3.18629 1.61501,-4.06809 0,-1.3978 -0.35244,-1.35909 -2.75,0.30209 -3.43941,2.38303 -5.94802,3.38963 -9.64382,3.86963 -1.5916,0.20671 -4.2916,1.22078 -6,2.25349 -1.77348,1.07205 -3.8611,1.59817 -4.8657,1.22625 z m 1.70222,-2.53679 c -2.09456,-1.53158 -3.04375,-1.3633 -1.98382,0.35171 0.36254,0.58659 1.3936,1.06653 2.29127,1.06653 1.36496,0 1.31464,-0.23214 -0.30745,-1.41824 z m 25.67728,-9.35758 c -0.60291,-1.12654 -0.5976,-2.40623 0.0145,-3.5 0.53132,-0.94942 0.56535,-1.72418 0.0757,-1.72418 -0.48905,0 -1.39561,1.11148 -2.01457,2.46997 -0.93243,2.04645 -0.83135,2.64136 0.58948,3.46959 2.33912,1.3635 2.4233,1.31839 1.33486,-0.71538 z m -22.11998,-1.06919 c 0,-0.46476 -0.85533,-1.61907 -1.90072,-2.56515 -1.42542,-1.28998 -2.08879,-1.41583 -2.65278,-0.50328 -0.43992,0.71181 0.0132,1.77644 1.09185,2.56514 2.10401,1.53849 3.46165,1.73588 3.46165,0.50329 z m 253.21048,8.58693 c -1.86029,-0.59601 -4.67769,-2.83267 -6.48454,-5.14791 -1.75726,-2.25171 -3.81761,-4.57683 -4.57855,-5.16693 -2.3422,-1.81636 -3.67016,-14.02954 -1.97496,-18.16348 0.6233,-1.51998 1.29195,-3.5857 1.48588,-4.59049 0.49463,-2.56271 2.83197,-4.66653 6.28459,-5.65673 2.01025,-0.57654 3.10541,-0.47506 3.44424,0.31915 0.32647,0.76526 0.87654,0.56452 1.60451,-0.58553 0.60925,-0.9625 2.22482,-1.75 3.59016,-1.75 1.36533,0 4.15547,-0.70449 6.20031,-1.56553 4.20762,-1.77174 11.32873,-1.21076 13.19634,1.03957 0.6281,0.75681 1.26652,2.544 1.41872,3.97153 0.1522,1.42752 1.13689,3.22446 2.1882,3.9932 1.05131,0.76874 1.55022,1.75897 1.10867,2.20051 -0.44154,0.44154 -1.13129,0.27128 -1.53279,-0.37835 -0.51281,-0.82975 -1.08556,-0.6118 -1.92515,0.7326 -1.4847,2.37739 -0.023,3.49799 2.67748,2.05271 2.4556,-1.31419 4.10499,-1.35075 2.08641,-0.0462 -1.12229,0.72528 -1.1647,0.97323 -0.16842,0.98469 1.23259,0.0142 1.2542,0.82816 0.20619,7.76531 -0.0208,0.1375 -1.27527,0.28163 -2.78777,0.32029 -1.80979,0.0462 -2.23716,0.30267 -1.25,0.75 2.29004,1.03771 2.30797,3.94452 0.0318,5.16267 -1.63229,0.87355 -2.0318,0.78551 -2.0318,-0.44782 0,-0.84435 0.45,-1.53518 1,-1.53518 0.55,0 0.98127,-0.5625 0.95837,-1.25 -0.0229,-0.6875 -1.63297,0.55 -3.57795,2.75 l -3.53633,4 2.82795,0.52745 c 2.3731,0.44261 2.53197,0.64418 0.98772,1.25324 -1.01214,0.39919 -2.31916,0.42981 -2.90451,0.0681 -0.58535,-0.36177 -0.81697,-0.25073 -0.51472,0.24675 1.22577,2.01752 -1.78825,3.27785 -9.85671,4.12164 -5.05517,0.52867 -5.1774,0.47511 -10.25,-4.49185 -5.49106,-5.37671 -5.65334,-5.92079 -5.28671,-17.72528 0.20487,-6.59655 -1.57084,-3.8914 -2.37482,3.61784 -0.50814,4.74605 -0.18599,6.14368 2.72573,11.82545 2.66636,5.20298 4.11111,6.83921 7.50531,8.5 2.31183,1.13119 4.22433,2.39421 4.25,2.80671 0.0566,0.90874 -0.51003,0.84804 -4.74285,-0.50808 z m 28.78952,-24.74192 c 0,-0.55 -0.45,-1 -1,-1 -0.55,0 -1,0.45 -1,1 0,0.55 0.45,1 1,1 0.55,0 1,-0.45 1,-1 z m -18.4935,-4.13634 c 2.6156,-1.54324 3.31789,-2.43927 2.52964,-3.22752 -1.32587,-1.32587 -3.69404,-0.037 -5.82275,3.169 -1.81866,2.73905 -1.26666,2.74886 3.29311,0.0585 z M 358.61324,657.5616 c -1.50915,-0.79506 -3.03048,-2.58734 -3.38073,-3.98284 -0.86617,-3.45111 0.27846,-13.74404 1.57653,-14.17673 0.57646,-0.19215 1.05004,-0.87437 1.05239,-1.51603 0.002,-0.64167 1.36762,-3.19167 3.03393,-5.66667 1.6663,-2.475 3.72814,-5.93615 4.58187,-7.69144 1.86238,-3.82914 5.45492,-6.35957 9.73403,-6.85624 13.63943,-1.58311 15.17226,-1.56377 18.62795,0.23509 2.48709,1.29466 4.03229,3.15098 5.40768,6.4965 1.81387,4.4121 1.83405,4.99241 0.34784,10 -0.86778,2.92385 -1.82592,6.46839 -2.12921,7.87675 -0.30329,1.40836 -2.02674,4.50887 -3.8299,6.89002 -1.80316,2.38114 -3.86552,5.39135 -4.58304,6.68934 -1.16952,2.11568 -3.92261,3.07302 -6.69543,2.32821 -5.26205,-1.41344 -11.40161,-1.56171 -14.37212,-0.34708 -4.07115,1.66468 -5.77909,1.61386 -9.37179,-0.27888 z m 7.11891,-0.96727 c 2.79423,-0.55885 4.58432,-3.375 2.14532,-3.375 -1.96644,0 -5.22022,-8.12093 -4.59311,-11.4637 0.47738,-2.54462 0.26429,-3.20297 -1.03667,-3.20297 -2.23006,0 -5.34139,7.16723 -5.36858,12.36698 -0.0295,5.64674 2.11613,7.02207 8.85304,5.67469 z m 9.125,-10.375 c 0,-0.55 -0.47656,-1 -1.05902,-1 -0.58246,0 -0.7809,0.45 -0.44098,1 0.33992,0.55 0.81648,1 1.05902,1 0.24254,0 0.44098,-0.45 0.44098,-1 z m 7,-5.84501 c 0,-0.46476 -0.8444,-1.60919 -1.87644,-2.54317 -1.71835,-1.55509 -1.92899,-1.56125 -2.5,-0.0732 -1.06994,2.78819 -0.705,3.46138 1.87644,3.46138 1.375,0 2.5,-0.38026 2.5,-0.84501 z m 5.88278,-8.26397 c 2.5844,-0.90093 2.96112,-1.37418 2.00804,-2.52258 -1.78772,-2.15407 -6.81572,-0.0468 -6.87551,2.88156 -0.021,1.0277 1.13399,0.94252 4.86747,-0.35898 z m 132.38805,16.50481 c 0.33229,-0.33229 1.19479,-0.36781 1.91667,-0.0789 0.79773,0.31922 0.56078,0.55618 -0.60417,0.60416 -1.05416,0.0434 -1.64479,-0.19293 -1.3125,-0.52522 z m 37.8472,-14.2778 c -2.4283,-2.4283 -2.79064,-5.11803 -0.68946,-5.11803 1.46894,0 4.5834,2.61224 4.55612,3.82143 -0.008,0.37321 -0.40531,1.29419 -0.88197,2.0466 -0.69965,1.10442 -1.2748,0.95989 -2.98469,-0.75 z m -60.61803,110.88197 c -0.33992,-0.55 -0.81648,-1 -1.05902,-1 -0.24254,0 -0.44098,0.45 -0.44098,1 0,0.55 0.47656,1 1.05902,1 0.58246,0 0.7809,-0.45 0.44098,-1 z m -55.5,-2 c 0,-0.55 -1.125,-1 -2.5,-1 -1.375,0 -2.5,0.45 -2.5,1 0,0.55 1.125,1 2.5,1 1.375,0 2.5,-0.45 2.5,-1 z m 127.12409,-62.26667 c -0.98762,-0.98026 -1.10248,-0.8654 -0.5598,0.5598 0.37553,0.98622 0.93469,1.54122 1.24258,1.23333 0.30789,-0.30789 6.4e-4,-1.11479 -0.68278,-1.79313 z m -399.73933,-42.9198 c -0.27654,-0.44744 -0.0684,-0.81353 0.4626,-0.81353 0.53097,0 0.79892,-0.7875 0.59545,-1.75 -0.20348,-0.9625 -0.62559,-8.05 -0.93803,-15.75 -0.31244,-7.7 -0.74357,-16.25 -0.95807,-19 -0.21449,-2.75 -0.42525,-7.6625 -0.46835,-10.91667 -0.0431,-3.25416 -0.32107,-5.67395 -0.61773,-5.3773 -0.53762,0.53762 -0.7352,14.14694 -0.51672,35.59172 0.0633,6.21376 -0.14973,11.72626 -0.47342,12.25 -0.32369,0.52374 -0.15178,0.95225 0.38201,0.95225 0.81216,0 0.86625,2.04892 0.10559,4 -0.10721,0.275 -0.0878,0.95 0.0432,1.5 0.13099,0.55 0.33885,2.125 0.4619,3.5 0.53132,5.93711 0.8191,6.21865 1.59817,1.56353 0.45438,-2.71505 0.5999,-5.30255 0.32336,-5.75 z m -7.38476,-7.87255 c 0,-0.58246 -0.45,-0.7809 -1,-0.44098 -0.55,0.33992 -1,0.81648 -1,1.05902 0,0.24254 0.45,0.44098 1,0.44098 0.55,0 1,-0.47656 1,-1.05902 z m -0.92182,-17.2628 c -1.29125,-1.29125 -1.42689,0.53332 -0.3213,4.32182 l 0.72957,2.5 0.33495,-2.87182 c 0.18423,-1.5795 -0.15023,-3.357 -0.74322,-3.95 z m 0.92182,-18.7372 c 0,-1.68246 -0.38965,-2.8182 -0.86589,-2.52386 -0.80557,0.49786 -0.36613,5.58288 0.48247,5.58288 0.21088,0 0.38342,-1.37656 0.38342,-3.05902 z m 4.93661,-23.19098 c -0.0593,-3.03989 -0.12406,-3.09857 -1.00194,-0.90765 -0.5162,1.2883 -0.68612,2.7508 -0.37759,3.25 1.02383,1.6566 1.44362,0.94382 1.37953,-2.34235 z m 392.06339,-3.30902 c 0,-0.85746 -0.45,-1.2809 -1,-0.94098 -0.55,0.33992 -1,1.04148 -1,1.55902 0,0.51754 0.45,0.94098 1,0.94098 0.55,0 1,-0.70156 1,-1.55902 z m -0.0153,-7.69098 c -0.008,-0.6875 -0.45398,-1.925 -0.99012,-2.75 -0.7464,-1.14854 -0.92601,-0.85565 -0.76658,1.25 0.20176,2.66459 1.78755,4.01866 1.7567,1.5 z M 193.60715,374.93779 c 0.6875,0.24651 1.25,-0.0393 1.25,-0.63513 0,-1.68265 -3.59654,-1.27556 -5.12755,0.58039 -1.22688,1.48725 -1.16031,1.55462 0.62755,0.63513 1.1,-0.56573 2.5625,-0.8269 3.25,-0.58039 z m 9.25,-3.33509 c 0,-0.21085 -0.9,-0.38337 -2,-0.38337 -1.1,0 -2,0.40787 -2,0.90638 0,0.49851 0.9,0.67102 2,0.38337 1.1,-0.28766 2,-0.69553 2,-0.90638 z m 4,-0.99036 c 0,-0.21616 -0.675,-0.39301 -1.5,-0.39301 -0.825,0 -1.5,0.43588 -1.5,0.96862 0,0.53273 0.675,0.70959 1.5,0.39301 0.825,-0.31659 1.5,-0.75246 1.5,-0.96862 z m 7.78966,0.12363 c -0.15931,-0.12615 -1.86466,-0.51105 -3.78966,-0.85534 -3.11627,-0.55735 -3.30304,-0.47506 -1.70352,0.75059 0.98806,0.75711 2.69341,1.14201 3.78966,0.85533 1.09625,-0.28667 1.86284,-0.62444 1.70352,-0.75058 z m 135.21034,-2.45762 c 0,-0.51754 -0.45,-1.2191 -1,-1.55902 -0.55,-0.33992 -1,0.0835 -1,0.94098 0,0.85746 0.45,1.55902 1,1.55902 0.55,0 1,-0.42344 1,-0.94098 z m -20.48992,383.95729 c -0.73755,-1.19337 0.19857,-3.01631 1.54894,-3.01631 1.2168,0 1.22469,2.70662 0.0101,3.45729 -0.512,0.31644 -1.21356,0.11799 -1.55902,-0.44098 z m -5.51008,-1.80351 c 0,-0.43295 0.9,-0.85499 2,-0.93785 1.1,-0.0829 2,0.27138 2,0.7872 0,0.51582 -0.9,0.93785 -2,0.93785 -1.1,0 -2,-0.35424 -2,-0.7872 z m 238,-267.09036 c 0,-1.16734 0.42344,-2.12244 0.94098,-2.12244 1.73246,0 2.053,1.7601 0.54801,3.00914 -1.23911,1.02837 -1.48899,0.87956 -1.48899,-0.8867 z"
       id="path3087"
       inkscape:connector-curvature="0" />
  </g>
</svg>
