<?xml version="1.0" encoding="UTF-8" standalone="no"?>
<!-- Created with Inkscape (http://www.inkscape.org/) -->

<svg
   xmlns:dc="http://purl.org/dc/elements/1.1/"
   xmlns:cc="http://creativecommons.org/ns#"
   xmlns:rdf="http://www.w3.org/1999/02/22-rdf-syntax-ns#"
   xmlns:svg="http://www.w3.org/2000/svg"
   xmlns="http://www.w3.org/2000/svg"
   xmlns:sodipodi="http://sodipodi.sourceforge.net/DTD/sodipodi-0.dtd"
   xmlns:inkscape="http://www.inkscape.org/namespaces/inkscape"
   id="svg3061"
   version="1.1"
   inkscape:version="0.48.0 r9654"
   width="480"
   height="480"
   sodipodi:docname="searchIcon.png">
  <metadata
     id="metadata3067">
    <rdf:RDF>
      <cc:Work
         rdf:about="">
        <dc:format>image/svg+xml</dc:format>
        <dc:type
           rdf:resource="http://purl.org/dc/dcmitype/StillImage" />
        <dc:title></dc:title>
      </cc:Work>
    </rdf:RDF>
  </metadata>
  <defs
     id="defs3065" />
  <sodipodi:namedview
     pagecolor="#ffffff"
     bordercolor="#666666"
     borderopacity="1"
     objecttolerance="10"
     gridtolerance="10"
     guidetolerance="10"
     inkscape:pageopacity="0"
     inkscape:pageshadow="2"
     inkscape:window-width="1440"
     inkscape:window-height="869"
     id="namedview3063"
     showgrid="false"
     inkscape:zoom="0.75719351"
     inkscape:cx="28.473364"
     inkscape:cy="219.26434"
     inkscape:window-x="0"
     inkscape:window-y="1"
     inkscape:window-maximized="1"
     inkscape:current-layer="svg3061" />
  <path
     style="fill:#000000"
     d="m 77.5,443.98412 c -1.1,-0.40362 -2.3375,-0.53861 -2.75,-0.29997 -0.4125,0.23864 -0.75,-0.0298 -0.75,-0.59654 0,-0.56673 1.4625,-1.41522 3.25,-1.88552 l 3.25,-0.85509 -3.8127,-1.27175 c -3.342755,-1.11499 -4.048329,-1.0585 -5.724377,0.4583 -1.813549,1.64124 -2.054151,1.63711 -4.6873,-0.0806 C 61.578907,436.38912 53,427.02051 53,424.95528 53,423.87988 52.523442,423 51.940983,423 c -0.582459,0 -0.766921,-0.47262 -0.409914,-1.05027 0.357007,-0.57765 -0.104096,-2.63752 -1.024672,-4.57749 -0.920577,-1.93997 -1.856705,-5.85485 -2.080285,-8.69973 C 48.030605,403.64 47.647266,398.93985 46.454626,384.5 c -0.317985,-3.85 -1.189551,-9.7 -1.936812,-13 -0.747261,-3.3 -1.428485,-10.275 -1.513831,-15.5 -0.285151,-17.45733 -0.760742,-30.40528 -1.524336,-41.5 -0.416392,-6.05 -0.724628,-12.575 -0.68497,-14.5 0.03966,-1.925 -0.331621,-7.325 -0.825065,-12 -0.493444,-4.675 -1.148572,-15.025 -1.455841,-23 -0.307268,-7.975 -0.767368,-18.325 -1.022443,-23 -0.58691,-10.75685 -1.738092,-52.02799 -1.617802,-58 0.473407,-23.50322 -0.456335,-70.51595 -1.425565,-72.0842 -0.257738,-0.41703 0.07639,-3.93643 0.742496,-7.82089 0.911415,-5.314964 0.934916,-8.365787 0.09497,-12.328783 -0.895477,-4.224997 -0.852104,-5.474084 0.219382,-6.317993 0.734537,-0.578527 1.560995,-3.655574 1.836572,-6.837882 0.275578,-3.182309 0.833201,-6.083969 1.239164,-6.448134 0.405963,-0.364165 0.455539,0.125382 0.110169,1.087882 -0.861263,2.400229 0.542608,2.207294 2.101446,-0.288803 0.700289,-1.121342 1.661382,-1.798926 2.135762,-1.505744 0.47438,0.293183 1.129507,-0.162728 1.455839,-1.013134 0.339564,-0.884891 0.170785,-1.285047 -0.394623,-0.935606 -0.543374,0.335824 0.274923,-1.823487 1.818438,-4.798468 C 48.219771,60.058966 56.01739,51 57.607122,51 c 0.289477,0 2.001273,-1.125 3.803991,-2.5 1.802718,-1.375 3.76555,-2.5 4.361849,-2.5 0.5963,0 1.745665,-0.661484 2.554146,-1.469965 1.884019,-1.884019 9.545343,-4.545431 10.170932,-3.533207 0.408826,0.661494 7.00196,0.646288 7.00196,-0.01615 0,-0.82549 16.09178,-1.351007 17.36041,-0.566948 0.55077,0.340391 1.23156,0.246469 1.51288,-0.208717 0.59146,-0.956996 5.2442,-0.741477 8.04075,0.372456 1.12885,0.449645 1.67615,0.377472 1.33412,-0.175935 -0.33795,-0.546826 1.09012,-0.779078 3.42265,-0.556636 2.20142,0.209939 4.49286,-0.108572 5.09209,-0.707802 0.78602,-0.786013 1.4635,-0.77913 2.43206,0.02471 1.00958,0.837871 1.79147,0.70796 3.15254,-0.523794 1.90384,-1.722953 3.63425,-2.226521 2.7534,-0.801268 -0.28443,0.460209 0.92652,0.650616 2.69098,0.423127 1.76447,-0.227489 5.85326,-0.586665 9.08621,-0.798169 3.23295,-0.211503 6.09172,-0.598181 6.35282,-0.859283 0.26111,-0.261102 1.55347,-0.0646 2.87191,0.436674 1.31845,0.501273 2.39951,0.585043 2.40236,0.186156 0.003,-0.398887 1.80285,-0.827436 4,-0.95233 2.19715,-0.124895 3.99482,0.115422 3.99482,0.534037 0,0.653795 5.96266,1.111009 16.21744,1.243545 1.49459,0.01932 2.98365,0.465856 3.30902,0.99231 0.84856,1.373 2.47333,1.180756 2.47473,-0.292811 8.3e-4,-0.873414 1.73313,-1.201967 5.75,-1.090565 3.16185,0.08769 5.97381,0.236748 6.24881,0.331241 1.65038,0.567093 6,0.457651 6,-0.150967 0,-0.399485 2.25,-0.675084 5,-0.612444 2.83089,0.06448 5.00664,0.582168 5.01531,1.193313 0.0109,0.76672 0.22815,0.768597 0.75,0.0065 1.12076,-1.636766 4.09331,-2.464832 4.79169,-1.334826 0.40265,0.65149 1.12514,0.586532 2.05443,-0.18471 1.13982,-0.945971 2.60711,-0.574339 7.16462,1.814646 3.88887,2.03849 6.373,2.769485 7.7276,2.273967 1.09799,-0.40165 4.92135,-0.806376 8.49635,-0.899392 3.575,-0.09302 6.95,-0.211713 7.5,-0.263771 0.55,-0.05206 5.05,0.232769 10,0.63295 14.28775,1.155088 17.93699,1.295834 18.92473,0.729898 0.50861,-0.29141 3.50683,-0.424455 6.66272,-0.295655 3.87255,0.158048 6.01019,-0.194035 6.57527,-1.082992 0.92474,-1.454762 2.81536,-1.524659 47.33728,-1.750067 22.03597,-0.111565 29.24372,-0.493909 36.276,-1.924307 7.60275,-1.546435 8.93529,-1.593135 9.96756,-0.349323 0.95382,1.149281 0.74482,1.797517 -1.04749,3.248838 -1.31153,1.062018 -1.81591,2.074605 -1.21757,2.444401 C 384.54033,41.833941 385,41.614919 385,41 c 0,-0.614919 0.51953,-0.796948 1.15451,-0.404508 0.6415,0.396468 0.88561,0.278446 0.54937,-0.265605 -0.36293,-0.587236 1.57646,-1.036529 4.84549,-1.122538 4.86255,-0.127936 5.45063,0.0762 5.45063,1.892009 0,1.563243 0.45255,1.891783 1.95083,1.416247 1.07296,-0.340544 3.88546,-0.06637 6.25,0.609269 2.36455,0.675642 4.63667,1.148944 5.04917,1.051783 C 410.6625,44.079496 411,44.45 411,45 c 0,0.55 0.70156,1 1.55902,1 0.88527,0 1.26331,0.478457 0.87477,1.107134 -0.45804,0.741121 0.002,0.889297 1.39183,0.448211 1.59565,-0.50644 3.04325,0.336561 6.25552,3.642866 5.32864,5.48463 11.86772,15.296068 12.58513,18.883127 0.33643,1.682143 1.05029,2.580923 1.81641,2.286934 0.8827,-0.338723 1.11482,0.286451 0.77207,2.079442 -0.26956,1.410078 0.0484,3.212628 0.70656,4.005666 1.35451,1.632084 1.88523,4.426692 2.47769,13.04662 0.49961,7.268955 1.78208,14.70733 4.11632,23.87468 1.66846,6.55263 1.66824,6.92071 -0.005,7.85695 -1.57512,0.88148 -1.68701,2.12548 -1.09059,12.12531 0.36553,6.12869 0.87947,13.61806 1.14208,16.64306 0.26261,3.025 0.50742,14.05 0.54403,24.5 0.0458,13.08713 0.42247,19.2334 1.21023,19.75 0.81669,0.53557 0.71481,1.03153 -0.35633,1.73469 -0.825,0.54158 -1.05,0.99158 -0.5,1 1.04246,0.016 1.36236,4.77592 0.43787,6.51531 -0.46904,0.88248 -0.41434,18 0.0575,18 0.48519,0 1.09198,21.31721 0.91088,32 -0.37673,22.22249 -0.30435,23.42644 1.96882,32.75 0.65386,2.68182 0.58823,3.74998 -0.2304,3.74994 -0.75054,-5e-5 -1.14469,2.40948 -1.14469,6.99772 0,3.84879 0.30609,6.99882 0.68019,7.00007 0.37411,0.001 0.27465,1.41634 -0.22102,3.14464 -0.49567,1.72831 -0.57753,3.64081 -0.1819,4.25 0.39562,0.6092 0.82267,4.93263 0.94898,9.60763 0.68733,25.43859 0.79688,39.00047 0.31507,39.00428 -0.29773,0.002 -0.66447,2.2009 -0.81498,4.88565 -0.25333,4.51877 -0.0809,4.92976 2.32134,5.53268 2.31481,0.58098 2.52407,0.99822 1.93813,3.86435 C 450.22671,382.44578 448.67757,387 447.84171,387 447.37877,387 447,387.47682 447,388.05959 c 0,2.59205 -8.16173,17.95849 -9.19822,17.3179 -0.67638,-0.41802 -0.82907,-0.23067 -0.39043,0.47907 0.41422,0.67022 -0.58258,2.46852 -2.34549,4.23143 C 433.37964,411.77421 432,413.497 432,413.91641 432,414.82153 427.46996,417 425.58781,417 c -0.72495,0 -2.39128,0.8381 -3.70295,1.86244 -1.31167,1.02434 -3.50633,2.21425 -4.87702,2.64424 -2.15046,0.67462 -2.32003,0.57441 -1.23675,-0.73086 1.09268,-1.3166 0.71147,-1.46655 -2.94101,-1.15688 -2.30803,0.19568 -4.5571,0.92397 -4.99794,1.61842 -0.44083,0.69445 -0.80841,0.79778 -0.81683,0.22962 -0.0212,-1.42834 -5.4855,-1.06951 -5.64031,0.37038 -0.25993,2.41767 -0.40724,2.50375 -1.625,0.94963 -1.34424,-1.71554 -7.75,-1.39688 -7.75,0.38553 0,0.52003 -0.54545,0.60841 -1.2121,0.19639 -1.51255,-0.9348 -7.83025,-0.5626 -9.23954,0.54434 -0.5766,0.45289 -2.40864,0.84968 -4.0712,0.88175 -1.66256,0.0321 -4.86303,0.69231 -7.11216,1.4672 -3.76993,1.29885 -4.17997,1.26373 -5.24998,-0.44963 -0.92733,-1.4849 -1.55924,-1.6452 -3.14337,-0.7974 -1.09049,0.58361 -4.79272,1.30019 -8.22718,1.59239 -3.43446,0.2922 -10.74447,1.40444 -16.24447,2.47163 -5.5,1.0672 -13.825,2.18743 -18.5,2.48941 -9.94027,0.64207 -15.21478,1.12455 -27.5,2.51553 -13.14026,1.48779 -19.7687,1.95403 -31.24909,2.19803 -5.637,0.11981 -10.2495,0.5503 -10.25,0.95664 -5e-4,0.40634 -1.01341,0.72631 -2.25091,0.71106 -1.2375,-0.0153 -4.05,0.23295 -6.25,0.55158 -2.2,0.31863 -7.83552,0.69657 -12.52338,0.83987 -4.68786,0.14329 -9.07536,0.60168 -9.75,1.01863 -0.72897,0.45053 -1.23283,0.22701 -1.24193,-0.55092 -0.0117,-1.00086 -0.19752,-1.02227 -0.78928,-0.091 -0.92511,1.45593 -6.20685,2.01094 -8.08583,0.84966 -0.81796,-0.50552 -1.67052,-0.29136 -2.20607,0.55416 -0.71038,1.12156 -0.87574,1.08336 -0.8882,-0.20521 -0.0185,-1.91773 -2.54501,-2.04206 -5.91957,-0.29132 -1.95352,1.0135 -2.81257,1.03147 -3.98501,0.0833 -1.17861,-0.95312 -1.33586,-0.94438 -0.74367,0.0413 0.41304,0.6875 0.30097,1.25 -0.24903,1.25 -0.55,0 -1.26041,-0.42137 -1.5787,-0.93637 -0.71432,-1.15579 -4.61273,-1.03134 -6.24553,0.19938 -0.6634,0.50004 -1.7884,0.54558 -2.5,0.1012 -1.93929,-1.21107 -3.71367,-1.30289 -4.37886,-0.22659 -0.36781,0.59514 -1.09499,0.54288 -1.91494,-0.13762 -0.96386,-0.79993 -1.51536,-0.78416 -2.03597,0.0582 -0.52135,0.84356 -0.94602,0.7892 -1.57372,-0.20144 -0.47283,-0.74622 -0.86658,-0.86515 -0.875,-0.26429 -0.0181,1.29526 -13.60785,0.84706 -19.01531,-0.62713 -4.22034,-1.15057 -14.98961,-1.16249 -20.5,-0.0227 -3.72438,0.77036 -3.79329,0.84345 -1,1.06069 l 3,0.23331 -3,0.69852 c -1.65,0.38419 -4.0125,0.34209 -5.25,-0.0936 -1.39359,-0.4906 -2.25,-0.39842 -2.25,0.24218 0,0.56884 -0.50031,0.72505 -1.1118,0.34713 -0.6115,-0.37792 -1.5115,-0.067 -2,0.69098 -0.7531,1.16851 -1.02495,1.16583 -1.78728,-0.0176 -0.59123,-0.91783 -1.53281,-1.12212 -2.75,-0.59665 -2.60438,1.12434 -4.64573,1.16975 -6.10092,0.13571 -0.75538,-0.53676 -1.25,-0.49811 -1.25,0.0977 0,0.54225 -1.0125,0.87978 -2.25,0.75007 -1.2375,-0.12972 -2.925,-0.30016 -3.75,-0.37878 -1.33333,-0.12705 -1.33333,-0.25064 0,-1.11231 0.825,-0.53316 1.14667,-0.97627 0.71482,-0.98469 -0.43185,-0.008 -1.89435,0.71144 -3.25,1.5997 -1.58837,1.04074 -2.46482,1.20602 -2.46482,0.46482 0,-0.82729 -0.543029,-0.85958 -1.934259,-0.11501 -1.063842,0.56935 -2.976342,0.99965 -4.25,0.95623 C 92.542084,443.87763 92.0625,443.61513 92.75,443.33772 94.709605,442.547 94.213288,441 92,441 c -1.111111,0 -2,0.66667 -2,1.5 0,0.825 -0.3375,1.55509 -0.75,1.62243 -3.308413,0.54005 -10.119741,0.45987 -11.75,-0.13831 z M 97.5,442 c 0.339919,-0.55 -0.08352,-1 -0.940983,-1 C 95.701558,441 95,441.45 95,442 c 0,0.55 0.423442,1 0.940983,1 0.517541,0 1.219098,-0.45 1.559017,-1 z m 116,-3 c -0.33992,-0.55 -1.49148,-1 -2.55902,-1 -1.06754,0 -1.94098,0.45 -1.94098,1 0,0.55 1.15156,1 2.55902,1 1.45136,0 2.2915,-0.43284 1.94098,-1 z M 95,437.07959 c 0,-0.50622 3.0375,-1.21315 6.75,-1.57096 3.7125,-0.3578 7.425,-0.9243 8.25,-1.25888 2.01046,-0.81533 3.17086,-0.96993 12.5,-1.66534 4.4,-0.32798 9.60896,-0.84493 11.57546,-1.14878 1.96651,-0.30385 12.31651,-0.77043 23,-1.03685 10.6835,-0.26643 22.57454,-0.59148 26.42454,-0.72234 6.69773,-0.22766 19.67887,0.57677 25.96949,1.60931 1.63322,0.26808 3.88322,0.11697 5,-0.33578 1.61592,-0.65512 1.68524,-0.83614 0.33953,-0.88658 -2.1636,-0.0811 -3.09207,-1.59622 -2.37079,-3.86877 0.38358,-1.20857 1.45706,-1.73323 3.31455,-1.62 1.51097,0.0921 4.01128,0.22551 5.55624,0.29643 1.59313,0.0731 2.5415,0.5618 2.19098,1.12895 -0.33992,0.55 -0.16803,1 0.38197,1 0.55,0 1.28366,-0.45898 1.63037,-1.01997 0.34671,-0.56098 3.86076,-1.01855 7.80902,-1.01682 3.94825,0.002 10.77864,-0.0419 15.17864,-0.0968 10.87517,-0.13591 17.25779,0.18759 15.74377,0.79799 -2.06944,0.83431 -0.32445,2.34421 2.56525,2.21964 1.69306,-0.073 2.04201,-0.2856 0.94098,-0.57333 -0.9625,-0.25152 -1.75,-0.87432 -1.75,-1.38399 0,-1.45844 2.62618,-1.08203 4,0.57332 1.45564,1.75394 3.45228,2.04083 2.40451,0.34549 -0.47266,-0.76478 -0.27061,-0.88077 0.59855,-0.3436 1.57012,0.97039 15.35253,1.01441 16.90651,0.054 0.59974,-0.37066 1.09043,-0.25992 1.09043,0.24608 0,1.00923 16.78439,0.74698 17.80963,-0.27827 0.75102,-0.75102 -1.7527,-2.48656 -3.61865,-2.50839 -0.71996,-0.008 -1.10132,0.32219 -0.84748,0.73469 0.25385,0.4125 -1.74459,0.84767 -4.44098,0.96704 C 297.20613,425.8364 295,425.51474 295,425.00222 c 0,-1.45744 4.14929,-3.35717 8,-3.66276 1.925,-0.15276 5.62122,-0.725 8.21382,-1.27164 2.5926,-0.54664 9.1176,-1.02504 14.5,-1.0631 5.3824,-0.0381 10.66544,-0.0758 11.74009,-0.0838 1.07466,-0.008 2.42466,-0.40376 3,-0.87947 0.57535,-0.47571 2.17109,-0.83935 3.54609,-0.80809 2.84922,0.0648 10.87593,-1.04223 11.85121,-1.63444 0.35683,-0.21667 5.82379,-0.93471 12.14879,-1.59564 6.325,-0.66092 12.0601,-1.66016 12.74467,-2.22053 0.68457,-0.56037 2.16358,-0.77855 3.28667,-0.48485 1.1231,0.29369 4.49696,-0.4648 7.49747,-1.68554 4.34809,-1.76899 6.58546,-2.09515 11.02225,-1.60679 3.06173,0.33701 5.80313,0.2303 6.09201,-0.23712 0.28889,-0.46742 1.33566,-0.59264 2.32618,-0.27826 1.95092,0.6192 6.4903,-1.00875 9.26199,-3.32161 1.34979,-1.12635 2.04603,-1.18341 3.15991,-0.25897 1.14287,0.9485 1.74674,0.73156 3.01875,-1.08449 0.87456,-1.2486 1.5901,-2.81053 1.5901,-3.47095 0,-0.66042 1.05341,-2.4728 2.34092,-4.02749 5.66182,-6.8368 8.13744,-12.59576 8.30803,-19.32673 0.15244,-6.01447 0.55737,-9.42675 1.90557,-16.05803 0.28603,-1.40692 -0.13774,-5.08353 -0.94173,-8.17025 -1.10706,-4.25028 -1.46652,-12.24439 -1.48126,-32.94196 -0.0107,-15.03137 -0.51339,-32.50164 -1.11708,-38.82282 -0.6037,-6.32118 -0.82687,-13.74618 -0.49594,-16.5 0.33093,-2.75382 0.68714,-8.26923 0.79159,-12.25648 0.10444,-3.98724 0.55658,-7.24974 1.00474,-7.25 0.44816,-2.5e-4 0.68507,-2.88985 0.52647,-6.42133 -0.15859,-3.53148 -0.67439,-6.18229 -1.14621,-5.89069 -0.47182,0.2916 -0.72903,-0.30651 -0.57158,-1.32913 0.15745,-1.02262 -0.23012,-2.79399 -0.86125,-3.93637 -2.07097,-3.74852 -3.76853,-37.08955 -1.91973,-37.70442 1.13916,-0.37886 1.62714,-24.61923 0.50951,-25.30996 -0.48657,-0.30072 -0.6581,-0.91335 -0.38119,-1.36142 0.27692,-0.44806 0.0481,-4.12947 -0.50843,-8.1809 -1.9085,-13.89271 -3.13059,-27.37562 -3.43323,-37.87757 -0.1707,-5.9234 -0.91126,-12.03405 -1.69668,-14 -1.69939,-4.253636 -1.31514,-8.111099 0.72979,-7.326388 C 430.445,95.001006 431,94.593629 431,93.606989 431,92.723145 430.57829,92 430.06287,92 c -0.51542,0 -0.68296,-1.566285 -0.3723,-3.480633 0.37873,-2.333841 0.0285,-4.299117 -1.06287,-5.964817 C 427.73246,81.188249 427,79.2243 427,78.19022 427,75.057453 415.04382,57.664303 414.98469,60.711045 414.97627,61.14497 414.53316,60.825 414,60 c -0.64625,-1 -0.97448,-1.083333 -0.98469,-0.25 -0.008,0.6875 -0.49187,1.25 -1.07433,1.25 -0.58246,0 -0.84767,-0.341958 -0.58937,-0.759906 0.25831,-0.417949 -0.13682,-2.202269 -0.87805,-3.965155 -1.40566,-3.343082 -2.1403,-3.662805 -10.97356,-4.775867 -9.61529,-1.211604 -12.5,-2.01436 -12.5,-3.4785 0,-0.708616 -6.20712,-0.88034 -29.5,-0.816137 -17.2227,0.04747 -20.5,0.207177 -20.5,0.998978 0,1.300843 -3.7897,0.904713 -4.33772,-0.453413 -0.30132,-0.746741 -0.53617,-0.545438 -0.58333,0.5 -0.0607,1.344425 -0.94804,1.746451 -3.82895,1.734687 -2.10242,-0.0086 -3.224,-0.349696 -2.55279,-0.776393 0.78959,-0.501946 0.87992,-1.262818 0.26532,-2.234687 -0.51255,-0.810484 -0.9388,-1.002208 -0.94722,-0.426054 -0.0143,0.977497 -4.77194,1.506013 -13.01531,1.44584 -14.03647,-0.10246 -19.54528,0.196552 -19.84725,1.077286 -0.22387,0.65297 -0.83367,0.609099 -1.71637,-0.123482 -0.75303,-0.624953 -1.94677,-0.933347 -2.65276,-0.685319 -0.70599,0.248028 -2.28019,0.08277 -3.49822,-0.367249 -1.30759,-0.483102 -2.46469,-0.413543 -2.82524,0.16984 -0.33586,0.543426 -2.03929,0.94317 -3.78541,0.888319 -1.74611,-0.05485 -7.13469,0.132415 -11.97462,0.416145 -22.02854,1.291374 -28.50884,1.114162 -30.66664,-0.838621 -1.83193,-1.657878 -3.98587,-1.853251 -20.78859,-1.885627 -12.21494,-0.02354 -19.46959,0.361038 -20.8252,1.10396 -1.5691,0.859927 -2.67489,0.846588 -4.5,-0.05428 -1.33083,-0.656899 -3.7697,-1.03244 -5.4197,-0.834536 -1.65,0.197904 -17.175,0.285205 -34.5,0.194003 -32.30122,-0.17004 -42.72121,0.610507 -59.5,4.457065 -3.85,0.882618 -10.375,2.294494 -14.5,3.137504 -10.788858,2.204876 -20,8.944415 -20,14.633449 0,0.810295 -0.670045,2.029352 -1.48899,2.709015 -0.818944,0.679663 -1.261603,1.603669 -0.983688,2.053347 0.277916,0.449677 0.07562,1.083151 -0.449543,1.407721 -0.525164,0.324569 -0.783343,1.480664 -0.573729,2.569098 C 51.713663,79.109463 51.434445,80 50.883565,80 50.332686,80 50.160081,80.45 50.5,81 c 0.339919,0.55 -0.02601,1 -0.813175,1 -2.407192,0 -3.902621,11.26104 -2.456739,18.5 1.396939,6.99392 1.878158,15.19862 3.255169,55.5 0.327295,9.57905 0.1453,8.97764 2.764745,9.13618 l 2.25,0.13618 -2.25,0.43337 c -2.078079,0.40026 -2.25,0.96888 -2.25,7.44173 0,3.8546 0.43273,12.2608 0.961623,18.68045 2.239599,27.18405 2.380978,31.71589 1.456024,46.67209 -1.464878,23.68658 -1.870194,41.86447 -1.204049,54 1.395336,25.41959 1.991167,61.47371 1.061612,64.23881 -0.821781,2.4445 -0.519281,10.04102 1.125384,28.26119 0.64519,7.14764 2.564229,22.71181 2.980134,24.17007 0.208618,0.73146 1.095671,3.80493 1.971229,6.82993 0.875558,3.025 1.842337,6.625 2.148398,8 0.814396,3.65872 9.24356,9.66337 14.599762,10.40038 2.419936,0.33297 7.324883,1.24333 10.899883,2.02302 8.132609,1.77366 8,1.76278 8,0.65619 z m 30,-55.08641 c 0,-0.31383 -2.44016,-2.0495 -5.42259,-3.85704 -2.98242,-1.80754 -6.46992,-4.82785 -7.75,-6.71181 -1.28007,-1.88395 -2.83785,-3.23424 -3.46172,-3.00063 -1.36759,0.51209 -2.85767,-7.48597 -1.55394,-8.34086 0.48886,-0.32056 1.42879,-1.60794 2.08872,-2.86085 0.65993,-1.2529 1.6273,-2.01385 2.1497,-1.69098 0.52241,0.32286 0.94983,-0.11863 0.94983,-0.98109 0,-0.86247 1.35,-2.98077 3,-4.70734 1.65,-1.72656 3,-3.48139 3,-3.89961 0,-0.41823 2.98462,-3.10593 6.63248,-5.97267 3.64787,-2.86675 15.27483,-13.82032 25.8377,-24.34128 10.56287,-10.52096 22.54075,-22.37337 26.61752,-26.33869 4.07676,-3.96532 8.57297,-8.46532 9.99157,-10 10.89175,-11.78303 21.54566,-19.90913 25.07117,-19.12267 1.63267,0.36421 11.60923,-7.069 14.2255,-10.59895 1.03177,-1.39209 2.26927,-2.28798 2.75,-1.99087 0.48073,0.2971 0.87406,0.094 0.87406,-0.45144 0,-0.54539 0.89895,-1.27694 1.99768,-1.62566 1.09872,-0.34872 2.2725,-1.72905 2.6084,-3.06739 C 234.94199,241.09501 235.84303,240 236.60841,240 237.37378,240 238,239.58462 238,239.07692 c 0,-0.50769 1.39497,-2.31804 3.09993,-4.02301 2.97174,-2.97174 3.03377,-3.20091 1.5,-5.54174 C 241.71997,228.16918 241,226.53696 241,225.88503 c 0,-0.65194 -1.52944,-5.50527 -3.39876,-10.78519 -5.84835,-16.51876 -6.71922,-24.22629 -4.67335,-41.36106 2.43357,-20.38184 6.85244,-33.48845 14.88015,-44.13529 2.03058,-2.69308 4.14196,-5.57859 4.69196,-6.41225 3.30838,-5.01465 12.55186,-13.98796 16.18512,-15.71206 1.84872,-0.87728 3.12983,-1.96958 2.84691,-2.42735 -0.60776,-0.98338 6.40373,-4.57984 8.21797,-4.21531 0.6875,0.13813 1.25,-0.44357 1.25,-1.292683 C 281,98.509728 281.95008,98 283.87756,98 c 1.58265,0 3.43775,-0.675 4.12244,-1.5 0.68469,-0.825 1.84952,-1.5 2.58852,-1.5 0.73899,0 3.04639,-0.728648 5.12755,-1.619217 9.60712,-4.111073 9.88302,-4.184647 11.75787,-3.135428 1.29888,0.726891 2.39106,0.695537 3.67367,-0.105465 C 312.1515,89.51295 313.87897,89 314.98643,89 316.09389,89 317,88.632247 317,88.182772 c 0,-0.449476 1.9125,-0.547357 4.25,-0.217513 2.3375,0.329843 6.44641,0.216506 9.13091,-0.25186 3.23325,-0.564105 5.24181,-0.490679 5.95,0.217513 0.588,0.587998 2.31221,1.069088 3.83158,1.069088 4.67232,0 13.34516,3.840514 20.50772,9.08124 10.92293,7.99214 19.37799,17.91628 25.06387,29.41876 4.41019,8.92179 6.99501,15.03275 7.61367,18 0.11467,0.55 0.5784,1.59244 1.03051,2.31653 0.4521,0.72409 0.5699,1.56865 0.26176,1.87679 -0.30814,0.30813 0.10133,1.83961 0.90993,3.40327 0.8086,1.56366 1.38174,3.19411 1.27364,3.62321 -0.32829,1.30318 1.27188,11.534 2.44131,15.6088 0.89194,3.10791 0.82925,3.99916 -0.33306,4.73469 -1.22542,0.77546 -1.2156,0.9105 0.0682,0.93671 1.29611,0.0265 1.30314,0.15517 0.0518,0.94685 -1.80295,1.14063 -2.69932,12.75678 -1.2952,16.78464 1.04073,2.98544 -0.41919,14.26851 -1.8462,14.26851 -0.41539,0 -1.28572,1.6875 -1.93408,3.75 -1.89091,6.01524 -4.29598,11.25 -5.16872,11.25 -0.44415,0 -0.8108,0.5625 -0.81477,1.25 -0.0122,2.11408 -22.60903,23.28263 -26.31472,24.65146 -0.59776,0.22081 -1.93933,1.19569 -2.98127,2.1664 -1.04194,0.97071 -3.01235,2.04551 -4.3787,2.38844 -1.36634,0.34293 -4.35937,1.83583 -6.65118,3.31756 -2.2918,1.48172 -5.06691,2.8324 -6.16691,3.00151 -1.1,0.16911 -2.9,0.43661 -4,0.59445 -1.1,0.15784 -2.675,0.55144 -3.5,0.87468 -0.825,0.32324 -2.175,0.55947 -3,0.52497 -0.825,-0.0345 -4.56646,0.25931 -8.31437,0.65293 -4.42189,0.46439 -7.26889,0.33843 -8.10896,-0.35877 -0.93132,-0.77293 -2.38649,-0.69317 -5.18564,0.28423 -3.19481,1.11555 -4.51728,1.13013 -7.39103,0.0815 -1.925,-0.70245 -5.51657,-1.31142 -7.98126,-1.35326 -3.27123,-0.0555 -7.72656,-1.61398 -16.5,-5.77158 -6.61031,-3.13252 -12.3012,-6.10753 -12.64644,-6.61112 -0.34523,-0.5036 -3.27023,1.1701 -6.5,3.71932 C 251.66218,259.70894 243.61854,267 244.48576,267 c 0.32111,0 -1.06018,1.44346 -3.06953,3.2077 -4.59781,4.03693 -8.83917,10.63691 -8.6237,13.41934 0.0906,1.16988 -0.97886,3.36099 -2.37657,4.86914 -1.39771,1.50815 -3.64351,4.48814 -4.99068,6.62219 -1.34717,2.13405 -4.30157,5.56794 -6.56533,7.63086 -2.26376,2.06292 -6.99891,6.56327 -10.52254,10.00077 -3.52364,3.4375 -6.83247,6.25 -7.35296,6.25 -0.52049,0 -1.20663,1.03705 -1.52475,2.30456 -0.31813,1.26751 -2.11725,3.13328 -3.99806,4.14616 -1.8808,1.01288 -3.68442,2.67583 -4.00803,3.69544 C 191.13,330.16577 190.48019,331 190.00959,331 188.91321,331 181,339.04456 181,340.15914 181,340.62161 180.07344,341 178.94098,341 c -1.13246,0 -1.80406,0.41252 -1.49245,0.91672 0.31161,0.5042 -1.4454,2.1917 -3.90447,3.75 -2.45907,1.5583 -4.48747,3.39578 -4.50755,4.08328 -0.0201,0.6875 -0.44151,1.25 -0.93651,1.25 -1.27516,0 -7.94478,6.82189 -7.3,7.46667 C 161.09333,358.76 160.58333,359 159.66667,359 158.75,359 158,359.40122 158,359.89159 c 0,0.49038 -1.125,1.17395 -2.5,1.51905 -1.375,0.34511 -2.5,1.00779 -2.5,1.47264 0,1.38144 -10.67267,12.24565 -12.2584,12.47838 -0.80326,0.11789 -2.23087,0.98475 -3.17246,1.92635 -0.9416,0.94159 -2.28511,1.71199 -2.98558,1.71199 -0.70047,0 -2.07897,0.88994 -3.06333,1.97765 -1.58082,1.74678 -6.52023,2.5161 -6.52023,1.01553 z m 24.98469,-23.3022 C 149.99311,358.24602 149.55,358.16008 149,358.5 c -0.55,0.33992 -0.99311,1.37898 -0.98469,2.30902 0.0132,1.45727 0.14929,1.48367 0.98469,0.19098 0.53316,-0.825 0.97627,-1.86406 0.98469,-2.30902 z M 158,350.87756 C 158,349.8449 157.55,349 157,349 c -0.55,0 -1,0.6382 -1,1.41821 0,0.78002 -0.30925,2.24252 -0.68723,3.25 -0.60496,1.61251 -0.48525,1.66749 1,0.45935 0.92798,-0.75485 1.68723,-2.21735 1.68723,-3.25 z m -12,-8.93658 c 0,-0.58246 -0.45,-0.7809 -1,-0.44098 -0.55,0.33992 -1,0.81648 -1,1.05902 0,0.24254 0.45,0.44098 1,0.44098 0.55,0 1,-0.47656 1,-1.05902 z M 139,334 c 0,-0.55 -0.45,-1 -1,-1 -0.55,0 -1,0.45 -1,1 0,0.55 0.45,1 1,1 0.55,0 1,-0.45 1,-1 z m 31.39301,-3.58179 C 171.32178,327.99788 171.11738,326 169.94098,326 c -0.58246,0 -0.80012,0.41891 -0.48369,0.9309 0.31644,0.512 0.11799,1.21356 -0.44098,1.55902 -1.253,0.77439 -1.34909,3.51008 -0.1233,3.51008 0.49116,0 1.16616,-0.7118 1.5,-1.58179 z M 172.98469,303.75 C 172.99311,303.3375 172.55,303 172,303 c -0.55,0 -0.99311,1.0125 -0.98469,2.25 0.0124,1.81944 0.20082,1.96296 0.98469,0.75 0.53316,-0.825 0.97627,-1.8375 0.98469,-2.25 z m 44.4726,-33.8191 C 216.60006,268.54386 216,268.80249 216,270.55902 c 0,0.85746 0.45734,1.27636 1.01631,0.9309 0.55897,-0.34546 0.75742,-1.04702 0.44098,-1.55902 z m 17.31713,-1.6809 c 6.27399,-10.98029 16.89286,-20.5 22.86695,-20.5 2.69589,0 3.15293,-1.50797 0.7379,-2.4347 -0.8914,-0.34206 -3.45762,-2.61473 -5.70272,-5.05038 l -4.082,-4.42844 -2.04727,2.83124 c -1.12601,1.55718 -4.18478,5.19874 -6.79728,8.09235 -2.6125,2.89361 -4.75,5.64063 -4.75,6.10449 0,1.92724 -6.10992,7.10679 -10.75,9.11308 -2.85825,1.23585 -2.88745,3.61084 -0.063,5.12244 1.20285,0.64375 3.08771,2.00958 4.18856,3.03518 2.86874,2.67264 3.98193,2.34467 6.39886,-1.88526 z m 69.80018,-8.12929 c -0.29889,-0.48361 -1.47616,-1.12321 -2.61617,-1.42133 -1.70185,-0.44504 -1.86166,-0.28771 -0.89314,0.87929 1.26442,1.52353 4.41683,2.01044 3.50931,0.54204 z M 295,259.0567 c 0,-1.14497 -4.1883,-4.20173 -4.8502,-3.53983 C 289.55244,256.11422 293.02396,260 294.15499,260 294.61974,260 295,259.57552 295,259.0567 z m 36.58783,-7.65768 C 333.95121,250.07956 337.33389,249 339.1049,249 c 3.39778,0 10.09893,-3.76662 17.8951,-10.05857 2.475,-1.99746 6.1875,-4.63813 8.25,-5.86815 2.0625,-1.23002 3.75762,-2.5372 3.76694,-2.90484 0.009,-0.36764 2.0137,-2.79699 4.45417,-5.39855 2.44048,-2.60155 4.9796,-5.74353 5.64249,-6.98216 1.6342,-3.05352 4.85155,-14.98042 5.97009,-22.13139 0.50273,-3.21401 1.09313,-6.13901 1.312,-6.5 0.21887,-0.36099 0.0289,-5.83134 -0.42208,-12.15634 -0.84374,-11.8324 -4.81155,-25.95347 -8.40973,-29.92941 -0.86013,-0.95044 -1.57043,-2.59264 -1.57843,-3.64933 -0.0343,-4.52394 -6.42881,-17.82745 -12.69979,-26.42126 -4.76771,-6.53372 -11.51746,-12 -14.81757,-12 -1.67486,0 -4.81066,-0.90008 -6.96843,-2.00017 -2.15777,-1.1001 -4.72792,-1.74477 -5.71144,-1.43261 C 334.8047,101.87937 334,101.65445 334,101.06739 334,100.48032 333.1,100 332,100 c -1.1,0 -2,0.40077 -2,0.89059 0,1.37199 -6.95645,1.86681 -8.03162,0.5713 -0.52307,-0.63025 -0.61743,-1.479504 -0.2097,-1.887233 0.40772,-0.407728 0.0663,-0.591324 -0.75868,-0.40799 -0.825,0.183333 -1.791,0.734656 -2.14667,1.225163 -0.35567,0.4905 -2.15567,0.96862 -4,1.06247 -1.84433,0.0939 -4.70333,0.77311 -6.35333,1.50947 -1.65,0.73635 -3.96952,1.24417 -5.15449,1.12848 -1.18497,-0.11569 -2.44902,0.26622 -2.80902,0.8487 -0.35999,0.58248 -1.71844,1.05905 -3.01878,1.05905 -1.30034,0 -3.71607,1.13747 -5.36828,2.52772 -1.83321,1.54254 -4.36725,2.57897 -6.50173,2.65921 -2.62063,0.0985 -3.63194,0.64482 -4.03304,2.17861 -0.29443,1.12592 -0.82613,1.75632 -1.18155,1.4009 -0.66652,-0.66651 -1.92917,0.18574 -5.73006,3.86764 -1.21168,1.17374 -3.89469,2.6725 -5.96226,3.33059 -2.06756,0.65808 -3.48455,1.64092 -3.14885,2.18409 0.3357,0.54318 1.23984,0.74603 2.00921,0.4508 0.80714,-0.30973 1.39885,0.0844 1.39885,0.93182 0,0.80774 -0.86,1.46862 -1.91111,1.46862 -1.0511,0 -3.12294,1.44018 -4.60407,3.20041 -2.46673,2.93154 -2.54035,3.25394 -0.87631,3.83765 1.60724,0.56379 1.49709,0.84664 -0.95559,2.4537 -2.07395,1.3589 -2.44236,2.02567 -1.46259,2.64703 1.033,0.65512 0.9928,0.84024 -0.19033,0.87631 -3.25554,0.0992 1.50795,1.74201 7,2.41408 7.4949,0.91717 19.39803,5.78414 19.85874,8.11987 0.19731,1.00032 -0.29604,2.2985 -1.09632,2.88485 -5.48038,4.01536 -7.80891,17.66548 -6.66418,39.0661 0.11768,2.2 0.14372,5.29562 0.0579,6.87917 l -0.1561,2.87916 -6.07718,-0.68755 c -3.46365,-0.39187 -6.58156,-0.28058 -7.25,0.25877 -1.6383,1.32192 -10.5205,-1.67642 -11.74519,-3.96478 -0.91521,-1.71008 -2.58284,-9.03105 -3.44421,-15.12028 -0.59216,-4.18603 3.12872,-27.46769 5.45801,-34.15104 2.81057,-8.06424 2.71467,-9.55845 -0.42424,-6.6096 -1.36555,1.28287 -2.76347,3.27381 -3.1065,4.42432 -0.34303,1.15051 -1.4712,2.76683 -2.50704,3.59183 -1.43988,1.14679 -2.00404,3.26605 -2.39585,9 -0.64955,9.50582 -1.13671,13.38231 -2.38772,19 -0.6178,2.77425 -0.67541,7.11285 -0.15021,11.31316 0.99806,7.98203 4.0266,18.68684 5.28677,18.68684 0.48297,0 0.61549,0.82752 0.29448,1.83894 -0.32101,1.01142 0.18226,3.59892 1.11838,5.75 0.93613,2.15108 1.64298,4.17495 1.5708,4.49748 -0.30315,1.35449 12.61117,13.79841 16.27413,15.68136 2.19207,1.12683 6.13097,4.11506 8.75313,6.6405 2.62216,2.52545 5.22788,4.59172 5.79049,4.59172 0.56262,0 2.26938,0.92154 3.79282,2.04787 1.52344,1.12632 3.86772,2.10486 5.20951,2.17453 1.34179,0.0697 3.22712,0.79288 4.18962,1.60712 1.55043,1.31163 1.95323,1.29654 3.53211,-0.13233 1.607,-1.45432 2.45637,-1.47171 8.64471,-0.17694 3.77444,0.78972 6.98402,1.55823 7.1324,1.7078 0.14838,0.14957 2.84869,0.11401 6.00067,-0.079 3.65279,-0.22371 7.28906,-1.2209 10.02794,-2.75 z m 57.01634,-36.12819 c -0.33229,-0.33229 -0.56864,0.25834 -0.52522,1.3125 0.048,1.16495 0.28494,1.4019 0.60416,0.60417 0.28887,-0.72188 0.25335,-1.58438 -0.0789,-1.91667 z M 267.75,195.75 c -0.22917,-0.6875 -0.96737,-1.25 -1.64046,-1.25 -0.67308,0 -2.13639,-1.125 -3.2518,-2.5 l -2.02801,-2.5 0.57148,2.5 c 0.31431,1.375 0.57763,3.0625 0.58514,3.75 0.008,0.72678 1.30427,1.25 3.09698,1.25 2.02223,0 2.93994,-0.43018 2.66667,-1.25 z m -9.56667,-1.96667 c -0.71756,-0.71756 -1.18333,-0.7766 -1.18333,-0.15 0,1.33478 1.18261,2.51739 1.85,1.85 0.28417,-0.28416 -0.0158,-1.04916 -0.66667,-1.7 z M 269.25,188.38401 c 0.9625,-0.3395 1.73569,-0.90229 1.7182,-1.25064 -0.0472,-0.93981 -2.90501,-4.55711 -3.20787,-4.06037 -1.68158,2.75814 -2.76033,5.10171 -2.76033,5.99676 0,0.6033 0.5625,0.8347 1.25,0.51422 0.6875,-0.32048 2.0375,-0.86047 3,-1.19997 z M 263,183.02432 c 0,-1.02171 0.42621,-2.00765 0.94714,-2.19099 0.52093,-0.18333 1.21327,-1.85781 1.53853,-3.72106 0.32526,-1.86325 1.0587,-4.26091 1.62986,-5.32814 1.25514,-2.34525 0.26726,-6.02154 -1.04676,-3.89541 -0.453,0.73297 -0.58819,2.23303 -0.30042,3.33345 0.46641,1.78355 0.18167,1.92576 -2.62257,1.30985 -3.5518,-0.78011 -3.73761,-0.12905 -2.51301,8.80537 0.60055,4.38149 2.36723,5.64046 2.36723,1.68693 z m -7.39583,-7.75349 c -0.3323,-0.33229 -0.56864,0.25834 -0.52522,1.3125 0.048,1.16495 0.28494,1.4019 0.60416,0.60417 0.28887,-0.72188 0.25335,-1.58438 -0.0789,-1.91667 z M 264,169.08179 c 0,-1.95285 -1.25164,-4.0443 -2.10478,-3.51703 C 260.41038,166.48244 260.89004,170 262.5,170 c 0.825,0 1.5,-0.4132 1.5,-0.91821 z M 257.66228,162.75 c -0.27741,-0.6875 -0.50439,-0.125 -0.50439,1.25 0,1.375 0.22698,1.9375 0.50439,1.25 0.27741,-0.6875 0.27741,-1.8125 0,-2.5 z M 268,163.94098 c 0,-0.58246 -0.45,-0.7809 -1,-0.44098 -0.55,0.33992 -1,0.81648 -1,1.05902 0,0.24254 0.45,0.44098 1,0.44098 0.55,0 1,-0.47656 1,-1.05902 z m 7.71135,-7.19098 c 1.85946,-6.16542 1.85865,-6.26045 -0.06,-7.0221 -1.2608,-0.50049 -2.53666,-0.23665 -3.6269,0.75 -2.22623,2.01471 -2.68531,1.92687 -3.35717,-0.64235 -0.47809,-1.82819 -0.80692,-1.96452 -2.11664,-0.87756 -2.34447,1.94574 -1.9597,4.71563 0.64197,4.62141 1.75495,-0.0635 2.50345,0.86769 3.75,4.6655 0.85658,2.6097 1.85586,4.7472 2.22061,4.75 0.36475,0.003 1.51142,-2.8074 2.54816,-6.2449 z M 260,158.88197 c 0,-0.55 -0.45,-0.72189 -1,-0.38197 -0.55,0.33992 -1,1.06803 -1,1.61803 0,0.55 0.45,0.72189 1,0.38197 0.55,-0.33992 1,-1.06803 1,-1.61803 z M 374.36163,123.5 C 373.75303,121.91402 372,121.41916 372,122.83333 c 0,1.05752 1.09309,2.16667 2.13528,2.16667 0.44107,0 0.54293,-0.675 0.22635,-1.5 z M 326,99 c 0,-0.55 -0.47656,-1 -1.05902,-1 -0.58246,0 -0.7809,0.45 -0.44098,1 0.33992,0.55 0.81648,1 1.05902,1 C 325.80156,100 326,99.55 326,99 z m -9.24712,-4.554639 C 318.2638,93.657189 318.825,93.019555 318,93.028397 c -0.825,0.0088 -2.625,0.945118 -4,2.080616 -1.375,1.135497 -1.9362,1.773131 -1.24712,1.416965 0.68909,-0.356167 2.48909,-1.292445 4,-2.080617 z m 113.0668,63.135759 C 429.58974,155.61151 429.71246,154 430.09239,154 c 1.16776,0 2.07672,5.23089 1.08184,6.22577 -0.58197,0.58197 -1.09474,-0.41917 -1.35455,-2.64465 z M 245.5,429 c -0.33992,-0.55 -0.81648,-1 -1.05902,-1 -0.24254,0 -0.44098,0.45 -0.44098,1 0,0.55 0.47656,1 1.05902,1 0.58246,0 0.7809,-0.45 0.44098,-1 z m 5.89699,0.16667 c 0.28327,-0.45834 -0.14017,-0.83334 -0.94098,-0.83334 -0.8008,0 -1.45601,0.375 -1.45601,0.83334 0,0.45833 0.42344,0.83333 0.94098,0.83333 0.51754,0 1.17275,-0.375 1.45601,-0.83333 z M 315,425.5 c 0,-0.825 -0.87344,-1.5 -1.94098,-1.5 -2.83503,0 -3.47569,1.78263 -0.82385,2.29232 1.24566,0.23943 2.37733,0.4966 2.51483,0.5715 0.1375,0.0749 0.25,-0.53882 0.25,-1.36382 z m 4.36163,-1 c -0.31659,-0.825 -1.20246,-1.5 -1.96862,-1.5 -1.73208,0 -1.83337,1.65564 -0.14301,2.33772 2.20805,0.89097 2.70008,0.69577 2.11163,-0.83772 z m 10.9102,-1.36565 c -0.53457,-0.34889 -1.15192,-1.18214 -1.37189,-1.85166 -0.2207,-0.67175 -0.91825,-0.11098 -1.55643,1.25123 -0.63608,1.35769 -0.83959,2.27267 -0.45226,2.03329 0.38733,-0.23938 1.35776,-0.0294 2.1565,0.46673 1.63609,1.01615 2.83674,-0.84708 1.22408,-1.89959 z m -5.00165,-0.0595 c 0.35318,-1.35055 0.0895,-1.76634 -0.88336,-1.39301 -1.50131,0.5761 -1.77775,1.59393 -0.72015,2.65152 0.95264,0.95265 1.04404,0.88091 1.60351,-1.25851 z M 409.75,411.75 c -0.47189,-1.41567 -2.07998,-1.26005 -2.58333,0.25 -0.18334,0.55 0.41666,1 1.33333,1 0.91667,0 1.47917,-0.5625 1.25,-1.25 z M 51.361626,347.5 C 51.045044,346.675 50.609167,346 50.393011,346 50.176855,346 50,346.675 50,347.5 c 0,0.825 0.435877,1.5 0.968615,1.5 0.532739,0 0.709594,-0.675 0.393011,-1.5 z m -1.757459,-8.22917 c -0.332292,-0.33229 -0.568641,0.25834 -0.52522,1.3125 0.04798,1.16495 0.284941,1.4019 0.604167,0.60417 0.288871,-0.72188 0.253344,-1.58438 -0.07895,-1.91667 z M 51,337 c 0,-0.55 -0.45,-1 -1,-1 -0.55,0 -1,0.45 -1,1 0,0.55 0.45,1 1,1 0.55,0 1,-0.45 1,-1 z m -4.337719,-54.25 c -0.277413,-0.6875 -0.504386,-0.125 -0.504386,1.25 0,1.375 0.226973,1.9375 0.504386,1.25 0.277412,-0.6875 0.277412,-1.8125 0,-2.5 z m 0.613963,-33 c -0.17827,-5.0875 0.06363,-11.30762 0.537549,-13.8225 0.473921,-2.51487 0.497624,-5.55662 0.05267,-6.75944 -0.444951,-1.20282 -1.029009,-7.49504 -1.297906,-13.98272 -0.268897,-6.48768 -0.952484,-12.89594 -1.519082,-14.24056 -0.726647,-1.72445 -0.90605,6.16864 -0.608888,26.78897 0.231709,16.07856 0.703925,29.69106 1.049367,30.25 1.593745,2.57873 2.085704,0.31108 1.786287,-8.23375 z M 45,195.5 c 0,-1.375 -0.387598,-2.5 -0.861328,-2.5 -0.473731,0 -0.646271,1.125 -0.383423,2.5 0.262848,1.375 0.650446,2.5 0.861328,2.5 C 44.82746,198 45,196.875 45,195.5 z M 42.19688,134.5607 C 41.639059,129.78256 41,130.04863 41,135.05902 c 0,2.23246 0.362829,3.83477 0.806286,3.5607 0.443458,-0.27407 0.619225,-2.10063 0.390594,-4.05902 z m -0.592713,-9.28987 c -0.332292,-0.33229 -0.568641,0.25834 -0.52522,1.3125 0.04798,1.16495 0.284941,1.4019 0.604167,0.60417 0.288871,-0.72187 0.253344,-1.58437 -0.07895,-1.91667 z m 401.888753,-3.25938 c 0.35034,-0.56686 -0.0511,-0.7345 -0.94098,-0.39301 -1.73242,0.66479 -2.04939,1.38156 -0.61096,1.38156 0.51754,0 1.21592,-0.44485 1.55194,-0.98855 z M 443,118.94098 C 443,118.42344 442.55,118 442,118 c -0.55,0 -1,0.70156 -1,1.55902 0,0.85746 0.45,1.2809 1,0.94098 0.55,-0.33992 1,-1.04148 1,-1.55902 z M 379,41 c 0,-0.55 -0.47656,-1 -1.05902,-1 -0.58246,0 -0.7809,0.45 -0.44098,1 0.33992,0.55 0.81648,1 1.05902,1 C 378.80156,42 379,41.55 379,41 z M 203.5,442 c -0.33992,-0.55 -0.14148,-1 0.44098,-1 0.58246,0 1.05902,0.45 1.05902,1 0,0.55 -0.19844,1 -0.44098,1 -0.24254,0 -0.7191,-0.45 -1.05902,-1 z M 275.01191,35.588093 c 0.65079,-0.650791 1.38035,-0.595834 2.13717,0.160988 0.86544,0.865441 0.62154,1.109343 -0.98809,0.988093 -1.40761,-0.106033 -1.79987,-0.498291 -1.14908,-1.149081 z M 279,36 c 0,-0.55 0.19844,-1 0.44098,-1 0.24254,0 0.7191,0.45 1.05902,1 0.33992,0.55 0.14148,1 -0.44098,1 C 279.47656,37 279,36.55 279,36 z M 38.419288,32.05322 c 0.143766,-2.445729 0.771545,-4.616831 1.395063,-4.82467 0.806499,-0.268833 0.869309,0.437296 0.217642,2.44678 C 39.528177,31.228898 38.900398,33.4 38.636929,34.5 38.37346,35.6 38.275522,34.4989 38.419288,32.05322 z"
     id="path3071"
     inkscape:connector-curvature="0" />
</svg>
