<?xml version="1.0" encoding="utf-8"?>
<!-- Generator: Adobe Illustrator 16.0.0, SVG Export Plug-In . SVG Version: 6.00 Build 0)  -->
<!DOCTYPE svg PUBLIC "-//W3C//DTD SVG 1.1//EN" "http://www.w3.org/Graphics/SVG/1.1/DTD/svg11.dtd">
<svg version="1.1" xmlns="http://www.w3.org/2000/svg" xmlns:xlink="http://www.w3.org/1999/xlink" x="0px" y="0px"
	 width="541.333px" height="110.667px" viewBox="0 0 541.333 110.667" enable-background="new 0 0 541.333 110.667"
	 xml:space="preserve">
<g id="Horizontal_-_1">
	<g>
		<g>
			<path fill="#234875" d="M199.088,22.131c0,7.788-3.083,12.819-9.249,15.089l12.308,17.384h-13.351l-10.778-15.507h-7.51v15.507
				h-10.848V5.999h18.427c7.556,0,12.945,1.276,16.167,3.825C197.477,12.374,199.088,16.476,199.088,22.131z M186.015,27.903
				c1.344-1.205,2.017-3.117,2.017-5.737c0-2.619-0.695-4.416-2.086-5.389s-3.825-1.46-7.301-1.46h-8.136v14.394h7.927
				C182.144,29.711,184.67,29.109,186.015,27.903z"/>
			<path fill="#234875" d="M244.843,54.605l-4.52-10.5h-20.375l-4.52,10.5h-11.543l21-48.606h10.5l21,48.606H244.843z
				 M230.17,20.462l-6.119,14.116h12.169L230.17,20.462z"/>
			<path fill="#234875" d="M300.124,54.605l-4.52-10.5h-20.375l-4.519,10.5h-11.543l20.999-48.606h10.5l21,48.606H300.124z
				 M285.452,20.462l-6.119,14.116h12.17L285.452,20.462z"/>
			<path fill="#234875" d="M359.09,24.009L345.95,50.572h-6.469l-13.072-26.563v30.596h-10.848V5.999h14.672l12.518,26.702
				l12.586-26.702h14.604v48.606h-10.85V24.009z"/>
			<path fill="#234875" d="M420.213,24.009l-13.141,26.563h-6.469l-13.072-26.563v30.596h-10.848V5.999h14.672l12.518,26.702
				l12.586-26.702h14.604v48.606h-10.85V24.009z"/>
		</g>
		<g>
			<path fill="#234875" d="M171.149,70.159c0,2.248-0.89,3.701-2.669,4.355l3.552,5.018h-3.854l-3.111-4.475H162.9v4.475h-3.131
				V65.502h5.318c2.181,0,3.736,0.369,4.667,1.105C170.684,67.342,171.149,68.528,171.149,70.159z M167.376,71.825
				c0.388-0.348,0.582-0.898,0.582-1.654s-0.201-1.275-0.602-1.557s-1.104-0.422-2.107-0.422H162.9v4.156h2.288
				C166.259,72.348,166.988,72.174,167.376,71.825z"/>
			<path fill="#234875" d="M183.21,77.967c-1.217,1.15-2.646,1.725-4.285,1.725c-1.639,0-2.994-0.504-4.064-1.514
				c-1.07-1.012-1.605-2.365-1.605-4.064s0.545-3.051,1.636-4.055c1.09-1.004,2.378-1.506,3.863-1.506
				c1.485,0,2.747,0.449,3.783,1.346c1.037,0.896,1.556,2.127,1.556,3.693v1.605h-7.868c0.094,0.588,0.402,1.07,0.923,1.445
				c0.522,0.373,1.11,0.561,1.766,0.561c1.057,0,1.927-0.354,2.609-1.063L183.21,77.967z M180.321,71.565
				c-0.415-0.348-0.92-0.521-1.516-0.521s-1.141,0.18-1.636,0.541s-0.783,0.85-0.863,1.465h4.736
				C180.976,72.407,180.735,71.913,180.321,71.565z"/>
			<path fill="#234875" d="M194.048,77.706c-0.95,1.057-2.131,1.586-3.542,1.586c-1.412,0-2.603-0.479-3.573-1.436
				c-0.97-0.955-1.455-2.234-1.455-3.832c0-1.6,0.499-2.91,1.496-3.934c0.997-1.025,2.137-1.537,3.422-1.537
				c1.284,0,2.348,0.529,3.191,1.586v-1.424h3.01v9.412c0,0.963-0.167,1.82-0.501,2.568c-0.334,0.75-0.783,1.338-1.345,1.768
				c-1.111,0.883-2.422,1.324-3.934,1.324c-0.803,0-1.623-0.131-2.458-0.393c-0.836-0.26-1.569-0.631-2.198-1.113l1.164-2.268
				c0.99,0.748,2.037,1.123,3.141,1.123c1.104,0,1.977-0.273,2.619-0.822C193.728,79.766,194.048,78.897,194.048,77.706z
				 M193.627,73.903c0-0.863-0.241-1.543-0.723-2.037c-0.481-0.494-1.077-0.742-1.786-0.742s-1.321,0.248-1.836,0.742
				s-0.772,1.17-0.772,2.027c0,0.855,0.251,1.549,0.752,2.076c0.502,0.529,1.114,0.793,1.836,0.793s1.325-0.26,1.806-0.783
				C193.386,75.458,193.627,74.766,193.627,73.903z"/>
			<path fill="#234875" d="M204.926,71.383c-0.896,0-1.565,0.318-2.007,0.953c-0.441,0.637-0.662,1.477-0.662,2.52v4.676h-3.011
				V68.735h3.011v1.424c0.388-0.441,0.873-0.814,1.455-1.123c0.582-0.307,1.174-0.469,1.776-0.482l0.02,2.83H204.926z"/>
			<path fill="#234875" d="M217.931,74.133c0,1.566-0.542,2.883-1.626,3.953c-1.083,1.072-2.445,1.605-4.084,1.605
				c-1.639,0-3-0.533-4.084-1.605c-1.083-1.07-1.625-2.387-1.625-3.953c0-1.564,0.542-2.887,1.625-3.963
				c1.084-1.078,2.445-1.617,4.084-1.617c1.639,0,3,0.539,4.084,1.617C217.389,71.247,217.931,72.569,217.931,74.133z
				 M209.542,74.133c0,0.883,0.25,1.604,0.752,2.158s1.144,0.832,1.927,0.832s1.425-0.277,1.927-0.832
				c0.501-0.555,0.752-1.275,0.752-2.158s-0.251-1.605-0.752-2.168c-0.502-0.561-1.144-0.842-1.927-0.842s-1.425,0.281-1.927,0.842
				C209.792,72.528,209.542,73.25,209.542,74.133z"/>
			<path fill="#234875" d="M226.922,74.555v-5.82h3.031v10.797h-3.031v-1.424c-0.75,1.057-1.716,1.584-2.9,1.584
				s-2.178-0.371-2.98-1.113s-1.204-1.842-1.204-3.301v-6.543h3.03v5.881c0,1.658,0.609,2.488,1.827,2.488
				c0.602,0,1.124-0.217,1.565-0.652C226.701,76.016,226.922,75.385,226.922,74.555z"/>
			<path fill="#234875" d="M238.884,68.553c1.257,0,2.378,0.525,3.361,1.576s1.475,2.371,1.475,3.965
				c0,1.592-0.492,2.922-1.475,3.992c-0.983,1.072-2.134,1.605-3.452,1.605c-1.318,0-2.378-0.527-3.181-1.584v5.318h-3.011V68.735
				h3.011v1.203C236.536,69.016,237.626,68.553,238.884,68.553z M235.572,74.143c0,0.877,0.244,1.594,0.732,2.148
				c0.488,0.555,1.08,0.832,1.776,0.832s1.305-0.277,1.827-0.832s0.783-1.268,0.783-2.139c0-0.869-0.254-1.598-0.763-2.188
				c-0.509-0.588-1.117-0.883-1.826-0.883c-0.709,0-1.308,0.291-1.796,0.873C235.816,72.538,235.572,73.268,235.572,74.143z"/>
			<path fill="#234875" d="M255.12,77.967c-1.217,1.15-2.646,1.725-4.285,1.725c-1.639,0-2.994-0.504-4.064-1.514
				c-1.07-1.012-1.605-2.365-1.605-4.064s0.545-3.051,1.636-4.055c1.09-1.004,2.378-1.506,3.863-1.506
				c1.485,0,2.747,0.449,3.783,1.346c1.037,0.896,1.556,2.127,1.556,3.693v1.605h-7.868c0.094,0.588,0.402,1.07,0.923,1.445
				c0.522,0.373,1.11,0.561,1.766,0.561c1.057,0,1.927-0.354,2.609-1.063L255.12,77.967z M252.23,71.565
				c-0.415-0.348-0.92-0.521-1.516-0.521s-1.141,0.18-1.636,0.541s-0.783,0.85-0.863,1.465h4.736
				C252.885,72.407,252.645,71.913,252.23,71.565z"/>
			<path fill="#234875" d="M267.884,73.711v5.82h-3.03v-5.9c0-0.855-0.131-1.484-0.392-1.887c-0.261-0.4-0.682-0.602-1.264-0.602
				s-1.098,0.217-1.545,0.652c-0.449,0.436-0.672,1.074-0.672,1.916v5.82h-3.011V68.735h3.011v1.225
				c0.829-0.938,1.779-1.406,2.85-1.406c0.683,0,1.301,0.201,1.856,0.604c0.555,0.4,0.974,0.889,1.254,1.465
				c0.415-0.656,0.974-1.164,1.676-1.525c0.703-0.361,1.408-0.543,2.118-0.543c1.271,0,2.294,0.379,3.071,1.135
				c0.775,0.756,1.164,1.85,1.164,3.281v6.563h-3.031v-5.9c0-1.658-0.609-2.488-1.826-2.488c-0.602,0-1.124,0.217-1.565,0.652
				C268.105,72.231,267.884,72.87,267.884,73.711z"/>
			<path fill="#234875" d="M286.85,77.967c-1.219,1.15-2.646,1.725-4.285,1.725s-2.994-0.504-4.064-1.514
				c-1.07-1.012-1.605-2.365-1.605-4.064s0.545-3.051,1.637-4.055c1.09-1.004,2.377-1.506,3.863-1.506
				c1.484,0,2.746,0.449,3.783,1.346c1.035,0.896,1.555,2.127,1.555,3.693v1.605h-7.867c0.094,0.588,0.4,1.07,0.924,1.445
				c0.521,0.373,1.109,0.561,1.766,0.561c1.057,0,1.926-0.354,2.609-1.063L286.85,77.967z M283.959,71.565
				c-0.414-0.348-0.92-0.521-1.516-0.521s-1.141,0.18-1.635,0.541c-0.496,0.361-0.783,0.85-0.863,1.465h4.736
				C284.616,72.407,284.374,71.913,283.959,71.565z"/>
			<path fill="#234875" d="M292.711,73.512v6.02H289.7V68.735h3.012v1.203c0.908-0.922,1.934-1.385,3.07-1.385
				s2.09,0.402,2.859,1.205s1.154,1.873,1.154,3.211v6.563h-3.01V73.43c0-1.658-0.609-2.488-1.826-2.488
				c-0.604,0-1.129,0.219-1.576,0.652C292.934,72.03,292.711,72.668,292.711,73.512z"/>
			<path fill="#234875" d="M305.754,70.903v4.836c0,0.416,0.107,0.74,0.322,0.975c0.213,0.232,0.467,0.35,0.762,0.35
				c0.563,0,1.037-0.254,1.426-0.762l1.123,2.107c-0.936,0.855-1.924,1.283-2.961,1.283s-1.912-0.34-2.629-1.023
				c-0.715-0.682-1.072-1.611-1.072-2.789v-4.977h-1.266v-2.168h1.266v-3.232h3.029v3.232h2.609v2.168H305.754z"/>
			<path fill="#234875" d="M320.213,79.692c-1.277,0-2.418-0.541-3.422-1.625s-1.504-2.428-1.504-4.033s0.488-2.92,1.465-3.943
				c0.977-1.025,2.119-1.537,3.432-1.537c1.311,0,2.381,0.463,3.211,1.385v-5.297h3.01v14.891h-3.01v-1.424
				C322.551,79.165,321.491,79.692,320.213,79.692z M318.317,74.153c0,0.871,0.262,1.584,0.783,2.139s1.131,0.832,1.826,0.832
				s1.287-0.277,1.775-0.832s0.734-1.271,0.734-2.148c0-0.875-0.246-1.605-0.734-2.188s-1.086-0.873-1.795-0.873
				s-1.318,0.295-1.826,0.883C318.571,72.555,318.317,73.284,318.317,74.153z"/>
			<path fill="#234875" d="M338.407,77.967c-1.217,1.15-2.645,1.725-4.285,1.725c-1.639,0-2.992-0.504-4.063-1.514
				c-1.072-1.012-1.605-2.365-1.605-4.064s0.545-3.051,1.635-4.055s2.379-1.506,3.863-1.506c1.486,0,2.746,0.449,3.783,1.346
				s1.555,2.127,1.555,3.693v1.605h-7.867c0.094,0.588,0.402,1.07,0.924,1.445c0.521,0.373,1.111,0.561,1.766,0.561
				c1.057,0,1.928-0.354,2.609-1.063L338.407,77.967z M335.518,71.565c-0.416-0.348-0.92-0.521-1.516-0.521s-1.141,0.18-1.637,0.541
				c-0.494,0.361-0.781,0.85-0.863,1.465h4.738C336.172,72.407,335.932,71.913,335.518,71.565z"/>
			<path fill="#234875" d="M349.385,76.17c0,1.064-0.391,1.916-1.174,2.559s-1.777,0.963-2.98,0.963c-0.803,0-1.639-0.143-2.51-0.43
				c-0.869-0.289-1.652-0.713-2.348-1.275l1.324-1.887c1.125,0.869,2.322,1.305,3.594,1.305c0.387,0,0.695-0.076,0.922-0.23
				c0.229-0.154,0.342-0.357,0.342-0.613c0-0.254-0.156-0.488-0.471-0.701c-0.314-0.215-0.77-0.414-1.365-0.602
				s-1.051-0.35-1.365-0.482c-0.314-0.135-0.672-0.328-1.074-0.582c-0.816-0.508-1.223-1.262-1.223-2.258s0.4-1.811,1.203-2.439
				s1.84-0.943,3.111-0.943s2.541,0.43,3.813,1.285l-1.123,2.008c-0.938-0.643-1.871-0.965-2.801-0.965s-1.395,0.256-1.395,0.764
				c0,0.281,0.146,0.502,0.441,0.662s0.783,0.348,1.465,0.563c0.684,0.213,1.168,0.377,1.455,0.49
				c0.289,0.115,0.633,0.291,1.035,0.533C349.01,74.348,349.385,75.106,349.385,76.17z"/>
			<path fill="#234875" d="M365.762,79.532h-2.83v-1.305c-0.775,0.977-1.736,1.465-2.881,1.465c-1.143,0-2.104-0.33-2.879-0.992
				c-0.777-0.662-1.164-1.545-1.164-2.65c0-1.104,0.4-1.93,1.203-2.479c0.803-0.547,1.9-0.822,3.293-0.822h2.246v-0.061
				c0-1.15-0.607-1.727-1.826-1.727c-0.521,0-1.072,0.105-1.654,0.313s-1.074,0.465-1.477,0.771L356.45,70.1
				c1.418-1.031,3.037-1.547,4.857-1.547c1.311,0,2.381,0.328,3.211,0.984c0.828,0.656,1.244,1.693,1.244,3.111V79.532z
				 M362.731,75.418v-0.521h-1.887c-1.203,0-1.807,0.373-1.807,1.123c0,0.389,0.145,0.686,0.432,0.893
				c0.289,0.209,0.699,0.313,1.234,0.313s1.008-0.164,1.416-0.492S362.731,75.967,362.731,75.418z"/>
			<path fill="#234875" d="M371.081,79.532l-4.273-10.816h3.131l2.689,6.803l2.689-6.803h3.131l-4.275,10.816H371.081z"/>
			<path fill="#234875" d="M389.083,77.967c-1.217,1.15-2.645,1.725-4.285,1.725c-1.639,0-2.992-0.504-4.063-1.514
				c-1.072-1.012-1.605-2.365-1.605-4.064s0.545-3.051,1.635-4.055s2.379-1.506,3.863-1.506c1.486,0,2.746,0.449,3.783,1.346
				s1.555,2.127,1.555,3.693v1.605h-7.867c0.094,0.588,0.402,1.07,0.924,1.445c0.521,0.373,1.111,0.561,1.766,0.561
				c1.057,0,1.928-0.354,2.609-1.063L389.083,77.967z M386.194,71.565c-0.416-0.348-0.92-0.521-1.516-0.521s-1.141,0.18-1.637,0.541
				c-0.494,0.361-0.781,0.85-0.863,1.465h4.738C386.848,72.407,386.608,71.913,386.194,71.565z"/>
			<path fill="#234875" d="M398.899,74.555v-5.82h3.029v10.797h-3.029v-1.424c-0.75,1.057-1.717,1.584-2.9,1.584
				c-1.186,0-2.178-0.371-2.98-1.113s-1.205-1.842-1.205-3.301v-6.543h3.031v5.881c0,1.658,0.607,2.488,1.826,2.488
				c0.602,0,1.123-0.217,1.564-0.652S398.899,75.385,398.899,74.555z"/>
			<path fill="#234875" d="M412.565,77.706c-0.949,1.057-2.131,1.586-3.543,1.586c-1.41,0-2.602-0.479-3.572-1.436
				c-0.969-0.955-1.455-2.234-1.455-3.832c0-1.6,0.498-2.91,1.496-3.934c0.996-1.025,2.137-1.537,3.422-1.537
				s2.348,0.529,3.191,1.586v-1.424h3.01v9.412c0,0.963-0.168,1.82-0.502,2.568c-0.334,0.75-0.783,1.338-1.344,1.768
				c-1.111,0.883-2.422,1.324-3.934,1.324c-0.803,0-1.623-0.131-2.459-0.393c-0.836-0.26-1.568-0.631-2.197-1.113l1.164-2.268
				c0.99,0.748,2.037,1.123,3.141,1.123s1.977-0.273,2.619-0.822S412.565,78.897,412.565,77.706z M412.143,73.903
				c0-0.863-0.24-1.543-0.723-2.037c-0.48-0.494-1.076-0.742-1.785-0.742s-1.322,0.248-1.836,0.742
				c-0.516,0.494-0.773,1.17-0.773,2.027c0,0.855,0.25,1.549,0.752,2.076c0.502,0.529,1.115,0.793,1.838,0.793
				c0.721,0,1.324-0.26,1.805-0.783C411.903,75.458,412.143,74.766,412.143,73.903z"/>
			<path fill="#234875" d="M420.774,79.532h-3.01V64.641h3.01V79.532z"/>
			<path fill="#234875" d="M432.776,77.967c-1.219,1.15-2.646,1.725-4.285,1.725s-2.994-0.504-4.064-1.514
				c-1.07-1.012-1.605-2.365-1.605-4.064s0.545-3.051,1.637-4.055c1.09-1.004,2.377-1.506,3.863-1.506
				c1.484,0,2.746,0.449,3.783,1.346c1.035,0.896,1.555,2.127,1.555,3.693v1.605h-7.867c0.094,0.588,0.4,1.07,0.924,1.445
				c0.521,0.373,1.109,0.561,1.766,0.561c1.057,0,1.926-0.354,2.609-1.063L432.776,77.967z M429.885,71.565
				c-0.414-0.348-0.92-0.521-1.516-0.521s-1.141,0.18-1.635,0.541c-0.496,0.361-0.783,0.85-0.863,1.465h4.736
				C430.542,72.407,430.299,71.913,429.885,71.565z"/>
			<path fill="#234875" d="M443.754,76.17c0,1.064-0.391,1.916-1.174,2.559s-1.777,0.963-2.98,0.963c-0.803,0-1.639-0.143-2.51-0.43
				c-0.869-0.289-1.652-0.713-2.348-1.275l1.324-1.887c1.125,0.869,2.322,1.305,3.594,1.305c0.387,0,0.695-0.076,0.922-0.23
				c0.229-0.154,0.342-0.357,0.342-0.613c0-0.254-0.156-0.488-0.471-0.701c-0.314-0.215-0.77-0.414-1.365-0.602
				s-1.051-0.35-1.365-0.482c-0.314-0.135-0.672-0.328-1.074-0.582c-0.816-0.508-1.223-1.262-1.223-2.258s0.4-1.811,1.203-2.439
				s1.84-0.943,3.111-0.943s2.541,0.43,3.813,1.285l-1.123,2.008c-0.938-0.643-1.871-0.965-2.801-0.965s-1.395,0.256-1.395,0.764
				c0,0.281,0.146,0.502,0.441,0.662s0.783,0.348,1.465,0.563c0.684,0.213,1.168,0.377,1.455,0.49
				c0.289,0.115,0.633,0.291,1.035,0.533C443.379,74.348,443.754,75.106,443.754,76.17z"/>
			<path fill="#234875" d="M460.311,77.967c-1.217,1.15-2.645,1.725-4.285,1.725c-1.639,0-2.992-0.504-4.063-1.514
				c-1.072-1.012-1.605-2.365-1.605-4.064s0.545-3.051,1.635-4.055s2.379-1.506,3.863-1.506c1.486,0,2.746,0.449,3.783,1.346
				s1.555,2.127,1.555,3.693v1.605h-7.867c0.094,0.588,0.402,1.07,0.924,1.445c0.521,0.373,1.111,0.561,1.766,0.561
				c1.057,0,1.928-0.354,2.609-1.063L460.311,77.967z M457.422,71.565c-0.416-0.348-0.92-0.521-1.516-0.521s-1.141,0.18-1.637,0.541
				c-0.494,0.361-0.781,0.85-0.863,1.465h4.738C458.077,72.407,457.836,71.913,457.422,71.565z"/>
			<path fill="#234875" d="M466.633,70.903v4.836c0,0.416,0.107,0.74,0.322,0.975c0.213,0.232,0.467,0.35,0.762,0.35
				c0.563,0,1.037-0.254,1.426-0.762l1.123,2.107c-0.936,0.855-1.924,1.283-2.961,1.283s-1.912-0.34-2.629-1.023
				c-0.715-0.682-1.072-1.611-1.072-2.789v-4.977h-1.266v-2.168h1.266v-3.232h3.029v3.232h2.609v2.168H466.633z"/>
			<path fill="#234875" d="M168.64,103.616h-2.83v-1.305c-0.776,0.977-1.736,1.465-2.88,1.465c-1.144,0-2.104-0.33-2.88-0.992
				s-1.164-1.545-1.164-2.65c0-1.104,0.401-1.93,1.205-2.479c0.803-0.547,1.899-0.822,3.291-0.822h2.248v-0.061
				c0-1.15-0.609-1.727-1.826-1.727c-0.522,0-1.074,0.105-1.656,0.313s-1.074,0.465-1.476,0.771l-1.344-1.945
				c1.418-1.031,3.037-1.547,4.857-1.547c1.311,0,2.381,0.328,3.211,0.984s1.244,1.693,1.244,3.111V103.616z M165.61,99.502v-0.521
				h-1.887c-1.204,0-1.806,0.373-1.806,1.123c0,0.389,0.144,0.686,0.432,0.893c0.288,0.209,0.699,0.313,1.234,0.313
				s1.007-0.164,1.415-0.492S165.61,100.051,165.61,99.502z"/>
			<path fill="#234875" d="M181.104,97.795v5.82h-3.03v-5.9c0-0.855-0.131-1.484-0.392-1.887c-0.261-0.4-0.682-0.602-1.264-0.602
				s-1.098,0.217-1.545,0.652c-0.449,0.436-0.672,1.074-0.672,1.916v5.82h-3.011V92.819h3.011v1.225
				c0.829-0.938,1.779-1.406,2.85-1.406c0.683,0,1.301,0.201,1.856,0.604c0.555,0.4,0.974,0.889,1.254,1.465
				c0.415-0.656,0.974-1.164,1.676-1.525c0.703-0.361,1.408-0.543,2.118-0.543c1.271,0,2.294,0.379,3.071,1.135
				c0.776,0.756,1.164,1.85,1.164,3.281v6.563h-3.031v-5.9c0-1.658-0.609-2.488-1.826-2.488c-0.602,0-1.124,0.217-1.565,0.652
				C181.324,96.315,181.104,96.954,181.104,97.795z"/>
			<path fill="#234875" d="M196.938,92.637c1.311,0,2.455,0.512,3.432,1.537c0.977,1.023,1.465,2.338,1.465,3.943
				s-0.501,2.949-1.505,4.033s-2.145,1.625-3.422,1.625c-1.278,0-2.338-0.527-3.181-1.584v1.424h-3.011V88.725h3.011v5.297
				C194.557,93.1,195.627,92.637,196.938,92.637z M193.688,98.227c0,0.877,0.244,1.594,0.732,2.148
				c0.488,0.555,1.08,0.832,1.776,0.832s1.305-0.277,1.827-0.832s0.783-1.268,0.783-2.139c0-0.869-0.254-1.598-0.763-2.188
				c-0.509-0.588-1.117-0.883-1.826-0.883c-0.709,0-1.308,0.291-1.796,0.873C193.931,96.622,193.688,97.352,193.688,98.227z"/>
			<path fill="#234875" d="M206.893,103.616h-3.011V88.725h3.011V103.616z"/>
			<path fill="#234875" d="M211.409,107.872c-1.057,0-2.054-0.43-2.99-1.285l1.365-2.229c0.508,0.496,1.03,0.744,1.565,0.744
				c0.281,0,0.521-0.139,0.722-0.412s0.301-0.564,0.301-0.873s-1.392-3.975-4.175-10.998h3.211l2.629,6.723l2.629-6.723h3.211
				l-5.017,12.725c-0.294,0.734-0.753,1.307-1.375,1.715S212.171,107.872,211.409,107.872z"/>
			<path fill="#234875" d="M231.72,98.217c0,1.566-0.542,2.883-1.626,3.953c-1.083,1.072-2.445,1.605-4.084,1.605
				c-1.639,0-3-0.533-4.084-1.605c-1.083-1.07-1.625-2.387-1.625-3.953c0-1.564,0.542-2.887,1.625-3.963
				c1.084-1.078,2.445-1.617,4.084-1.617c1.639,0,3,0.539,4.084,1.617C231.178,95.331,231.72,96.653,231.72,98.217z M223.331,98.217
				c0,0.883,0.25,1.604,0.752,2.158s1.144,0.832,1.927,0.832s1.425-0.277,1.927-0.832c0.501-0.555,0.752-1.275,0.752-2.158
				s-0.251-1.605-0.752-2.168c-0.502-0.561-1.144-0.842-1.927-0.842s-1.425,0.281-1.927,0.842
				C223.581,96.612,223.331,97.334,223.331,98.217z"/>
			<path fill="#234875" d="M240.028,92.637c1.257,0,2.378,0.525,3.361,1.576s1.475,2.371,1.475,3.965
				c0,1.592-0.492,2.922-1.475,3.992c-0.983,1.072-2.134,1.605-3.452,1.605c-1.318,0-2.378-0.527-3.181-1.584v5.318h-3.011V92.819
				h3.011v1.203C237.68,93.1,238.771,92.637,240.028,92.637z M236.717,98.227c0,0.877,0.244,1.594,0.732,2.148
				c0.488,0.555,1.08,0.832,1.776,0.832s1.305-0.277,1.827-0.832s0.783-1.268,0.783-2.139c0-0.869-0.254-1.598-0.763-2.188
				c-0.509-0.588-1.117-0.883-1.826-0.883c-0.709,0-1.308,0.291-1.796,0.873C236.96,96.622,236.717,97.352,236.717,98.227z"/>
			<path fill="#234875" d="M256.264,102.051c-1.217,1.15-2.646,1.725-4.285,1.725c-1.639,0-2.994-0.504-4.064-1.514
				c-1.07-1.012-1.605-2.365-1.605-4.064s0.545-3.051,1.636-4.055c1.09-1.004,2.378-1.506,3.863-1.506
				c1.485,0,2.747,0.449,3.783,1.346c1.037,0.896,1.556,2.127,1.556,3.693v1.605h-7.868c0.094,0.588,0.402,1.07,0.923,1.445
				c0.522,0.373,1.11,0.561,1.766,0.561c1.057,0,1.927-0.354,2.609-1.063L256.264,102.051z M253.375,95.649
				c-0.415-0.348-0.92-0.521-1.516-0.521s-1.141,0.18-1.636,0.541s-0.783,0.85-0.863,1.465h4.736
				C254.03,96.491,253.789,95.997,253.375,95.649z"/>
			<path fill="#234875" d="M267.243,100.254c0,1.064-0.391,1.916-1.174,2.559s-1.776,0.963-2.98,0.963
				c-0.803,0-1.639-0.143-2.509-0.43c-0.87-0.289-1.653-0.713-2.348-1.275l1.325-1.887c1.124,0.869,2.321,1.305,3.592,1.305
				c0.388,0,0.696-0.076,0.923-0.23c0.227-0.154,0.341-0.357,0.341-0.613c0-0.254-0.158-0.488-0.472-0.701
				c-0.315-0.215-0.77-0.414-1.365-0.602c-0.596-0.188-1.051-0.35-1.365-0.482c-0.315-0.135-0.672-0.328-1.074-0.582
				c-0.816-0.508-1.225-1.262-1.225-2.258s0.401-1.811,1.204-2.439c0.803-0.629,1.84-0.943,3.111-0.943s2.542,0.43,3.813,1.285
				l-1.124,2.008c-0.937-0.643-1.87-0.965-2.8-0.965c-0.93,0-1.395,0.256-1.395,0.764c0,0.281,0.147,0.502,0.441,0.662
				c0.294,0.16,0.783,0.348,1.465,0.563c0.682,0.213,1.167,0.377,1.455,0.49c0.288,0.115,0.632,0.291,1.034,0.533
				C266.868,98.432,267.243,99.19,267.243,100.254z"/>
			<path fill="#234875" d="M278.772,103.776c-1.277,0-2.418-0.541-3.422-1.625c-1.003-1.084-1.505-2.428-1.505-4.033
				s0.488-2.92,1.466-3.943c0.977-1.025,2.119-1.537,3.432-1.537c1.311,0,2.381,0.463,3.211,1.385v-5.297h3.01v14.891h-3.01v-1.424
				C281.11,103.249,280.049,103.776,278.772,103.776z M276.875,98.237c0,0.871,0.262,1.584,0.783,2.139s1.131,0.832,1.826,0.832
				s1.287-0.277,1.775-0.832s0.734-1.271,0.734-2.148c0-0.875-0.246-1.605-0.734-2.188s-1.086-0.873-1.795-0.873
				s-1.318,0.295-1.826,0.883C277.129,96.639,276.875,97.368,276.875,98.237z"/>
			<path fill="#234875" d="M294.577,98.639v-5.82h3.031v10.797h-3.031v-1.424c-0.75,1.057-1.717,1.584-2.9,1.584
				s-2.178-0.371-2.98-1.113s-1.203-1.842-1.203-3.301v-6.543h3.029V98.7c0,1.658,0.609,2.488,1.826,2.488
				c0.604,0,1.125-0.217,1.566-0.652S294.577,99.469,294.577,98.639z"/>
			<path fill="#234875" d="M318.219,94.786l-3.795,7.666h-1.865l-3.773-7.666v8.83h-3.131V89.586h4.234l3.613,7.707l3.633-7.707
				h4.215v14.029h-3.131V94.786z"/>
			<path fill="#234875" d="M335.098,98.217c0,1.566-0.543,2.883-1.627,3.953c-1.084,1.072-2.445,1.605-4.084,1.605
				s-3-0.533-4.084-1.605c-1.084-1.07-1.625-2.387-1.625-3.953c0-1.564,0.541-2.887,1.625-3.963
				c1.084-1.078,2.445-1.617,4.084-1.617s3,0.539,4.084,1.617C334.555,95.331,335.098,96.653,335.098,98.217z M326.708,98.217
				c0,0.883,0.252,1.604,0.754,2.158s1.143,0.832,1.926,0.832s1.426-0.277,1.928-0.832s0.752-1.275,0.752-2.158
				s-0.25-1.605-0.752-2.168c-0.502-0.561-1.145-0.842-1.928-0.842s-1.424,0.281-1.926,0.842
				C326.959,96.612,326.708,97.334,326.708,98.217z"/>
			<path fill="#234875" d="M340.135,97.596v6.02h-3.012V92.819h3.012v1.203c0.908-0.922,1.934-1.385,3.07-1.385
				s2.09,0.402,2.859,1.205s1.154,1.873,1.154,3.211v6.563h-3.01v-6.102c0-1.658-0.609-2.488-1.826-2.488
				c-0.604,0-1.129,0.219-1.576,0.652C340.358,96.114,340.135,96.752,340.135,97.596z"/>
			<path fill="#234875" d="M353.18,94.987v4.836c0,0.416,0.107,0.74,0.322,0.975c0.213,0.232,0.467,0.35,0.762,0.35
				c0.563,0,1.037-0.254,1.426-0.762l1.123,2.107c-0.936,0.855-1.924,1.283-2.961,1.283s-1.912-0.34-2.629-1.023
				c-0.715-0.682-1.072-1.611-1.072-2.789v-4.977h-1.266v-2.168h1.266v-3.232h3.029v3.232h2.609v2.168H353.18z"/>
			<path fill="#234875" d="M363.897,95.467c-0.896,0-1.566,0.318-2.008,0.953c-0.441,0.637-0.662,1.477-0.662,2.52v4.676h-3.01
				V92.819h3.01v1.424c0.389-0.441,0.873-0.814,1.455-1.123c0.582-0.307,1.174-0.469,1.777-0.482l0.02,2.83H363.897z"/>
			<path fill="#234875" d="M375.618,102.051c-1.217,1.15-2.645,1.725-4.285,1.725c-1.639,0-2.992-0.504-4.063-1.514
				c-1.072-1.012-1.605-2.365-1.605-4.064s0.545-3.051,1.635-4.055s2.379-1.506,3.863-1.506c1.486,0,2.746,0.449,3.783,1.346
				s1.555,2.127,1.555,3.693v1.605h-7.867c0.094,0.588,0.402,1.07,0.924,1.445c0.521,0.373,1.111,0.561,1.766,0.561
				c1.057,0,1.928-0.354,2.609-1.063L375.618,102.051z M372.729,95.649c-0.416-0.348-0.92-0.521-1.516-0.521
				s-1.141,0.18-1.637,0.541c-0.494,0.361-0.781,0.85-0.863,1.465h4.738C373.383,96.491,373.143,95.997,372.729,95.649z
				 M372.086,91.354h-2.871l2.549-3.553l3.111,1.305L372.086,91.354z"/>
			<path fill="#234875" d="M387.639,103.616h-2.83v-1.305c-0.775,0.977-1.734,1.465-2.879,1.465s-2.104-0.33-2.881-0.992
				c-0.775-0.662-1.164-1.545-1.164-2.65c0-1.104,0.402-1.93,1.205-2.479c0.803-0.547,1.9-0.822,3.291-0.822h2.248v-0.061
				c0-1.15-0.609-1.727-1.826-1.727c-0.521,0-1.074,0.105-1.656,0.313s-1.074,0.465-1.475,0.771l-1.346-1.945
				c1.418-1.031,3.037-1.547,4.857-1.547c1.311,0,2.381,0.328,3.211,0.984s1.244,1.693,1.244,3.111V103.616z M384.61,99.502v-0.521
				h-1.887c-1.205,0-1.807,0.373-1.807,1.123c0,0.389,0.145,0.686,0.432,0.893c0.287,0.209,0.699,0.313,1.234,0.313
				s1.006-0.164,1.414-0.492S384.61,100.051,384.61,99.502z"/>
			<path fill="#234875" d="M393.2,103.616h-3.012V88.725h3.012V103.616z"/>
			<path fill="#234875" d="M410.86,97.795v5.82h-3.031v-5.9c0-0.855-0.129-1.484-0.391-1.887c-0.262-0.4-0.682-0.602-1.264-0.602
				s-1.098,0.217-1.547,0.652c-0.447,0.436-0.672,1.074-0.672,1.916v5.82h-3.01V92.819h3.01v1.225
				c0.83-0.938,1.779-1.406,2.85-1.406c0.684,0,1.303,0.201,1.857,0.604c0.555,0.4,0.973,0.889,1.254,1.465
				c0.414-0.656,0.973-1.164,1.676-1.525s1.408-0.543,2.117-0.543c1.271,0,2.295,0.379,3.07,1.135
				c0.777,0.756,1.164,1.85,1.164,3.281v6.563h-3.029v-5.9c0-1.658-0.609-2.488-1.826-2.488c-0.604,0-1.125,0.217-1.566,0.652
				S410.86,96.954,410.86,97.795z"/>
			<path fill="#234875" d="M429.825,102.051c-1.217,1.15-2.645,1.725-4.285,1.725c-1.639,0-2.992-0.504-4.063-1.514
				c-1.072-1.012-1.605-2.365-1.605-4.064s0.545-3.051,1.635-4.055s2.379-1.506,3.863-1.506c1.486,0,2.746,0.449,3.783,1.346
				s1.555,2.127,1.555,3.693v1.605h-7.867c0.094,0.588,0.402,1.07,0.924,1.445c0.521,0.373,1.111,0.561,1.766,0.561
				c1.057,0,1.928-0.354,2.609-1.063L429.825,102.051z M426.936,95.649c-0.416-0.348-0.92-0.521-1.516-0.521
				s-1.141,0.18-1.637,0.541c-0.494,0.361-0.781,0.85-0.863,1.465h4.738C427.59,96.491,427.35,95.997,426.936,95.649z
				 M426.293,91.354h-2.871l2.549-3.553l3.111,1.305L426.293,91.354z"/>
			<path fill="#234875" d="M436.268,94.987v4.836c0,0.416,0.107,0.74,0.322,0.975c0.213,0.232,0.467,0.35,0.762,0.35
				c0.563,0,1.037-0.254,1.426-0.762l1.123,2.107c-0.936,0.855-1.924,1.283-2.961,1.283s-1.912-0.34-2.629-1.023
				c-0.715-0.682-1.072-1.611-1.072-2.789v-4.977h-1.266v-2.168h1.266v-3.232h3.029v3.232h2.609v2.168H436.268z"/>
			<path fill="#234875" d="M446.985,95.467c-0.896,0-1.566,0.318-2.008,0.953c-0.441,0.637-0.662,1.477-0.662,2.52v4.676h-3.01
				V92.819h3.01v1.424c0.389-0.441,0.873-0.814,1.455-1.123c0.582-0.307,1.174-0.469,1.777-0.482l0.02,2.83H446.985z"/>
			<path fill="#234875" d="M459.991,98.217c0,1.566-0.541,2.883-1.625,3.953c-1.084,1.072-2.445,1.605-4.084,1.605
				c-1.641,0-3-0.533-4.084-1.605c-1.084-1.07-1.627-2.387-1.627-3.953c0-1.564,0.543-2.887,1.627-3.963
				c1.084-1.078,2.443-1.617,4.084-1.617c1.639,0,3,0.539,4.084,1.617C459.45,95.331,459.991,96.653,459.991,98.217z
				 M451.602,98.217c0,0.883,0.25,1.604,0.752,2.158s1.145,0.832,1.928,0.832c0.781,0,1.424-0.277,1.926-0.832
				s0.754-1.275,0.754-2.158s-0.252-1.605-0.754-2.168c-0.502-0.561-1.145-0.842-1.926-0.842c-0.783,0-1.426,0.281-1.928,0.842
				C451.852,96.612,451.602,97.334,451.602,98.217z"/>
			<path fill="#234875" d="M468.299,92.637c1.258,0,2.379,0.525,3.361,1.576c0.984,1.051,1.477,2.371,1.477,3.965
				c0,1.592-0.492,2.922-1.477,3.992c-0.982,1.072-2.133,1.605-3.451,1.605s-2.379-0.527-3.182-1.584v5.318h-3.01V92.819h3.01v1.203
				C465.952,93.1,467.042,92.637,468.299,92.637z M464.989,98.227c0,0.877,0.244,1.594,0.732,2.148s1.08,0.832,1.775,0.832
				s1.305-0.277,1.826-0.832s0.783-1.268,0.783-2.139c0-0.869-0.254-1.598-0.764-2.188c-0.508-0.588-1.117-0.883-1.826-0.883
				s-1.307,0.291-1.795,0.873S464.989,97.352,464.989,98.227z"/>
			<path fill="#234875" d="M485.981,98.217c0,1.566-0.541,2.883-1.625,3.953c-1.084,1.072-2.445,1.605-4.084,1.605
				c-1.641,0-3-0.533-4.084-1.605c-1.084-1.07-1.627-2.387-1.627-3.953c0-1.564,0.543-2.887,1.627-3.963
				c1.084-1.078,2.443-1.617,4.084-1.617c1.639,0,3,0.539,4.084,1.617C485.44,95.331,485.981,96.653,485.981,98.217z
				 M477.592,98.217c0,0.883,0.25,1.604,0.752,2.158s1.145,0.832,1.928,0.832c0.781,0,1.424-0.277,1.926-0.832
				s0.754-1.275,0.754-2.158s-0.252-1.605-0.754-2.168c-0.502-0.561-1.145-0.842-1.926-0.842c-0.783,0-1.426,0.281-1.928,0.842
				C477.842,96.612,477.592,97.334,477.592,98.217z"/>
			<path fill="#234875" d="M491.018,103.616h-3.01V88.725h3.01V103.616z"/>
			<path fill="#234875" d="M493.918,91.444c-0.342-0.342-0.512-0.76-0.512-1.254c0-0.496,0.17-0.914,0.512-1.254
				c0.34-0.342,0.758-0.514,1.254-0.514c0.494,0,0.914,0.172,1.254,0.514c0.342,0.34,0.512,0.758,0.512,1.254
				c0,0.494-0.17,0.912-0.512,1.254c-0.34,0.342-0.76,0.512-1.254,0.512C494.676,91.956,494.258,91.786,493.918,91.444z
				 M496.678,103.616h-3.012V92.819h3.012V103.616z"/>
			<path fill="#234875" d="M502.92,94.987v4.836c0,0.416,0.105,0.74,0.32,0.975c0.215,0.232,0.469,0.35,0.764,0.35
				c0.561,0,1.035-0.254,1.424-0.762l1.125,2.107c-0.938,0.855-1.924,1.283-2.961,1.283s-1.914-0.34-2.629-1.023
				c-0.717-0.682-1.074-1.611-1.074-2.789v-4.977h-1.264v-2.168h1.264v-3.232h3.031v3.232h2.609v2.168H502.92z"/>
			<path fill="#234875" d="M517.127,103.616h-2.83v-1.305c-0.775,0.977-1.734,1.465-2.879,1.465s-2.104-0.33-2.881-0.992
				c-0.775-0.662-1.164-1.545-1.164-2.65c0-1.104,0.402-1.93,1.205-2.479c0.803-0.547,1.9-0.822,3.291-0.822h2.248v-0.061
				c0-1.15-0.609-1.727-1.826-1.727c-0.521,0-1.074,0.105-1.656,0.313s-1.074,0.465-1.475,0.771l-1.346-1.945
				c1.418-1.031,3.037-1.547,4.857-1.547c1.311,0,2.381,0.328,3.211,0.984s1.244,1.693,1.244,3.111V103.616z M514.098,99.502v-0.521
				h-1.887c-1.205,0-1.807,0.373-1.807,1.123c0,0.389,0.145,0.686,0.432,0.893c0.287,0.209,0.699,0.313,1.234,0.313
				s1.006-0.164,1.414-0.492S514.098,100.051,514.098,99.502z"/>
			<path fill="#234875" d="M519.928,91.444c-0.342-0.342-0.512-0.76-0.512-1.254c0-0.496,0.17-0.914,0.512-1.254
				c0.34-0.342,0.758-0.514,1.254-0.514c0.494,0,0.914,0.172,1.254,0.514c0.342,0.34,0.512,0.758,0.512,1.254
				c0,0.494-0.17,0.912-0.512,1.254c-0.34,0.342-0.76,0.512-1.254,0.512C520.686,91.956,520.268,91.786,519.928,91.444z
				 M522.688,103.616h-3.012V92.819h3.012V103.616z"/>
			<path fill="#234875" d="M528.346,97.596v6.02h-3.01V92.819h3.01v1.203c0.91-0.922,1.934-1.385,3.07-1.385
				c1.139,0,2.092,0.402,2.861,1.205s1.154,1.873,1.154,3.211v6.563h-3.012v-6.102c0-1.658-0.609-2.488-1.826-2.488
				c-0.602,0-1.127,0.219-1.576,0.652C528.571,96.114,528.346,96.752,528.346,97.596z"/>
		</g>
		<g>
			<path fill="#23A7E8" d="M72.375,6.397c-36.264,0-65.42,48.312-65.42,48.312s29.156,48.313,65.42,48.313
				c36.266,0,65.422-48.313,65.422-48.313S108.641,6.397,72.375,6.397z M94.444,70.037c-6.515,9.381-14.317,16.736-22.069,21.418
				c-7.749-4.682-15.552-12.037-22.067-21.418c-3.502-5.045-6.316-10.229-8.439-15.328c2.124-5.098,4.938-10.282,8.439-15.322
				c6.515-9.384,14.319-16.743,22.067-21.421c7.751,4.678,15.554,12.037,22.069,21.419c3.502,5.042,6.316,10.227,8.439,15.324
				C100.76,59.808,97.946,64.992,94.444,70.037z"/>
			<g>
				<g>
					<path fill="#234875" d="M40.3,91.222"/>
					<path fill="#234875" d="M72.375,91.455l-0.003-0.004c-1.931-1.166-3.863-2.494-5.777-3.98
						c-0.015-0.014-0.029-0.027-0.046-0.037c-1.413-1.1-2.817-2.287-4.204-3.551c-0.038-0.033-0.073-0.068-0.109-0.102
						c-0.442-0.404-0.884-0.816-1.321-1.24c-0.031-0.029-0.063-0.063-0.096-0.092c-0.882-0.854-1.757-1.738-2.62-2.656
						c-0.047-0.049-0.095-0.098-0.14-0.15c-0.41-0.438-0.817-0.881-1.222-1.332c-0.061-0.068-0.123-0.137-0.185-0.205
						c-0.405-0.459-0.809-0.918-1.209-1.389c-0.033-0.039-0.065-0.078-0.098-0.117c-0.391-0.461-0.779-0.932-1.165-1.406
						c-0.038-0.049-0.077-0.094-0.116-0.141c-0.384-0.477-0.764-0.959-1.142-1.449c-0.07-0.092-0.141-0.184-0.209-0.275
						c-0.371-0.482-0.737-0.969-1.101-1.467c-0.06-0.08-0.121-0.166-0.181-0.25c-0.379-0.52-0.754-1.047-1.124-1.574
						c-0.456-0.658-0.898-1.314-1.33-1.975c-0.185-0.279-0.361-0.564-0.541-0.848c-0.237-0.369-0.474-0.738-0.704-1.111
						c-0.233-0.375-0.456-0.754-0.68-1.131c-0.162-0.273-0.328-0.545-0.485-0.816c-0.256-0.441-0.503-0.883-0.75-1.322
						c-0.113-0.203-0.227-0.406-0.338-0.607c-0.27-0.494-0.531-0.99-0.787-1.484c-0.075-0.143-0.148-0.283-0.222-0.428
						c-0.277-0.539-0.545-1.08-0.809-1.619c-0.044-0.092-0.086-0.18-0.129-0.268c-0.279-0.582-0.549-1.164-0.81-1.742
						c-0.02-0.045-0.038-0.088-0.057-0.131c-0.276-0.613-0.542-1.229-0.799-1.842v-0.004c-6.971,16.738-6.402,32.543,2.517,39.268
						c8.475,5.348,17.961,9.045,27.99,9.045c8.944,0,17.455-2.939,25.203-7.369C90.766,98.8,81.609,97.031,72.375,91.455z"/>
				</g>
			</g>
			<g>
				<g>
					<path fill="#234875" d="M104.459,18.204"/>
					<line fill="#234875" x1="102.883" y1="54.708" x2="102.883" y2="54.708"/>
					<path fill="#234875" d="M100.366,15.444c-8.477-5.348-17.961-9.047-27.991-9.047c-8.942,0-17.454,2.941-25.202,7.369
						c8.238-3.807,19.906-0.42,30.992,8.191c0.01,0.006,0.018,0.013,0.026,0.02c1.421,1.105,2.832,2.296,4.226,3.568
						c0.031,0.028,0.062,0.058,0.091,0.083c0.447,0.412,0.894,0.83,1.336,1.257c0.026,0.024,0.051,0.049,0.077,0.073
						c0.89,0.859,1.774,1.754,2.645,2.679c0.042,0.045,0.082,0.088,0.123,0.13c0.415,0.443,0.825,0.893,1.233,1.35
						c0.059,0.063,0.114,0.127,0.171,0.191c0.41,0.46,0.817,0.926,1.22,1.401c0.029,0.034,0.057,0.068,0.085,0.103
						c0.398,0.467,0.791,0.94,1.179,1.423c0.036,0.042,0.072,0.086,0.108,0.129c0.385,0.479,0.769,0.967,1.148,1.458
						c0.067,0.089,0.136,0.175,0.203,0.264c0.373,0.484,0.742,0.977,1.106,1.475c0.059,0.08,0.117,0.161,0.176,0.243
						c0.379,0.521,0.756,1.047,1.127,1.581c0.456,0.655,0.898,1.313,1.33,1.972c0.185,0.282,0.359,0.566,0.542,0.851
						c0.235,0.369,0.474,0.738,0.703,1.109c0.232,0.377,0.454,0.754,0.679,1.13c0.162,0.272,0.328,0.546,0.487,0.818
						c0.255,0.441,0.501,0.881,0.747,1.321c0.112,0.202,0.229,0.405,0.338,0.609c0.271,0.493,0.532,0.986,0.789,1.479
						c0.073,0.144,0.15,0.288,0.224,0.432c0.276,0.539,0.545,1.079,0.805,1.616c0.044,0.092,0.09,0.182,0.132,0.274
						c0.278,0.579,0.547,1.157,0.807,1.735c0.02,0.045,0.041,0.091,0.063,0.137c0.274,0.611,0.539,1.223,0.792,1.834
						c0.001,0.004,0.001,0.004,0.003,0.006C109.854,37.971,109.285,22.169,100.366,15.444z"/>
				</g>
			</g>
			<path fill="#21D1DE" d="M41.868,54.708c-6.971-16.737-6.402-32.539,2.517-39.265c-22.17,13.984-37.43,39.265-37.43,39.265
				s15.26,25.281,37.43,39.268C35.466,87.251,34.897,71.447,41.868,54.708z"/>
			<path fill="#2A6ED1" d="M100.366,15.444c8.919,6.726,9.489,22.527,2.517,39.265c6.973,16.738,6.402,32.543-2.517,39.268
				c22.171-13.986,37.431-39.268,37.431-39.268S122.537,29.428,100.366,15.444z"/>
			<path fill="#23A7E8" d="M81.903,50.634c-4.374,0-7.921-3.546-7.921-7.921c0-1.352,0.34-2.623,0.937-3.736
				c-0.83-0.133-1.676-0.222-2.543-0.222c-8.812,0-15.954,7.143-15.954,15.953c0,8.814,7.143,15.957,15.954,15.957
				s15.956-7.143,15.956-15.957c0-2.145-0.43-4.188-1.197-6.055C85.737,49.883,83.91,50.634,81.903,50.634z"/>
		</g>
	</g>
</g>
<g id="Horizontal_-_2" display="none">
	<g display="inline">
		<g>
			<path fill="#234875" d="M198.988,46.542c0,7.788-3.083,12.818-9.249,15.089l12.308,17.385h-13.351l-10.778-15.507h-7.51v15.507
				h-10.848V30.409h18.427c7.556,0,12.945,1.276,16.167,3.825C197.377,36.784,198.988,40.886,198.988,46.542z M185.915,52.313
				c1.344-1.205,2.017-3.117,2.017-5.737c0-2.619-0.695-4.416-2.086-5.389s-3.825-1.46-7.301-1.46h-8.136v14.394h7.927
				C182.044,54.121,184.57,53.519,185.915,52.313z"/>
			<path fill="#234875" d="M244.743,79.015l-4.52-10.5h-20.375l-4.52,10.5h-11.543l21-48.606h10.5l21,48.606H244.743z
				 M230.07,44.873l-6.119,14.116h12.169L230.07,44.873z"/>
			<path fill="#234875" d="M300.024,79.015l-4.52-10.5h-20.375l-4.52,10.5h-11.543l21-48.606h10.5l21,48.606H300.024z
				 M285.352,44.873l-6.119,14.116h12.169L285.352,44.873z"/>
			<path fill="#234875" d="M358.991,48.419l-13.142,26.563h-6.468l-13.072-26.563v30.596h-10.848V30.409h14.672l12.517,26.702
				l12.586-26.702h14.604v48.606h-10.849V48.419z"/>
			<path fill="#234875" d="M420.113,48.419l-13.142,26.563h-6.468l-13.072-26.563v30.596h-10.848V30.409h14.672l12.517,26.702
				l12.586-26.702h14.604v48.606h-10.849V48.419z"/>
		</g>
		<g>
			<path fill="#23A7E8" d="M72.154,6.397c-36.264,0-65.42,48.312-65.42,48.312s29.156,48.313,65.42,48.313
				c36.266,0,65.422-48.313,65.422-48.313S108.42,6.397,72.154,6.397z M94.223,70.037c-6.515,9.381-14.317,16.736-22.069,21.418
				c-7.749-4.682-15.552-12.037-22.067-21.418c-3.502-5.045-6.316-10.229-8.439-15.328c2.124-5.098,4.938-10.282,8.439-15.322
				c6.515-9.384,14.319-16.743,22.067-21.421c7.751,4.678,15.554,12.037,22.069,21.419c3.502,5.042,6.316,10.227,8.439,15.324
				C100.539,59.808,97.725,64.992,94.223,70.037z"/>
			<g>
				<g>
					<path fill="#234875" d="M40.08,91.222"/>
					<path fill="#234875" d="M72.154,91.455l-0.003-0.004c-1.931-1.166-3.863-2.494-5.777-3.98
						c-0.015-0.014-0.029-0.027-0.046-0.037c-1.413-1.1-2.817-2.287-4.204-3.551c-0.038-0.033-0.073-0.068-0.109-0.102
						c-0.442-0.404-0.884-0.816-1.321-1.24c-0.031-0.029-0.063-0.063-0.096-0.092c-0.882-0.854-1.757-1.738-2.62-2.656
						c-0.047-0.049-0.095-0.098-0.14-0.15c-0.41-0.438-0.817-0.881-1.222-1.332c-0.061-0.068-0.123-0.137-0.185-0.205
						c-0.405-0.459-0.809-0.918-1.209-1.389c-0.033-0.039-0.065-0.078-0.098-0.117c-0.391-0.461-0.779-0.932-1.165-1.406
						c-0.038-0.049-0.077-0.094-0.116-0.141c-0.384-0.477-0.764-0.959-1.142-1.449c-0.07-0.092-0.141-0.184-0.209-0.275
						c-0.371-0.482-0.737-0.969-1.101-1.467c-0.06-0.08-0.121-0.166-0.181-0.25c-0.379-0.52-0.754-1.047-1.124-1.574
						c-0.456-0.658-0.898-1.314-1.33-1.975c-0.185-0.279-0.361-0.564-0.541-0.848c-0.237-0.369-0.474-0.738-0.704-1.111
						c-0.233-0.375-0.456-0.754-0.68-1.131c-0.162-0.273-0.328-0.545-0.485-0.816c-0.256-0.441-0.503-0.883-0.75-1.322
						c-0.113-0.203-0.227-0.406-0.338-0.607c-0.27-0.494-0.531-0.99-0.787-1.484c-0.075-0.143-0.148-0.283-0.222-0.428
						c-0.277-0.539-0.545-1.08-0.809-1.619c-0.044-0.092-0.086-0.18-0.129-0.268c-0.279-0.582-0.549-1.164-0.81-1.742
						c-0.02-0.045-0.038-0.088-0.057-0.131c-0.276-0.613-0.542-1.229-0.799-1.842v-0.004c-6.971,16.738-6.402,32.543,2.517,39.268
						c8.475,5.348,17.961,9.045,27.99,9.045c8.944,0,17.455-2.939,25.203-7.369C90.545,98.8,81.389,97.031,72.154,91.455z"/>
				</g>
			</g>
			<g>
				<g>
					<path fill="#234875" d="M104.238,18.204"/>
					<line fill="#234875" x1="102.662" y1="54.708" x2="102.662" y2="54.708"/>
					<path fill="#234875" d="M100.146,15.444c-8.477-5.348-17.961-9.047-27.991-9.047c-8.942,0-17.454,2.941-25.202,7.369
						c8.238-3.807,19.906-0.42,30.992,8.191c0.01,0.006,0.018,0.013,0.026,0.02c1.421,1.105,2.832,2.296,4.226,3.568
						c0.031,0.028,0.062,0.058,0.091,0.083c0.447,0.412,0.894,0.83,1.336,1.257c0.026,0.024,0.051,0.049,0.077,0.073
						c0.89,0.859,1.774,1.754,2.645,2.679c0.042,0.045,0.082,0.088,0.123,0.13c0.415,0.443,0.825,0.893,1.233,1.35
						c0.059,0.063,0.114,0.127,0.171,0.191c0.41,0.46,0.817,0.926,1.22,1.401c0.029,0.034,0.057,0.068,0.085,0.103
						c0.398,0.467,0.791,0.94,1.179,1.423c0.036,0.042,0.072,0.086,0.108,0.129c0.385,0.479,0.769,0.967,1.148,1.458
						c0.067,0.089,0.136,0.175,0.203,0.264c0.373,0.484,0.742,0.977,1.106,1.475c0.059,0.08,0.117,0.161,0.176,0.243
						c0.379,0.521,0.756,1.047,1.127,1.581c0.456,0.655,0.898,1.313,1.33,1.972c0.185,0.282,0.359,0.566,0.542,0.851
						c0.235,0.369,0.474,0.738,0.703,1.109c0.232,0.377,0.454,0.754,0.679,1.13c0.162,0.272,0.328,0.546,0.487,0.818
						c0.255,0.441,0.501,0.881,0.747,1.321c0.112,0.202,0.229,0.405,0.338,0.609c0.271,0.493,0.532,0.986,0.789,1.479
						c0.073,0.144,0.15,0.288,0.224,0.432c0.276,0.539,0.545,1.079,0.805,1.616c0.044,0.092,0.09,0.182,0.132,0.274
						c0.278,0.579,0.547,1.157,0.807,1.735c0.02,0.045,0.041,0.091,0.063,0.137c0.274,0.611,0.539,1.223,0.792,1.834
						c0.001,0.004,0.001,0.004,0.003,0.006C109.633,37.971,109.064,22.169,100.146,15.444z"/>
				</g>
			</g>
			<path fill="#21D1DE" d="M41.647,54.708c-6.971-16.737-6.402-32.539,2.517-39.265c-22.17,13.984-37.43,39.265-37.43,39.265
				s15.26,25.281,37.43,39.268C35.245,87.251,34.677,71.447,41.647,54.708z"/>
			<path fill="#2A6ED1" d="M100.146,15.444c8.919,6.726,9.489,22.527,2.517,39.265c6.973,16.738,6.402,32.543-2.517,39.268
				c22.171-13.986,37.431-39.268,37.431-39.268S122.316,29.428,100.146,15.444z"/>
			<path fill="#23A7E8" d="M81.683,50.634c-4.374,0-7.921-3.546-7.921-7.921c0-1.352,0.34-2.623,0.937-3.736
				c-0.83-0.133-1.676-0.222-2.543-0.222c-8.812,0-15.954,7.143-15.954,15.953c0,8.814,7.143,15.957,15.954,15.957
				S88.11,63.523,88.11,54.708c0-2.145-0.43-4.188-1.197-6.055C85.517,49.883,83.689,50.634,81.683,50.634z"/>
		</g>
	</g>
</g>
<g id="Vertical_-_1" display="none">
	<g display="inline">
		<g>
			<path fill="#234875" d="M146.007,150.368c0,2.248-0.89,3.699-2.669,4.355l3.552,5.018h-3.854l-3.111-4.477h-2.167v4.477h-3.131
				v-14.029h5.318c2.181,0,3.736,0.367,4.667,1.104C145.542,147.551,146.007,148.735,146.007,150.368z M142.234,152.034
				c0.388-0.348,0.582-0.9,0.582-1.656s-0.201-1.273-0.602-1.555s-1.104-0.422-2.107-0.422h-2.348v4.154h2.288
				C141.117,152.555,141.846,152.381,142.234,152.034z"/>
			<path fill="#234875" d="M158.068,158.174c-1.217,1.15-2.646,1.727-4.285,1.727c-1.639,0-2.994-0.506-4.064-1.516
				s-1.605-2.365-1.605-4.064s0.545-3.051,1.636-4.053c1.09-1.004,2.378-1.506,3.863-1.506c1.485,0,2.747,0.449,3.783,1.344
				c1.037,0.896,1.556,2.129,1.556,3.693v1.605h-7.868c0.094,0.59,0.402,1.07,0.923,1.445c0.522,0.375,1.11,0.563,1.766,0.563
				c1.057,0,1.927-0.355,2.609-1.064L158.068,158.174z M155.179,151.772c-0.415-0.348-0.92-0.521-1.516-0.521
				s-1.141,0.182-1.636,0.543s-0.783,0.85-0.863,1.465h4.736C155.834,152.616,155.593,152.12,155.179,151.772z"/>
			<path fill="#234875" d="M168.906,157.915c-0.95,1.057-2.131,1.584-3.542,1.584c-1.412,0-2.603-0.477-3.573-1.434
				s-1.455-2.234-1.455-3.834c0-1.598,0.499-2.91,1.496-3.934c0.997-1.023,2.137-1.535,3.422-1.535c1.284,0,2.348,0.529,3.191,1.586
				v-1.426h3.01v9.412c0,0.965-0.167,1.82-0.501,2.57c-0.334,0.748-0.783,1.338-1.345,1.766c-1.111,0.883-2.422,1.324-3.934,1.324
				c-0.803,0-1.623-0.131-2.458-0.391c-0.836-0.262-1.569-0.633-2.198-1.113l1.164-2.27c0.99,0.75,2.037,1.125,3.141,1.125
				c1.104,0,1.977-0.275,2.619-0.822C168.585,159.975,168.906,159.104,168.906,157.915z M168.485,154.11
				c0-0.861-0.241-1.541-0.723-2.037c-0.481-0.494-1.077-0.742-1.786-0.742s-1.321,0.248-1.836,0.742
				c-0.515,0.496-0.772,1.172-0.772,2.027c0,0.857,0.251,1.549,0.752,2.078c0.502,0.529,1.114,0.793,1.836,0.793
				s1.325-0.262,1.806-0.783C168.244,155.667,168.485,154.973,168.485,154.11z"/>
			<path fill="#234875" d="M179.784,151.592c-0.896,0-1.565,0.318-2.007,0.953s-0.662,1.475-0.662,2.518v4.678h-3.011v-10.799h3.011
				v1.426c0.388-0.441,0.873-0.816,1.455-1.123c0.582-0.309,1.174-0.469,1.776-0.482l0.02,2.83H179.784z"/>
			<path fill="#234875" d="M192.789,154.342c0,1.564-0.542,2.883-1.626,3.953c-1.083,1.07-2.445,1.605-4.084,1.605
				c-1.639,0-3-0.535-4.084-1.605c-1.083-1.07-1.625-2.389-1.625-3.953c0-1.566,0.542-2.887,1.625-3.965
				c1.084-1.076,2.445-1.615,4.084-1.615c1.639,0,3,0.539,4.084,1.615C192.247,151.456,192.789,152.776,192.789,154.342z
				 M184.4,154.342c0,0.883,0.25,1.602,0.752,2.156c0.502,0.557,1.144,0.834,1.927,0.834s1.425-0.277,1.927-0.834
				c0.501-0.555,0.752-1.273,0.752-2.156c0-0.885-0.251-1.605-0.752-2.168c-0.502-0.563-1.144-0.844-1.927-0.844
				s-1.425,0.281-1.927,0.844S184.4,153.458,184.4,154.342z"/>
			<path fill="#234875" d="M201.78,154.762v-5.82h3.031v10.799h-3.031v-1.426c-0.75,1.057-1.716,1.586-2.9,1.586
				s-2.178-0.371-2.98-1.113c-0.803-0.744-1.204-1.844-1.204-3.303v-6.543h3.03v5.881c0,1.66,0.609,2.488,1.827,2.488
				c0.602,0,1.124-0.217,1.565-0.652C201.559,156.225,201.78,155.592,201.78,154.762z"/>
			<path fill="#234875" d="M213.742,148.762c1.257,0,2.378,0.525,3.361,1.576c0.983,1.049,1.475,2.371,1.475,3.963
				s-0.492,2.924-1.475,3.994s-2.134,1.605-3.452,1.605c-1.318,0-2.378-0.529-3.181-1.586v5.318h-3.011v-14.691h3.011v1.205
				C211.394,149.223,212.484,148.762,213.742,148.762z M210.43,154.352c0,0.875,0.244,1.592,0.732,2.146
				c0.488,0.557,1.08,0.834,1.776,0.834s1.305-0.277,1.827-0.834c0.522-0.555,0.783-1.268,0.783-2.137s-0.254-1.6-0.763-2.188
				c-0.509-0.59-1.117-0.883-1.826-0.883c-0.709,0-1.308,0.291-1.796,0.873C210.674,152.747,210.43,153.475,210.43,154.352z"/>
			<path fill="#234875" d="M229.978,158.174c-1.217,1.15-2.646,1.727-4.285,1.727c-1.639,0-2.994-0.506-4.064-1.516
				s-1.605-2.365-1.605-4.064s0.545-3.051,1.636-4.053c1.09-1.004,2.378-1.506,3.863-1.506c1.485,0,2.747,0.449,3.783,1.344
				c1.037,0.896,1.556,2.129,1.556,3.693v1.605h-7.868c0.094,0.59,0.402,1.07,0.923,1.445c0.522,0.375,1.11,0.563,1.766,0.563
				c1.057,0,1.927-0.355,2.609-1.064L229.978,158.174z M227.088,151.772c-0.415-0.348-0.92-0.521-1.516-0.521
				s-1.141,0.182-1.636,0.543s-0.783,0.85-0.863,1.465h4.736C227.743,152.616,227.502,152.12,227.088,151.772z"/>
			<path fill="#234875" d="M242.742,153.92v5.82h-3.03v-5.9c0-0.857-0.131-1.486-0.392-1.887c-0.261-0.402-0.682-0.604-1.264-0.604
				s-1.098,0.219-1.545,0.652c-0.449,0.436-0.672,1.074-0.672,1.918v5.82h-3.011v-10.799h3.011v1.225
				c0.829-0.936,1.779-1.404,2.85-1.404c0.683,0,1.301,0.201,1.856,0.602c0.555,0.402,0.974,0.891,1.254,1.465
				c0.415-0.654,0.974-1.164,1.676-1.525c0.703-0.361,1.408-0.541,2.118-0.541c1.271,0,2.294,0.379,3.071,1.133
				c0.776,0.758,1.164,1.852,1.164,3.283v6.563h-3.031v-5.9c0-1.66-0.609-2.49-1.826-2.49c-0.602,0-1.124,0.219-1.565,0.652
				C242.963,152.438,242.742,153.077,242.742,153.92z"/>
			<path fill="#234875" d="M261.708,158.174c-1.218,1.15-2.646,1.727-4.285,1.727c-1.639,0-2.993-0.506-4.063-1.516
				c-1.071-1.01-1.605-2.365-1.605-4.064s0.545-3.051,1.636-4.053c1.09-1.004,2.378-1.506,3.863-1.506s2.746,0.449,3.783,1.344
				c1.036,0.896,1.555,2.129,1.555,3.693v1.605h-7.867c0.094,0.59,0.401,1.07,0.924,1.445c0.521,0.375,1.11,0.563,1.766,0.563
				c1.057,0,1.927-0.355,2.609-1.064L261.708,158.174z M258.818,151.772c-0.415-0.348-0.92-0.521-1.516-0.521
				s-1.141,0.182-1.636,0.543s-0.782,0.85-0.863,1.465h4.737C259.473,152.616,259.232,152.12,258.818,151.772z"/>
			<path fill="#234875" d="M267.569,153.719v6.021h-3.011v-10.799h3.011v1.205c0.909-0.924,1.934-1.385,3.07-1.385
				c1.138,0,2.091,0.4,2.86,1.203s1.154,1.875,1.154,3.213v6.563h-3.011v-6.102c0-1.658-0.609-2.488-1.826-2.488
				c-0.603,0-1.128,0.217-1.576,0.652C267.792,152.237,267.569,152.875,267.569,153.719z"/>
			<path fill="#234875" d="M280.613,151.11v4.838c0,0.414,0.106,0.738,0.321,0.973c0.214,0.234,0.468,0.352,0.763,0.352
				c0.562,0,1.036-0.254,1.425-0.764l1.124,2.107c-0.937,0.857-1.924,1.285-2.961,1.285s-1.913-0.342-2.629-1.023
				s-1.073-1.613-1.073-2.789v-4.979h-1.265v-2.168h1.265v-3.23h3.03v3.23h2.609v2.168H280.613z"/>
			<path fill="#234875" d="M295.072,159.901c-1.278,0-2.418-0.541-3.422-1.625s-1.505-2.43-1.505-4.035s0.488-2.92,1.465-3.943
				s2.12-1.535,3.432-1.535s2.382,0.461,3.211,1.385v-5.299h3.011v14.893h-3.011v-1.426
				C297.41,159.372,296.349,159.901,295.072,159.901z M293.175,154.362c0,0.869,0.261,1.582,0.782,2.137
				c0.522,0.557,1.131,0.834,1.827,0.834c0.695,0,1.287-0.277,1.775-0.834c0.488-0.555,0.733-1.271,0.733-2.146
				c0-0.877-0.245-1.605-0.733-2.188s-1.087-0.873-1.796-0.873s-1.318,0.293-1.826,0.883
				C293.429,152.762,293.175,153.493,293.175,154.362z"/>
			<path fill="#234875" d="M313.265,158.174c-1.218,1.15-2.646,1.727-4.285,1.727c-1.639,0-2.993-0.506-4.063-1.516
				c-1.071-1.01-1.605-2.365-1.605-4.064s0.545-3.051,1.636-4.053c1.09-1.004,2.378-1.506,3.863-1.506s2.746,0.449,3.783,1.344
				c1.036,0.896,1.555,2.129,1.555,3.693v1.605h-7.867c0.094,0.59,0.401,1.07,0.924,1.445c0.521,0.375,1.11,0.563,1.766,0.563
				c1.057,0,1.927-0.355,2.609-1.064L313.265,158.174z M310.375,151.772c-0.415-0.348-0.92-0.521-1.516-0.521
				s-1.141,0.182-1.636,0.543s-0.782,0.85-0.863,1.465h4.737C311.031,152.616,310.79,152.12,310.375,151.772z"/>
			<path fill="#234875" d="M324.244,156.379c0,1.063-0.392,1.916-1.175,2.559c-0.782,0.643-1.776,0.963-2.98,0.963
				c-0.803,0-1.639-0.145-2.509-0.432c-0.869-0.287-1.652-0.713-2.348-1.273l1.324-1.887c1.124,0.869,2.321,1.305,3.593,1.305
				c0.388,0,0.695-0.078,0.923-0.232c0.228-0.152,0.342-0.357,0.342-0.611s-0.157-0.488-0.472-0.703
				c-0.314-0.213-0.77-0.414-1.365-0.602s-1.05-0.348-1.364-0.482c-0.314-0.133-0.673-0.326-1.074-0.582
				c-0.816-0.508-1.224-1.26-1.224-2.258c0-0.996,0.401-1.809,1.204-2.438s1.839-0.943,3.11-0.943s2.542,0.428,3.813,1.285
				l-1.124,2.006c-0.937-0.643-1.87-0.963-2.8-0.963s-1.395,0.254-1.395,0.762c0,0.281,0.146,0.502,0.441,0.662
				c0.294,0.162,0.782,0.35,1.465,0.563c0.683,0.215,1.167,0.379,1.455,0.492s0.633,0.291,1.034,0.531
				C323.869,154.555,324.244,155.315,324.244,156.379z"/>
			<path fill="#234875" d="M340.62,159.741h-2.83v-1.305c-0.775,0.977-1.735,1.465-2.88,1.465c-1.144,0-2.104-0.332-2.88-0.994
				s-1.164-1.545-1.164-2.648s0.401-1.93,1.204-2.479s1.9-0.822,3.292-0.822h2.247v-0.061c0-1.15-0.608-1.727-1.826-1.727
				c-0.521,0-1.073,0.104-1.655,0.311c-0.582,0.209-1.074,0.465-1.476,0.773l-1.345-1.947c1.418-1.029,3.037-1.545,4.857-1.545
				c1.311,0,2.381,0.328,3.211,0.982c0.829,0.656,1.244,1.693,1.244,3.111V159.741z M337.589,155.625v-0.521h-1.887
				c-1.204,0-1.807,0.375-1.807,1.123c0,0.389,0.145,0.688,0.432,0.895c0.288,0.207,0.699,0.311,1.234,0.311
				s1.007-0.164,1.415-0.492S337.589,156.174,337.589,155.625z"/>
			<path fill="#234875" d="M345.939,159.741l-4.274-10.818h3.131l2.689,6.805l2.689-6.805h3.131l-4.275,10.818H345.939z"/>
			<path fill="#234875" d="M363.941,158.174c-1.218,1.15-2.646,1.727-4.285,1.727c-1.639,0-2.993-0.506-4.063-1.516
				c-1.071-1.01-1.605-2.365-1.605-4.064s0.545-3.051,1.636-4.053c1.09-1.004,2.378-1.506,3.863-1.506s2.746,0.449,3.783,1.344
				c1.036,0.896,1.555,2.129,1.555,3.693v1.605h-7.867c0.094,0.59,0.401,1.07,0.924,1.445c0.521,0.375,1.11,0.563,1.766,0.563
				c1.057,0,1.927-0.355,2.609-1.064L363.941,158.174z M361.051,151.772c-0.415-0.348-0.92-0.521-1.516-0.521
				s-1.141,0.182-1.636,0.543s-0.782,0.85-0.863,1.465h4.737C361.707,152.616,361.465,152.12,361.051,151.772z"/>
			<path fill="#234875" d="M373.756,154.762v-5.82h3.03v10.799h-3.03v-1.426c-0.75,1.057-1.717,1.586-2.9,1.586
				c-1.185,0-2.178-0.371-2.98-1.113c-0.803-0.744-1.204-1.844-1.204-3.303v-6.543h3.03v5.881c0,1.66,0.608,2.488,1.826,2.488
				c0.603,0,1.124-0.217,1.565-0.652C373.535,156.225,373.756,155.592,373.756,154.762z"/>
			<path fill="#234875" d="M387.423,157.915c-0.95,1.057-2.131,1.584-3.543,1.584c-1.411,0-2.603-0.477-3.572-1.434
				s-1.455-2.234-1.455-3.834c0-1.598,0.498-2.91,1.495-3.934s2.138-1.535,3.422-1.535c1.285,0,2.349,0.529,3.191,1.586v-1.426
				h3.011v9.412c0,0.965-0.168,1.82-0.502,2.57c-0.335,0.748-0.783,1.338-1.345,1.766c-1.11,0.883-2.422,1.324-3.934,1.324
				c-0.803,0-1.623-0.131-2.459-0.391c-0.836-0.262-1.568-0.633-2.197-1.113l1.164-2.27c0.99,0.75,2.037,1.125,3.141,1.125
				c1.104,0,1.978-0.275,2.619-0.822C387.102,159.975,387.423,159.104,387.423,157.915z M387.001,154.11
				c0-0.861-0.241-1.541-0.723-2.037c-0.481-0.494-1.077-0.742-1.786-0.742s-1.321,0.248-1.836,0.742
				c-0.516,0.496-0.773,1.172-0.773,2.027c0,0.857,0.251,1.549,0.753,2.078s1.114,0.793,1.837,0.793
				c0.722,0,1.324-0.262,1.806-0.783S387.001,154.973,387.001,154.11z"/>
			<path fill="#234875" d="M395.632,159.741h-3.011v-14.893h3.011V159.741z"/>
			<path fill="#234875" d="M407.633,158.174c-1.218,1.15-2.646,1.727-4.285,1.727c-1.639,0-2.993-0.506-4.063-1.516
				c-1.071-1.01-1.605-2.365-1.605-4.064s0.545-3.051,1.636-4.053c1.09-1.004,2.378-1.506,3.863-1.506s2.746,0.449,3.783,1.344
				c1.036,0.896,1.555,2.129,1.555,3.693v1.605h-7.867c0.094,0.59,0.401,1.07,0.924,1.445c0.521,0.375,1.11,0.563,1.766,0.563
				c1.057,0,1.927-0.355,2.609-1.064L407.633,158.174z M404.744,151.772c-0.415-0.348-0.92-0.521-1.516-0.521
				s-1.141,0.182-1.636,0.543s-0.782,0.85-0.863,1.465h4.737C405.399,152.616,405.158,152.12,404.744,151.772z"/>
			<path fill="#234875" d="M418.613,156.379c0,1.063-0.392,1.916-1.175,2.559c-0.782,0.643-1.776,0.963-2.98,0.963
				c-0.803,0-1.639-0.145-2.509-0.432c-0.869-0.287-1.652-0.713-2.348-1.273l1.324-1.887c1.124,0.869,2.321,1.305,3.593,1.305
				c0.388,0,0.695-0.078,0.923-0.232c0.228-0.152,0.342-0.357,0.342-0.611s-0.157-0.488-0.472-0.703
				c-0.314-0.213-0.77-0.414-1.365-0.602s-1.05-0.348-1.364-0.482c-0.314-0.133-0.673-0.326-1.074-0.582
				c-0.816-0.508-1.224-1.26-1.224-2.258c0-0.996,0.401-1.809,1.204-2.438s1.839-0.943,3.11-0.943s2.542,0.428,3.813,1.285
				l-1.124,2.006c-0.937-0.643-1.87-0.963-2.8-0.963s-1.395,0.254-1.395,0.762c0,0.281,0.146,0.502,0.441,0.662
				c0.294,0.162,0.782,0.35,1.465,0.563c0.683,0.215,1.167,0.379,1.455,0.492s0.633,0.291,1.034,0.531
				C418.238,154.555,418.613,155.315,418.613,156.379z"/>
			<path fill="#234875" d="M435.169,158.174c-1.218,1.15-2.646,1.727-4.285,1.727c-1.639,0-2.993-0.506-4.063-1.516
				c-1.071-1.01-1.605-2.365-1.605-4.064s0.545-3.051,1.636-4.053c1.09-1.004,2.378-1.506,3.863-1.506s2.746,0.449,3.783,1.344
				c1.036,0.896,1.555,2.129,1.555,3.693v1.605h-7.867c0.094,0.59,0.401,1.07,0.924,1.445c0.521,0.375,1.11,0.563,1.766,0.563
				c1.057,0,1.927-0.355,2.609-1.064L435.169,158.174z M432.28,151.772c-0.415-0.348-0.92-0.521-1.516-0.521
				s-1.141,0.182-1.636,0.543s-0.782,0.85-0.863,1.465h4.737C432.935,152.616,432.694,152.12,432.28,151.772z"/>
			<path fill="#234875" d="M441.492,151.11v4.838c0,0.414,0.106,0.738,0.321,0.973c0.214,0.234,0.468,0.352,0.763,0.352
				c0.562,0,1.036-0.254,1.425-0.764l1.124,2.107c-0.937,0.857-1.924,1.285-2.961,1.285s-1.913-0.342-2.629-1.023
				s-1.073-1.613-1.073-2.789v-4.979h-1.265v-2.168h1.265v-3.23h3.03v3.23h2.609v2.168H441.492z"/>
			<path fill="#234875" d="M143.498,183.825h-2.83v-1.305c-0.776,0.977-1.736,1.465-2.88,1.465c-1.144,0-2.104-0.332-2.88-0.994
				s-1.164-1.545-1.164-2.648s0.401-1.93,1.205-2.479c0.803-0.549,1.899-0.822,3.291-0.822h2.248v-0.061
				c0-1.15-0.609-1.727-1.826-1.727c-0.522,0-1.074,0.104-1.656,0.311c-0.582,0.209-1.074,0.465-1.476,0.773l-1.344-1.947
				c1.418-1.029,3.037-1.545,4.857-1.545c1.311,0,2.381,0.328,3.211,0.982c0.83,0.656,1.244,1.693,1.244,3.111V183.825z
				 M140.468,179.709v-0.521h-1.887c-1.204,0-1.806,0.375-1.806,1.123c0,0.389,0.144,0.688,0.432,0.895
				c0.288,0.207,0.699,0.311,1.234,0.311s1.007-0.164,1.415-0.492S140.468,180.258,140.468,179.709z"/>
			<path fill="#234875" d="M155.961,178.004v5.82h-3.03v-5.9c0-0.857-0.131-1.486-0.392-1.887c-0.261-0.402-0.682-0.604-1.264-0.604
				s-1.098,0.219-1.545,0.652c-0.449,0.436-0.672,1.074-0.672,1.918v5.82h-3.011v-10.799h3.011v1.225
				c0.829-0.936,1.779-1.404,2.85-1.404c0.683,0,1.301,0.201,1.856,0.602c0.555,0.402,0.974,0.891,1.254,1.465
				c0.415-0.654,0.974-1.164,1.676-1.525c0.703-0.361,1.408-0.541,2.118-0.541c1.271,0,2.294,0.379,3.071,1.133
				c0.776,0.758,1.164,1.852,1.164,3.283v6.563h-3.031v-5.9c0-1.66-0.609-2.49-1.826-2.49c-0.602,0-1.124,0.219-1.565,0.652
				C156.182,176.522,155.961,177.161,155.961,178.004z"/>
			<path fill="#234875" d="M171.796,172.846c1.311,0,2.455,0.512,3.432,1.535c0.977,1.023,1.465,2.338,1.465,3.943
				s-0.501,2.951-1.505,4.035s-2.145,1.625-3.422,1.625c-1.278,0-2.338-0.529-3.181-1.586v1.426h-3.011v-14.893h3.011v5.299
				C169.415,173.307,170.485,172.846,171.796,172.846z M168.545,178.436c0,0.875,0.244,1.592,0.732,2.146
				c0.488,0.557,1.08,0.834,1.776,0.834s1.305-0.277,1.827-0.834c0.522-0.555,0.783-1.268,0.783-2.137s-0.254-1.6-0.763-2.188
				c-0.509-0.59-1.117-0.883-1.826-0.883c-0.709,0-1.308,0.291-1.796,0.873C168.789,176.831,168.545,177.559,168.545,178.436z"/>
			<path fill="#234875" d="M181.751,183.825h-3.011v-14.893h3.011V183.825z"/>
			<path fill="#234875" d="M186.267,188.079c-1.057,0-2.054-0.428-2.99-1.283l1.365-2.229c0.508,0.494,1.03,0.742,1.565,0.742
				c0.281,0,0.521-0.137,0.722-0.41c0.201-0.275,0.301-0.566,0.301-0.873c0-0.309-1.392-3.975-4.175-11h3.211l2.629,6.725
				l2.629-6.725h3.211l-5.017,12.725c-0.294,0.736-0.753,1.309-1.375,1.717S187.029,188.079,186.267,188.079z"/>
			<path fill="#234875" d="M206.578,178.426c0,1.564-0.542,2.883-1.626,3.953c-1.083,1.07-2.445,1.605-4.084,1.605
				c-1.639,0-3-0.535-4.084-1.605c-1.083-1.07-1.625-2.389-1.625-3.953c0-1.566,0.542-2.887,1.625-3.965
				c1.084-1.076,2.445-1.615,4.084-1.615c1.639,0,3,0.539,4.084,1.615C206.036,175.54,206.578,176.86,206.578,178.426z
				 M198.188,178.426c0,0.883,0.25,1.602,0.752,2.156c0.502,0.557,1.144,0.834,1.927,0.834s1.425-0.277,1.927-0.834
				c0.501-0.555,0.752-1.273,0.752-2.156c0-0.885-0.251-1.605-0.752-2.168c-0.502-0.563-1.144-0.844-1.927-0.844
				s-1.425,0.281-1.927,0.844S198.188,177.542,198.188,178.426z"/>
			<path fill="#234875" d="M214.886,172.846c1.257,0,2.378,0.525,3.361,1.576c0.983,1.049,1.475,2.371,1.475,3.963
				s-0.492,2.924-1.475,3.994s-2.134,1.605-3.452,1.605c-1.318,0-2.378-0.529-3.181-1.586v5.318h-3.011v-14.691h3.011v1.205
				C212.538,173.307,213.628,172.846,214.886,172.846z M211.575,178.436c0,0.875,0.244,1.592,0.732,2.146
				c0.488,0.557,1.08,0.834,1.776,0.834s1.305-0.277,1.827-0.834c0.522-0.555,0.783-1.268,0.783-2.137s-0.254-1.6-0.763-2.188
				c-0.509-0.59-1.117-0.883-1.826-0.883c-0.709,0-1.308,0.291-1.796,0.873C211.818,176.831,211.575,177.559,211.575,178.436z"/>
			<path fill="#234875" d="M231.122,182.258c-1.217,1.15-2.646,1.727-4.285,1.727c-1.639,0-2.994-0.506-4.064-1.516
				s-1.605-2.365-1.605-4.064s0.545-3.051,1.636-4.053c1.09-1.004,2.378-1.506,3.863-1.506c1.485,0,2.747,0.449,3.783,1.344
				c1.037,0.896,1.556,2.129,1.556,3.693v1.605h-7.868c0.094,0.59,0.402,1.07,0.923,1.445c0.522,0.375,1.11,0.563,1.766,0.563
				c1.057,0,1.927-0.355,2.609-1.064L231.122,182.258z M228.232,175.856c-0.415-0.348-0.92-0.521-1.516-0.521
				s-1.141,0.182-1.636,0.543s-0.783,0.85-0.863,1.465h4.736C228.888,176.7,228.647,176.204,228.232,175.856z"/>
			<path fill="#234875" d="M242.101,180.463c0,1.063-0.391,1.916-1.174,2.559s-1.776,0.963-2.98,0.963
				c-0.803,0-1.639-0.145-2.509-0.432c-0.87-0.287-1.653-0.713-2.348-1.273l1.325-1.887c1.124,0.869,2.321,1.305,3.592,1.305
				c0.388,0,0.696-0.078,0.923-0.232c0.227-0.152,0.341-0.357,0.341-0.611s-0.158-0.488-0.472-0.703
				c-0.315-0.213-0.77-0.414-1.365-0.602c-0.596-0.188-1.051-0.348-1.365-0.482c-0.315-0.133-0.672-0.326-1.074-0.582
				c-0.816-0.508-1.225-1.26-1.225-2.258c0-0.996,0.401-1.809,1.204-2.438c0.803-0.629,1.84-0.943,3.111-0.943
				s2.542,0.428,3.813,1.285l-1.124,2.006c-0.937-0.643-1.87-0.963-2.8-0.963c-0.93,0-1.395,0.254-1.395,0.762
				c0,0.281,0.147,0.502,0.441,0.662c0.294,0.162,0.783,0.35,1.465,0.563c0.682,0.215,1.167,0.379,1.455,0.492
				s0.632,0.291,1.034,0.531C241.726,178.639,242.101,179.399,242.101,180.463z"/>
			<path fill="#234875" d="M253.63,183.985c-1.278,0-2.418-0.541-3.422-1.625c-1.003-1.084-1.505-2.43-1.505-4.035
				s0.488-2.92,1.465-3.943c0.977-1.023,2.12-1.535,3.432-1.535s2.382,0.461,3.211,1.385v-5.299h3.011v14.893h-3.011v-1.426
				C255.968,183.456,254.908,183.985,253.63,183.985z M251.734,178.446c0,0.869,0.261,1.582,0.782,2.137
				c0.522,0.557,1.131,0.834,1.827,0.834c0.695,0,1.287-0.277,1.775-0.834c0.488-0.555,0.733-1.271,0.733-2.146
				c0-0.877-0.245-1.605-0.733-2.188s-1.087-0.873-1.796-0.873s-1.318,0.293-1.826,0.883
				C251.988,176.846,251.734,177.577,251.734,178.446z"/>
			<path fill="#234875" d="M269.435,178.846v-5.82h3.03v10.799h-3.03v-1.426c-0.75,1.057-1.717,1.586-2.9,1.586
				c-1.185,0-2.178-0.371-2.98-1.113c-0.803-0.744-1.204-1.844-1.204-3.303v-6.543h3.03v5.881c0,1.66,0.608,2.488,1.826,2.488
				c0.603,0,1.124-0.217,1.565-0.652C269.213,180.309,269.435,179.676,269.435,178.846z"/>
			<path fill="#234875" d="M293.077,174.993l-3.794,7.668h-1.866l-3.773-7.668v8.832h-3.131v-14.029h4.235l3.612,7.707l3.633-7.707
				h4.215v14.029h-3.131V174.993z"/>
			<path fill="#234875" d="M309.956,178.426c0,1.564-0.542,2.883-1.626,3.953s-2.445,1.605-4.084,1.605c-1.64,0-3-0.535-4.084-1.605
				s-1.626-2.389-1.626-3.953c0-1.566,0.542-2.887,1.626-3.965c1.084-1.076,2.444-1.615,4.084-1.615c1.639,0,3,0.539,4.084,1.615
				C309.414,175.54,309.956,176.86,309.956,178.426z M301.566,178.426c0,0.883,0.251,1.602,0.753,2.156
				c0.502,0.557,1.144,0.834,1.927,0.834c0.782,0,1.425-0.277,1.927-0.834c0.502-0.555,0.753-1.273,0.753-2.156
				c0-0.885-0.251-1.605-0.753-2.168s-1.145-0.844-1.927-0.844c-0.783,0-1.425,0.281-1.927,0.844S301.566,177.542,301.566,178.426z"
				/>
			<path fill="#234875" d="M314.993,177.803v6.021h-3.011v-10.799h3.011v1.205c0.909-0.924,1.934-1.385,3.07-1.385
				c1.138,0,2.091,0.4,2.86,1.203s1.154,1.875,1.154,3.213v6.563h-3.011v-6.102c0-1.658-0.609-2.488-1.826-2.488
				c-0.603,0-1.128,0.217-1.576,0.652C315.216,176.321,314.993,176.959,314.993,177.803z"/>
			<path fill="#234875" d="M328.039,175.194v4.838c0,0.414,0.106,0.738,0.321,0.973c0.214,0.234,0.468,0.352,0.763,0.352
				c0.562,0,1.036-0.254,1.425-0.764l1.124,2.107c-0.937,0.857-1.924,1.285-2.961,1.285s-1.913-0.342-2.629-1.023
				s-1.073-1.613-1.073-2.789v-4.979h-1.265v-2.168h1.265v-3.23h3.03v3.23h2.609v2.168H328.039z"/>
			<path fill="#234875" d="M338.754,175.676c-0.896,0-1.565,0.318-2.007,0.953s-0.662,1.475-0.662,2.518v4.678h-3.011v-10.799h3.011
				v1.426c0.388-0.441,0.873-0.816,1.455-1.123c0.582-0.309,1.174-0.469,1.776-0.482l0.02,2.83H338.754z"/>
			<path fill="#234875" d="M350.476,182.258c-1.218,1.15-2.646,1.727-4.285,1.727c-1.639,0-2.993-0.506-4.063-1.516
				c-1.071-1.01-1.605-2.365-1.605-4.064s0.545-3.051,1.636-4.053c1.09-1.004,2.378-1.506,3.863-1.506s2.746,0.449,3.783,1.344
				c1.036,0.896,1.555,2.129,1.555,3.693v1.605h-7.867c0.094,0.59,0.401,1.07,0.924,1.445c0.521,0.375,1.11,0.563,1.766,0.563
				c1.057,0,1.927-0.355,2.609-1.064L350.476,182.258z M347.586,175.856c-0.415-0.348-0.92-0.521-1.516-0.521
				s-1.141,0.182-1.636,0.543s-0.782,0.85-0.863,1.465h4.737C348.242,176.7,348,176.204,347.586,175.856z M346.944,171.561h-2.87
				l2.549-3.553l3.111,1.305L346.944,171.561z"/>
			<path fill="#234875" d="M362.498,183.825h-2.83v-1.305c-0.775,0.977-1.735,1.465-2.88,1.465c-1.144,0-2.104-0.332-2.88-0.994
				s-1.164-1.545-1.164-2.648s0.401-1.93,1.204-2.479s1.9-0.822,3.292-0.822h2.247v-0.061c0-1.15-0.608-1.727-1.826-1.727
				c-0.521,0-1.073,0.104-1.655,0.311c-0.582,0.209-1.074,0.465-1.476,0.773l-1.345-1.947c1.418-1.029,3.037-1.545,4.857-1.545
				c1.311,0,2.381,0.328,3.211,0.982c0.829,0.656,1.244,1.693,1.244,3.111V183.825z M359.467,179.709v-0.521h-1.887
				c-1.204,0-1.807,0.375-1.807,1.123c0,0.389,0.145,0.688,0.432,0.895c0.288,0.207,0.699,0.311,1.234,0.311
				s1.007-0.164,1.415-0.492S359.467,180.258,359.467,179.709z"/>
			<path fill="#234875" d="M368.057,183.825h-3.011v-14.893h3.011V183.825z"/>
			<path fill="#234875" d="M385.718,178.004v5.82h-3.031v-5.9c0-0.857-0.13-1.486-0.391-1.887c-0.262-0.402-0.683-0.604-1.265-0.604
				s-1.098,0.219-1.546,0.652c-0.448,0.436-0.672,1.074-0.672,1.918v5.82h-3.011v-10.799h3.011v1.225
				c0.829-0.936,1.779-1.404,2.85-1.404c0.683,0,1.302,0.201,1.856,0.602c0.556,0.402,0.974,0.891,1.255,1.465
				c0.414-0.654,0.973-1.164,1.676-1.525c0.702-0.361,1.408-0.541,2.117-0.541c1.271,0,2.295,0.379,3.07,1.133
				c0.776,0.758,1.164,1.852,1.164,3.283v6.563h-3.03v-5.9c0-1.66-0.609-2.49-1.826-2.49c-0.603,0-1.124,0.219-1.565,0.652
				C385.939,176.522,385.718,177.161,385.718,178.004z"/>
			<path fill="#234875" d="M404.683,182.258c-1.218,1.15-2.646,1.727-4.285,1.727c-1.639,0-2.993-0.506-4.063-1.516
				c-1.071-1.01-1.605-2.365-1.605-4.064s0.545-3.051,1.636-4.053c1.09-1.004,2.378-1.506,3.863-1.506s2.746,0.449,3.783,1.344
				c1.036,0.896,1.555,2.129,1.555,3.693v1.605h-7.867c0.094,0.59,0.401,1.07,0.924,1.445c0.521,0.375,1.11,0.563,1.766,0.563
				c1.057,0,1.927-0.355,2.609-1.064L404.683,182.258z M401.793,175.856c-0.415-0.348-0.92-0.521-1.516-0.521
				s-1.141,0.182-1.636,0.543s-0.782,0.85-0.863,1.465h4.737C402.449,176.7,402.208,176.204,401.793,175.856z M401.151,171.561
				h-2.87l2.549-3.553l3.111,1.305L401.151,171.561z"/>
			<path fill="#234875" d="M411.126,175.194v4.838c0,0.414,0.106,0.738,0.321,0.973c0.214,0.234,0.468,0.352,0.763,0.352
				c0.562,0,1.036-0.254,1.425-0.764l1.124,2.107c-0.937,0.857-1.924,1.285-2.961,1.285s-1.913-0.342-2.629-1.023
				s-1.073-1.613-1.073-2.789v-4.979h-1.265v-2.168h1.265v-3.23h3.03v3.23h2.609v2.168H411.126z"/>
			<path fill="#234875" d="M421.842,175.676c-0.896,0-1.565,0.318-2.007,0.953s-0.662,1.475-0.662,2.518v4.678h-3.011v-10.799h3.011
				v1.426c0.388-0.441,0.873-0.816,1.455-1.123c0.582-0.309,1.174-0.469,1.776-0.482l0.02,2.83H421.842z"/>
			<path fill="#234875" d="M434.849,178.426c0,1.564-0.542,2.883-1.626,3.953s-2.445,1.605-4.084,1.605c-1.64,0-3-0.535-4.084-1.605
				s-1.626-2.389-1.626-3.953c0-1.566,0.542-2.887,1.626-3.965c1.084-1.076,2.444-1.615,4.084-1.615c1.639,0,3,0.539,4.084,1.615
				C434.307,175.54,434.849,176.86,434.849,178.426z M426.459,178.426c0,0.883,0.251,1.602,0.753,2.156
				c0.502,0.557,1.144,0.834,1.927,0.834c0.782,0,1.425-0.277,1.927-0.834c0.502-0.555,0.753-1.273,0.753-2.156
				c0-0.885-0.251-1.605-0.753-2.168s-1.145-0.844-1.927-0.844c-0.783,0-1.425,0.281-1.927,0.844S426.459,177.542,426.459,178.426z"
				/>
			<path fill="#234875" d="M443.158,172.846c1.257,0,2.378,0.525,3.361,1.576c0.983,1.049,1.476,2.371,1.476,3.963
				s-0.492,2.924-1.476,3.994s-2.134,1.605-3.452,1.605c-1.317,0-2.378-0.529-3.181-1.586v5.318h-3.011v-14.691h3.011v1.205
				C440.809,173.307,441.9,172.846,443.158,172.846z M439.846,178.436c0,0.875,0.244,1.592,0.732,2.146
				c0.488,0.557,1.08,0.834,1.776,0.834c0.695,0,1.305-0.277,1.826-0.834c0.521-0.555,0.782-1.268,0.782-2.137
				s-0.254-1.6-0.763-2.188c-0.508-0.59-1.117-0.883-1.826-0.883s-1.308,0.291-1.796,0.873S439.846,177.559,439.846,178.436z"/>
			<path fill="#234875" d="M460.839,178.426c0,1.564-0.542,2.883-1.626,3.953s-2.445,1.605-4.084,1.605c-1.64,0-3-0.535-4.084-1.605
				s-1.626-2.389-1.626-3.953c0-1.566,0.542-2.887,1.626-3.965c1.084-1.076,2.444-1.615,4.084-1.615c1.639,0,3,0.539,4.084,1.615
				C460.297,175.54,460.839,176.86,460.839,178.426z M452.45,178.426c0,0.883,0.251,1.602,0.753,2.156
				c0.502,0.557,1.144,0.834,1.927,0.834c0.782,0,1.425-0.277,1.927-0.834c0.502-0.555,0.753-1.273,0.753-2.156
				c0-0.885-0.251-1.605-0.753-2.168s-1.145-0.844-1.927-0.844c-0.783,0-1.425,0.281-1.927,0.844S452.45,177.542,452.45,178.426z"/>
			<path fill="#234875" d="M465.876,183.825h-3.011v-14.893h3.011V183.825z"/>
			<path fill="#234875" d="M468.776,171.651c-0.341-0.34-0.512-0.758-0.512-1.254c0-0.494,0.171-0.912,0.512-1.254
				s0.759-0.512,1.255-0.512c0.494,0,0.913,0.17,1.254,0.512s0.512,0.76,0.512,1.254c0,0.496-0.171,0.914-0.512,1.254
				c-0.341,0.342-0.76,0.514-1.254,0.514C469.535,172.165,469.117,171.993,468.776,171.651z M471.536,183.825h-3.011v-10.799h3.011
				V183.825z"/>
			<path fill="#234875" d="M477.778,175.194v4.838c0,0.414,0.106,0.738,0.321,0.973c0.214,0.234,0.468,0.352,0.763,0.352
				c0.562,0,1.036-0.254,1.425-0.764l1.124,2.107c-0.937,0.857-1.924,1.285-2.961,1.285s-1.913-0.342-2.629-1.023
				s-1.073-1.613-1.073-2.789v-4.979h-1.265v-2.168h1.265v-3.23h3.03v3.23h2.609v2.168H477.778z"/>
			<path fill="#234875" d="M491.986,183.825h-2.83v-1.305c-0.775,0.977-1.735,1.465-2.88,1.465c-1.144,0-2.104-0.332-2.88-0.994
				s-1.164-1.545-1.164-2.648s0.401-1.93,1.204-2.479s1.9-0.822,3.292-0.822h2.247v-0.061c0-1.15-0.608-1.727-1.826-1.727
				c-0.521,0-1.073,0.104-1.655,0.311c-0.582,0.209-1.074,0.465-1.476,0.773l-1.345-1.947c1.418-1.029,3.037-1.545,4.857-1.545
				c1.311,0,2.381,0.328,3.211,0.982c0.829,0.656,1.244,1.693,1.244,3.111V183.825z M488.956,179.709v-0.521h-1.887
				c-1.204,0-1.807,0.375-1.807,1.123c0,0.389,0.145,0.688,0.432,0.895c0.288,0.207,0.699,0.311,1.234,0.311
				s1.007-0.164,1.415-0.492S488.956,180.258,488.956,179.709z"/>
			<path fill="#234875" d="M494.786,171.651c-0.341-0.34-0.512-0.758-0.512-1.254c0-0.494,0.171-0.912,0.512-1.254
				s0.759-0.512,1.255-0.512c0.494,0,0.913,0.17,1.254,0.512s0.512,0.76,0.512,1.254c0,0.496-0.171,0.914-0.512,1.254
				c-0.341,0.342-0.76,0.514-1.254,0.514C495.544,172.165,495.126,171.993,494.786,171.651z M497.545,183.825h-3.011v-10.799h3.011
				V183.825z"/>
			<path fill="#234875" d="M503.205,177.803v6.021h-3.011v-10.799h3.011v1.205c0.909-0.924,1.934-1.385,3.07-1.385
				c1.138,0,2.091,0.4,2.86,1.203s1.154,1.875,1.154,3.213v6.563h-3.011v-6.102c0-1.658-0.609-2.488-1.826-2.488
				c-0.603,0-1.128,0.217-1.576,0.652C503.428,176.321,503.205,176.959,503.205,177.803z"/>
		</g>
		<g>
			<path fill="#234875" d="M174.398,102.05c0,7.787-3.084,12.818-9.249,15.088l12.309,17.385h-13.352l-10.778-15.506h-7.51v15.506
				H134.97V85.917h18.427c7.556,0,12.945,1.275,16.168,3.824C172.787,92.292,174.398,96.394,174.398,102.05z M161.325,107.822
				c1.344-1.205,2.017-3.117,2.017-5.737c0-2.618-0.695-4.415-2.086-5.39c-1.391-0.973-3.825-1.459-7.302-1.459h-8.136v14.393h7.927
				C157.454,109.628,159.98,109.027,161.325,107.822z"/>
			<path fill="#234875" d="M220.152,134.523l-4.52-10.5h-20.374l-4.521,10.5h-11.543l21-48.605h10.5l21.001,48.605H220.152z
				 M205.48,100.38l-6.119,14.117h12.169L205.48,100.38z"/>
			<path fill="#234875" d="M275.433,134.523l-4.52-10.5h-20.375l-4.52,10.5h-11.543l21-48.605h10.5l21,48.605H275.433z
				 M260.761,100.38l-6.119,14.117h12.169L260.761,100.38z"/>
			<path fill="#234875" d="M334.4,103.927l-13.142,26.563h-6.468l-13.072-26.563v30.596h-10.848V85.917h14.672l12.517,26.701
				l12.586-26.701h14.604v48.605H334.4V103.927z"/>
			<path fill="#234875" d="M395.522,103.927L382.38,130.49h-6.468l-13.072-26.563v30.596h-10.848V85.917h14.672l12.517,26.701
				l12.586-26.701h14.604v48.605h-10.849V103.927z"/>
		</g>
		<g>
			<path fill="#23A7E8" d="M260.688-32.834c-36.265,0-65.42,48.312-65.42,48.312s29.155,48.312,65.42,48.312
				c36.266,0,65.422-48.312,65.422-48.312S296.954-32.834,260.688-32.834z M282.756,30.806
				c-6.516,9.381-14.317,16.736-22.068,21.417c-7.749-4.681-15.553-12.037-22.067-21.417c-3.502-5.045-6.316-10.229-8.439-15.328
				c2.123-5.098,4.938-10.282,8.439-15.322c6.515-9.384,14.318-16.743,22.067-21.421c7.751,4.678,15.553,12.037,22.068,21.419
				c3.502,5.042,6.316,10.227,8.439,15.324C289.073,20.577,286.258,25.761,282.756,30.806z"/>
			<g>
				<g>
					<path fill="#234875" d="M228.613,51.991"/>
					<path fill="#234875" d="M260.688,52.223l-0.004-0.004c-1.931-1.166-3.863-2.494-5.777-3.98
						c-0.014-0.014-0.029-0.027-0.045-0.037c-1.413-1.1-2.817-2.287-4.204-3.551c-0.038-0.033-0.073-0.068-0.109-0.102
						c-0.442-0.404-0.884-0.816-1.321-1.24c-0.031-0.029-0.063-0.063-0.097-0.092c-0.882-0.854-1.757-1.738-2.62-2.656
						c-0.047-0.049-0.095-0.098-0.14-0.15c-0.41-0.438-0.817-0.881-1.222-1.332c-0.061-0.068-0.123-0.137-0.185-0.205
						c-0.405-0.459-0.809-0.918-1.209-1.389c-0.033-0.039-0.065-0.078-0.098-0.117c-0.391-0.461-0.779-0.932-1.165-1.406
						c-0.037-0.049-0.076-0.094-0.116-0.141c-0.384-0.477-0.764-0.959-1.142-1.449c-0.07-0.092-0.141-0.184-0.209-0.275
						c-0.37-0.482-0.736-0.969-1.101-1.467c-0.061-0.08-0.121-0.166-0.182-0.25c-0.379-0.52-0.754-1.047-1.123-1.574
						c-0.456-0.658-0.898-1.314-1.33-1.975c-0.185-0.279-0.36-0.564-0.54-0.848c-0.237-0.369-0.474-0.738-0.704-1.111
						c-0.233-0.375-0.456-0.754-0.68-1.131c-0.162-0.273-0.328-0.545-0.485-0.816c-0.256-0.441-0.503-0.883-0.749-1.322
						c-0.113-0.203-0.228-0.406-0.339-0.607c-0.27-0.494-0.53-0.99-0.787-1.484c-0.075-0.143-0.148-0.283-0.222-0.428
						c-0.277-0.539-0.546-1.08-0.809-1.619c-0.044-0.092-0.087-0.18-0.129-0.268c-0.279-0.582-0.549-1.164-0.811-1.742
						c-0.02-0.045-0.037-0.088-0.057-0.131c-0.276-0.613-0.543-1.229-0.799-1.842v-0.004c-6.971,16.738-6.402,32.543,2.517,39.267
						c8.476,5.348,17.962,9.045,27.99,9.045c8.943,0,17.455-2.939,25.203-7.369C279.079,59.569,269.922,57.799,260.688,52.223z"/>
				</g>
			</g>
			<g>
				<g>
					<path fill="#234875" d="M292.772-21.027"/>
					<line fill="#234875" x1="291.196" y1="15.478" x2="291.196" y2="15.478"/>
					<path fill="#234875" d="M288.678-23.787c-8.477-5.348-17.961-9.047-27.99-9.047c-8.942,0-17.454,2.941-25.202,7.369
						c8.238-3.807,19.906-0.42,30.991,8.191c0.01,0.006,0.018,0.013,0.026,0.02c1.421,1.105,2.832,2.296,4.226,3.568
						c0.031,0.028,0.063,0.058,0.092,0.083c0.447,0.412,0.893,0.83,1.336,1.257c0.025,0.024,0.051,0.049,0.076,0.073
						c0.891,0.859,1.773,1.754,2.645,2.679c0.043,0.045,0.082,0.088,0.123,0.13c0.414,0.443,0.824,0.893,1.232,1.35
						c0.059,0.063,0.114,0.127,0.172,0.191c0.41,0.46,0.816,0.926,1.22,1.401c0.029,0.034,0.058,0.068,0.085,0.103
						c0.398,0.467,0.791,0.94,1.18,1.423c0.035,0.042,0.071,0.086,0.107,0.129c0.385,0.479,0.77,0.967,1.148,1.458
						c0.066,0.089,0.135,0.175,0.202,0.264c0.372,0.484,0.741,0.977,1.106,1.475c0.059,0.08,0.117,0.161,0.176,0.243
						c0.379,0.521,0.756,1.047,1.127,1.581c0.455,0.655,0.898,1.313,1.33,1.972c0.184,0.282,0.359,0.566,0.541,0.851
						c0.236,0.369,0.475,0.738,0.703,1.109c0.232,0.377,0.454,0.754,0.68,1.13c0.161,0.272,0.328,0.546,0.486,0.818
						c0.255,0.441,0.502,0.881,0.746,1.321c0.113,0.202,0.229,0.405,0.338,0.609c0.271,0.493,0.533,0.986,0.789,1.479
						c0.074,0.144,0.15,0.288,0.225,0.432c0.275,0.539,0.545,1.079,0.805,1.616c0.044,0.092,0.09,0.182,0.133,0.274
						c0.277,0.579,0.547,1.157,0.807,1.735c0.02,0.045,0.041,0.091,0.063,0.137c0.273,0.611,0.538,1.223,0.791,1.834
						c0.002,0.004,0.002,0.004,0.004,0.006C298.167-1.26,297.598-17.062,288.678-23.787z"/>
				</g>
			</g>
			<path fill="#21D1DE" d="M230.181,15.478c-6.971-16.737-6.402-32.539,2.517-39.265c-22.17,13.984-37.43,39.265-37.43,39.265
				s15.26,25.281,37.43,39.267C223.779,48.021,223.21,32.216,230.181,15.478z"/>
			<path fill="#2A6ED1" d="M288.678-23.787c8.92,6.726,9.49,22.527,2.518,39.265c6.973,16.738,6.402,32.543-2.518,39.267
				c22.172-13.986,37.432-39.267,37.432-39.267S310.85-9.803,288.678-23.787z"/>
			<path fill="#23A7E8" d="M270.215,11.403c-4.373,0-7.921-3.546-7.921-7.921c0-1.352,0.34-2.623,0.937-3.736
				c-0.831-0.133-1.676-0.222-2.543-0.222c-8.812,0-15.954,7.143-15.954,15.953c0,8.814,7.143,15.957,15.954,15.957
				c8.811,0,15.955-7.143,15.955-15.957c0-2.145-0.43-4.187-1.197-6.055C274.049,10.652,272.223,11.403,270.215,11.403z"/>
		</g>
	</g>
</g>
<g id="Vertical_-_2" display="none">
	<g display="inline">
		<g>
			<path fill="#234875" d="M174.398,102.05c0,7.787-3.084,12.818-9.249,15.088l12.309,17.385h-13.352l-10.778-15.506h-7.51v15.506
				H134.97V85.917h18.427c7.556,0,12.945,1.275,16.168,3.824C172.787,92.292,174.398,96.394,174.398,102.05z M161.325,107.822
				c1.344-1.205,2.017-3.117,2.017-5.737c0-2.618-0.695-4.415-2.086-5.39c-1.391-0.973-3.825-1.459-7.302-1.459h-8.136v14.393h7.927
				C157.454,109.628,159.98,109.027,161.325,107.822z"/>
			<path fill="#234875" d="M220.152,134.523l-4.52-10.5h-20.374l-4.521,10.5h-11.543l21-48.605h10.5l21.001,48.605H220.152z
				 M205.48,100.38l-6.119,14.117h12.169L205.48,100.38z"/>
			<path fill="#234875" d="M275.433,134.523l-4.52-10.5h-20.375l-4.52,10.5h-11.543l21-48.605h10.5l21,48.605H275.433z
				 M260.761,100.38l-6.119,14.117h12.169L260.761,100.38z"/>
			<path fill="#234875" d="M334.4,103.927l-13.142,26.563h-6.468l-13.072-26.563v30.596h-10.848V85.917h14.672l12.517,26.701
				l12.586-26.701h14.604v48.605H334.4V103.927z"/>
			<path fill="#234875" d="M395.522,103.927L382.38,130.49h-6.468l-13.072-26.563v30.596h-10.848V85.917h14.672l12.517,26.701
				l12.586-26.701h14.604v48.605h-10.849V103.927z"/>
		</g>
		<g>
			<path fill="#23A7E8" d="M260.688-32.834c-36.265,0-65.42,48.312-65.42,48.312s29.155,48.312,65.42,48.312
				c36.266,0,65.422-48.312,65.422-48.312S296.954-32.834,260.688-32.834z M282.756,30.806
				c-6.516,9.381-14.317,16.736-22.068,21.417c-7.749-4.681-15.553-12.037-22.067-21.417c-3.502-5.045-6.316-10.229-8.439-15.328
				c2.123-5.098,4.938-10.282,8.439-15.322c6.515-9.384,14.318-16.743,22.067-21.421c7.751,4.678,15.553,12.037,22.068,21.419
				c3.502,5.042,6.316,10.227,8.439,15.324C289.073,20.577,286.258,25.761,282.756,30.806z"/>
			<g>
				<g>
					<path fill="#234875" d="M228.613,51.991"/>
					<path fill="#234875" d="M260.688,52.223l-0.004-0.004c-1.931-1.166-3.863-2.494-5.777-3.98
						c-0.014-0.014-0.029-0.027-0.045-0.037c-1.413-1.1-2.817-2.287-4.204-3.551c-0.038-0.033-0.073-0.068-0.109-0.102
						c-0.442-0.404-0.884-0.816-1.321-1.24c-0.031-0.029-0.063-0.063-0.097-0.092c-0.882-0.854-1.757-1.738-2.62-2.656
						c-0.047-0.049-0.095-0.098-0.14-0.15c-0.41-0.438-0.817-0.881-1.222-1.332c-0.061-0.068-0.123-0.137-0.185-0.205
						c-0.405-0.459-0.809-0.918-1.209-1.389c-0.033-0.039-0.065-0.078-0.098-0.117c-0.391-0.461-0.779-0.932-1.165-1.406
						c-0.037-0.049-0.076-0.094-0.116-0.141c-0.384-0.477-0.764-0.959-1.142-1.449c-0.07-0.092-0.141-0.184-0.209-0.275
						c-0.37-0.482-0.736-0.969-1.101-1.467c-0.061-0.08-0.121-0.166-0.182-0.25c-0.379-0.52-0.754-1.047-1.123-1.574
						c-0.456-0.658-0.898-1.314-1.33-1.975c-0.185-0.279-0.36-0.564-0.54-0.848c-0.237-0.369-0.474-0.738-0.704-1.111
						c-0.233-0.375-0.456-0.754-0.68-1.131c-0.162-0.273-0.328-0.545-0.485-0.816c-0.256-0.441-0.503-0.883-0.749-1.322
						c-0.113-0.203-0.228-0.406-0.339-0.607c-0.27-0.494-0.53-0.99-0.787-1.484c-0.075-0.143-0.148-0.283-0.222-0.428
						c-0.277-0.539-0.546-1.08-0.809-1.619c-0.044-0.092-0.087-0.18-0.129-0.268c-0.279-0.582-0.549-1.164-0.811-1.742
						c-0.02-0.045-0.037-0.088-0.057-0.131c-0.276-0.613-0.543-1.229-0.799-1.842v-0.004c-6.971,16.738-6.402,32.543,2.517,39.267
						c8.476,5.348,17.962,9.045,27.99,9.045c8.943,0,17.455-2.939,25.203-7.369C279.079,59.569,269.922,57.799,260.688,52.223z"/>
				</g>
			</g>
			<g>
				<g>
					<path fill="#234875" d="M292.772-21.027"/>
					<line fill="#234875" x1="291.196" y1="15.478" x2="291.196" y2="15.478"/>
					<path fill="#234875" d="M288.678-23.787c-8.477-5.348-17.961-9.047-27.99-9.047c-8.942,0-17.454,2.941-25.202,7.369
						c8.238-3.807,19.906-0.42,30.991,8.191c0.01,0.006,0.018,0.013,0.026,0.02c1.421,1.105,2.832,2.296,4.226,3.568
						c0.031,0.028,0.063,0.058,0.092,0.083c0.447,0.412,0.893,0.83,1.336,1.257c0.025,0.024,0.051,0.049,0.076,0.073
						c0.891,0.859,1.773,1.754,2.645,2.679c0.043,0.045,0.082,0.088,0.123,0.13c0.414,0.443,0.824,0.893,1.232,1.35
						c0.059,0.063,0.114,0.127,0.172,0.191c0.41,0.46,0.816,0.926,1.22,1.401c0.029,0.034,0.058,0.068,0.085,0.103
						c0.398,0.467,0.791,0.94,1.18,1.423c0.035,0.042,0.071,0.086,0.107,0.129c0.385,0.479,0.77,0.967,1.148,1.458
						c0.066,0.089,0.135,0.175,0.202,0.264c0.372,0.484,0.741,0.977,1.106,1.475c0.059,0.08,0.117,0.161,0.176,0.243
						c0.379,0.521,0.756,1.047,1.127,1.581c0.455,0.655,0.898,1.313,1.33,1.972c0.184,0.282,0.359,0.566,0.541,0.851
						c0.236,0.369,0.475,0.738,0.703,1.109c0.232,0.377,0.454,0.754,0.68,1.13c0.161,0.272,0.328,0.546,0.486,0.818
						c0.255,0.441,0.502,0.881,0.746,1.321c0.113,0.202,0.229,0.405,0.338,0.609c0.271,0.493,0.533,0.986,0.789,1.479
						c0.074,0.144,0.15,0.288,0.225,0.432c0.275,0.539,0.545,1.079,0.805,1.616c0.044,0.092,0.09,0.182,0.133,0.274
						c0.277,0.579,0.547,1.157,0.807,1.735c0.02,0.045,0.041,0.091,0.063,0.137c0.273,0.611,0.538,1.223,0.791,1.834
						c0.002,0.004,0.002,0.004,0.004,0.006C298.167-1.26,297.598-17.062,288.678-23.787z"/>
				</g>
			</g>
			<path fill="#21D1DE" d="M230.181,15.478c-6.971-16.737-6.402-32.539,2.517-39.265c-22.17,13.984-37.43,39.265-37.43,39.265
				s15.26,25.281,37.43,39.267C223.779,48.021,223.21,32.216,230.181,15.478z"/>
			<path fill="#2A6ED1" d="M288.678-23.787c8.92,6.726,9.49,22.527,2.518,39.265c6.973,16.738,6.402,32.543-2.518,39.267
				c22.172-13.986,37.432-39.267,37.432-39.267S310.85-9.803,288.678-23.787z"/>
			<path fill="#23A7E8" d="M270.215,11.403c-4.373,0-7.921-3.546-7.921-7.921c0-1.352,0.34-2.623,0.937-3.736
				c-0.831-0.133-1.676-0.222-2.543-0.222c-8.812,0-15.954,7.143-15.954,15.953c0,8.814,7.143,15.957,15.954,15.957
				c8.811,0,15.955-7.143,15.955-15.957c0-2.145-0.43-4.187-1.197-6.055C274.049,10.652,272.223,11.403,270.215,11.403z"/>
		</g>
	</g>
</g>
<g id="Spacings" display="none">
	<rect x="142.667" y="54.667" display="inline" fill="#234875" width="21" height="11"/>
	<rect x="134.667" y="134.667" display="inline" fill="#234875" width="21" height="11"/>
	<rect x="148.667" y="28.667" display="inline" fill="#234875" width="11" height="21"/>
	<rect x="137.667" y="28.667" display="inline" fill="#234875" width="11" height="21"/>
	<rect x="250.667" y="63.667" display="inline" fill="#234875" width="21" height="11"/>
	<rect x="250.667" y="74.667" display="inline" fill="#234875" width="21" height="11"/>
</g>
</svg>
