<?xml version="1.0" encoding="UTF-8" standalone="no"?>
<!-- Created with Inkscape (http://www.inkscape.org/) -->

<svg
   xmlns:dc="http://purl.org/dc/elements/1.1/"
   xmlns:cc="http://creativecommons.org/ns#"
   xmlns:rdf="http://www.w3.org/1999/02/22-rdf-syntax-ns#"
   xmlns:svg="http://www.w3.org/2000/svg"
   xmlns="http://www.w3.org/2000/svg"
   xmlns:sodipodi="http://sodipodi.sourceforge.net/DTD/sodipodi-0.dtd"
   xmlns:inkscape="http://www.inkscape.org/namespaces/inkscape"
   id="svg3204"
   version="1.1"
   inkscape:version="0.48.0 r9654"
   width="480"
   height="480"
   sodipodi:docname="close.png">
  <metadata
     id="metadata3210">
    <rdf:RDF>
      <cc:Work
         rdf:about="">
        <dc:format>image/svg+xml</dc:format>
        <dc:type
           rdf:resource="http://purl.org/dc/dcmitype/StillImage" />
        <dc:title></dc:title>
      </cc:Work>
    </rdf:RDF>
  </metadata>
  <defs
     id="defs3208" />
  <sodipodi:namedview
     pagecolor="#ffffff"
     bordercolor="#666666"
     borderopacity="1"
     objecttolerance="10"
     gridtolerance="10"
     guidetolerance="10"
     inkscape:pageopacity="0"
     inkscape:pageshadow="2"
     inkscape:window-width="1440"
     inkscape:window-height="869"
     id="namedview3206"
     showgrid="false"
     inkscape:zoom="0.5875"
     inkscape:cx="-34.893617"
     inkscape:cy="261.2766"
     inkscape:window-x="0"
     inkscape:window-y="1"
     inkscape:window-maximized="1"
     inkscape:current-layer="svg3204" />
  <path
     style="fill:#000000"
     d="m 361.33455,457.30535 c -1.191,-0.23226 -2.4336,-1.12108 -2.76134,-1.97516 -0.42944,-1.11909 -0.15087,-1.3821 0.99724,-0.94153 0.87622,0.33624 3.24382,0.62565 5.26134,0.64314 3.44223,0.0299 3.54863,0.12226 1.72708,1.5 -1.06762,0.80751 -2.19262,1.40692 -2.5,1.33202 -0.30738,-0.0749 -1.53332,-0.32621 -2.72432,-0.55847 z M 369,456.10433 c 0,-1.50956 1.99552,-2.4066 2.0318,-0.91335 0.0211,0.86946 0.47789,0.72138 1.36025,-0.44098 0.73064,-0.9625 1.81477,-1.75 2.40918,-1.75 0.5944,0 1.35844,-0.44933 1.69784,-0.9985 0.35601,-0.57603 -0.35946,-0.89336 -1.69098,-0.75 -1.75859,0.18934 -2.23265,-0.19203 -1.99121,-1.60185 0.19021,-1.1107 -0.10959,-1.58678 -0.75,-1.19099 -0.58678,0.36266 -1.06688,1.28659 -1.06688,2.05319 0,1.14323 -2.6048,1.33279 -14.48892,1.05439 -7.96891,-0.18667 -14.26829,0.0176 -13.99862,0.45392 0.26966,0.43633 -0.40526,0.55913 -1.49983,0.27289 -1.09458,-0.28624 -1.74364,-0.91927 -1.44237,-1.40674 C 339.87154,450.39884 339.19148,450 338.05902,450 336.92656,450 336,450.46583 336,451.03518 c 0,0.67915 -0.60671,0.71049 -1.76403,0.0911 -1.17968,-0.63135 -2.80836,-0.50497 -4.91665,0.38149 -1.73394,0.72907 -3.35424,1.12396 -3.60067,0.87754 C 324.85524,451.5219 321,451.12265 321,451.89665 c 0,0.43 -1.4625,0.61363 -3.25,0.40807 -4.98615,-0.57341 -5.87243,-0.55649 -11.34072,0.21651 -3.28008,0.46367 -5.85873,0.3086 -7.25,-0.43599 -1.3586,-0.7271 -2.15928,-0.78093 -2.15928,-0.14517 0,0.66459 -0.85567,0.6851 -2.5,0.0599 -1.48075,-0.56298 -2.5,-0.57823 -2.5,-0.0374 0,0.50221 -0.96502,0.84041 -2.14449,0.75156 -1.3989,-0.10537 -2.62043,-1.30063 -3.51342,-3.43785 -1.35078,-3.23287 -4.14205,-4.80335 -2.93183,-1.64956 0.34334,0.89471 0.15956,2.18666 -0.4084,2.87101 -0.76009,0.91586 -0.5667,1.21232 0.73275,1.12325 0.97096,-0.0666 1.99039,0.2661 2.26539,0.73924 0.275,0.47314 -9.85,0.80702 -22.5,0.74195 -23.66629,-0.12173 -25.61907,-0.1265 -27.75,-0.0677 -1.17188,0.0323 -9.83431,-0.69878 -17.75,-1.49809 -1.925,-0.19438 -3.5,-0.43737 -3.5,-0.53996 0,-0.1026 -2.475,-0.3096 -5.5,-0.46 -5.2109,-0.25908 -9.14323,-0.90115 -13.38213,-2.18502 -1.50721,-0.4565 -1.60681,-0.74443 -0.5,-1.44542 1.11122,-0.70379 1.05545,-0.87837 -0.28454,-0.89068 -0.91666,-0.008 -1.90089,0.54719 -2.18718,1.23469 -0.37556,0.90191 -0.92898,0.74601 -1.98733,-0.55984 -0.84848,-1.04691 -1.72477,-1.39247 -2.07873,-0.81974 -0.33656,0.54455 -3.86726,1.04767 -7.846,1.11805 -7.34859,0.12997 -11.09392,0.14094 -34.23409,0.10023 -7.15,-0.0126 -18.625,0.12926 -25.5,0.31518 -6.875,0.18593 -13.22478,-0.0362 -14.11063,-0.49351 -0.88585,-0.45736 -6.06085,-1.03423 -11.500002,-1.28193 C 89.950215,445.38074 85.275,445.08472 85,444.97062 c -0.275,-0.11411 -0.773269,-0.17558 -1.107264,-0.13662 -0.333995,0.039 -0.488578,-1.01036 -0.343518,-2.33182 0.217614,-1.98242 -1.412554,-3.67947 -9.320021,-9.70242 -11.840363,-9.01856 -14.633953,-11.795 -13.25516,-13.1738 C 62.446626,418.15337 62.23842,417 60.5,417 c -0.825,0 -2.430111,-0.93011 -3.566912,-2.06691 -1.659563,-1.65957 -1.828768,-2.35386 -0.858557,-3.52289 1.003956,-1.2097 0.888408,-1.33586 -0.683087,-0.74586 -1.70028,0.63835 -1.746341,0.53189 -0.455746,-1.05332 1.172954,-1.44073 1.19526,-1.91205 0.121885,-2.57543 -0.722598,-0.44659 -0.992421,-1.33201 -0.599608,-1.96759 0.392812,-0.63559 0.185207,-1.79301 -0.461346,-2.57206 -0.84733,-1.02097 -0.905215,-2.68398 -0.207319,-5.9562 C 54.387363,393.73566 54.399002,392 53.819755,392 53.303971,392 53.160081,391.55 53.5,391 c 0.339919,-0.55 0.155599,-1 -0.409598,-1 -0.565198,0 -0.740283,-0.74882 -0.389078,-1.66404 0.359048,-0.93567 0.225296,-1.40864 -0.305568,-1.08055 -0.876256,0.54156 -0.889455,-8.21088 -0.03507,-23.25541 0.171791,-3.025 -0.163373,-6.98708 -0.744809,-8.80462 -0.747939,-2.33802 -0.743711,-3.50802 0.01445,-4 1.567611,-1.01724 2.308009,-6.22736 1.272135,-8.95191 -0.583037,-1.53351 -0.547883,-2.14236 0.100557,-1.7416 C 53.55136,340.84076 54,340.83433 54,340.48759 c 0,-0.73717 -2.793677,-3.65457 -3.214286,-3.35664 -0.157143,0.11131 -0.94101,-0.0161 -1.741927,-0.28302 -1.137002,-0.379 -1.465811,-2.60734 -1.5,-10.16549 -0.02408,-5.32405 -0.430071,-9.68062 -0.902195,-9.68127 -0.472124,-6.4e-4 -0.611085,-1.01367 -0.308801,-2.25117 0.302284,-1.2375 -0.03643,-3.03803 -0.752695,-4.00118 C 44.243491,308.95152 44.587658,304 46.049189,304 c 0.44882,0 1.101685,0.9 1.450811,2 0.604767,1.90545 2.473954,2.83134 2.523498,1.25 0.682075,-21.77021 0.572388,-35.38172 -0.289413,-35.91434 -0.582818,-0.36021 -0.747092,-0.16572 -0.372282,0.44073 0.368952,0.59698 0.291638,1.31976 -0.171808,1.60619 -0.463445,0.28642 -0.758726,2.00502 -0.656178,3.81909 0.222209,3.93088 -0.469827,5.5199 -1.604444,3.68405 -0.451345,-0.73029 -1.149744,-0.99868 -1.551999,-0.59643 -0.402255,0.40226 0.07857,1.32362 1.068504,2.04748 1.660823,1.21442 1.680455,1.54197 0.254111,4.23966 -1.128591,2.13455 -1.688697,2.51875 -2.075369,1.42357 -1.475846,-4.18006 -0.970947,-9 0.942768,-9 1.166822,0 1.387939,-0.57502 0.865218,-2.25 -0.386192,-1.2375 -1.156877,-2.54195 -1.712631,-2.89878 -0.623396,-0.40026 -0.700885,-1.9325 -0.202288,-4 0.806562,-3.34454 1.031233,-7.71948 1.995168,-38.85122 0.629752,-20.33879 0.622535,-21.79688 -0.125596,-25.37511 -0.386754,-1.84979 -0.234028,-2.64822 0.428263,-2.2389 0.702906,0.43442 0.713867,-0.50653 0.03456,-2.96678 -0.547156,-1.98164 -0.697707,-5.36163 -0.334557,-7.51109 0.493183,-2.91913 0.321704,-3.91617 -0.677626,-3.93992 -0.921433,-0.0219 -0.793153,-0.44533 0.412102,-1.36025 0.9625,-0.73064 1.756891,-1.95383 1.765313,-2.71819 0.01279,-1.16092 0.156871,-1.16635 0.875,-0.033 0.604418,0.9539 1.064346,1.02562 1.548932,0.24154 0.379084,-0.61337 -0.127166,-1.44891 -1.125,-1.85676 C 47.472212,182.48864 46.482642,179 48.111111,179 c 1.361061,0 1.056361,-2.77268 -0.361111,-3.28601 -0.984117,-0.3564 -0.962086,-0.93828 0.103577,-2.73562 1.17562,-1.9828 1.135462,-2.405 -0.305452,-3.21138 -1.24914,-0.69905 -1.386266,-1.25709 -0.555018,-2.25868 0.762703,-0.91901 0.779846,-1.5306 0.05545,-1.9783 -1.807631,-1.11718 -1.232621,-3.53787 0.667211,-2.80884 1.292988,0.49617 1.15564,0.0572 -0.557399,-1.78138 L 44.885203,158.5 l 2.307399,-0.65032 c 1.269069,-0.35768 1.725462,-0.69518 1.014208,-0.75 -0.982731,-0.0757 -1.264517,-2.80049 -1.173755,-11.34968 0.06569,-6.1875 -0.317959,-15.975 -0.852552,-21.75 -0.534594,-5.775 -0.746346,-11.85 -0.470561,-13.5 0.275785,-1.65 0.632992,-8.34509 0.793792,-14.877974 0.200322,-8.138514 0.685159,-12.120734 1.540033,-12.649075 0.686217,-0.424106 0.99226,-1.436683 0.680095,-2.250171 -0.312165,-0.813489 -0.06274,-1.983905 0.554283,-2.600925 C 49.983863,77.416137 50.01912,77 49.373193,77 c -0.572076,0 -0.831813,-1.328578 -0.586501,-3 0.242169,-1.65 0.86579,-3 1.385824,-3 0.520035,0 0.667403,-0.45 0.327484,-1 -0.339919,-0.55 -0.153032,-1 0.415303,-1 2.347831,0 7.085473,-14.486316 4.974992,-15.212064 -1.732209,-0.595669 5.197111,-12.4726 9.918692,-17.000749 2.702773,-2.592048 4.413931,-4.89374 3.802573,-5.114873 -1.437881,-0.520092 -4.351788,1.005874 -7.506362,3.93096 -1.379888,1.279504 -2.755557,2.078465 -3.057042,1.775469 C 58.74667,37.075747 59.4,36.0571 60.5,35.115084 c 2.31101,-1.979098 4.29843,-4.836698 5.159735,-7.418894 0.890013,-2.66826 5.602719,-1.863475 6.300719,1.075968 0.510597,2.150247 0.661165,2.186816 2.806276,0.681578 1.246701,-0.874819 1.964672,-2.079319 1.595491,-2.676667 -0.409545,-0.662657 -0.204056,-0.797351 0.527075,-0.345488 0.659073,0.40733 1.741102,0.313908 2.404509,-0.207604 2.266642,-1.78183 6.716727,-2.360105 7.260345,-0.94346 0.510352,1.329956 2.716697,1.380268 9.44585,0.215393 5.62197,-0.973211 13.34753,-0.548717 14.19155,0.779779 0.58997,0.92863 0.78152,0.896244 0.79314,-0.134097 0.0106,-0.938804 0.76861,-1.169341 2.45402,-0.74633 1.3413,0.336643 2.67989,0.221859 2.97465,-0.255075 1.11834,-1.809509 25.45174,-1.917754 40.08664,-0.178323 15.08452,1.792871 19.40421,2.002139 20.04155,0.970914 0.35602,-0.576062 1.31526,-0.544596 2.48517,0.08152 1.93099,1.033432 9.54993,1.924253 18.24531,2.133276 2.62462,0.06309 4.97638,0.445348 5.22614,0.849458 0.57341,0.927805 5.34987,0.05785 6.06875,-1.105321 0.29556,-0.478215 1.63891,-0.14773 2.98523,0.734412 1.34632,0.882142 2.44782,1.21464 2.44779,0.738885 -7e-5,-0.991871 10.97372,-1.117357 12.54945,-0.143503 0.57361,0.354508 3.6841,0.473706 6.9122,0.264884 3.22811,-0.208822 6.69484,0.06214 7.70385,0.60215 1.04988,0.561876 1.83456,0.59252 1.83456,0.07164 0,-0.810676 2.7071,-1.306525 6.25,-1.144786 5.28801,0.241405 16.71163,0.970815 24,1.532424 6.63522,0.51128 8.75,0.376119 8.75,-0.559238 0,-0.852837 0.38574,-0.925237 1.25,-0.234613 0.71207,0.569003 2.11069,0.651944 3.25,0.19273 2.87269,-1.157881 3.18563,-1.118214 4.92857,0.624728 0.86429,0.864285 1.57143,1.179751 1.57143,0.701034 0,-1.143684 9.09458,-1.033555 10.90451,0.132045 0.97005,0.624717 1.18379,0.547384 0.69098,-0.25 C 304.17039,30.466682 304.52485,30 305.47237,30 c 0.87472,0 1.8639,0.712731 2.19818,1.583846 0.49092,1.279329 0.7768,1.327395 1.48691,0.25 0.69833,-1.059523 1.10506,-0.949261 1.97767,0.536131 0.88053,1.498873 1.26554,1.599759 1.94006,0.50836 0.6702,-1.084406 1.09431,-1.108832 2.08317,-0.119978 1.7629,1.762899 2.84164,1.538281 2.84164,-0.591692 0,-1.008334 0.675,-1.833334 1.5,-1.833334 0.825,0 1.5,0.326855 1.5,0.726345 0,0.399489 0.65208,0.976572 1.44907,1.282406 0.95944,0.36817 1.26466,0.07549 0.9033,-0.866195 -0.41814,-1.08967 0.35376,-1.39229 3.30093,-1.294106 2.11569,0.07048 4.17731,0.620915 4.58139,1.223184 0.50559,0.753567 0.73946,0.705244 0.75,-0.154967 0.0199,-1.623111 2.67453,-1.623111 3.43198,0 0.46666,1 0.7,1 1.16666,0 C 337.39267,29.515714 339,29.681989 339,31.5 c 0,1.666878 1.55977,2.021328 2.46309,0.559725 0.35713,-0.577848 1.77033,-0.525712 3.6664,0.135261 2.33888,0.815335 3.27103,0.774997 3.85305,-0.166738 0.4533,-0.733444 1.61364,-0.973804 2.8329,-0.586824 1.13583,0.360497 4.54685,0.819634 7.58004,1.020304 3.0332,0.20067 5.94664,0.631677 6.4743,0.957794 0.52767,0.326117 1.14965,0.02763 1.38219,-0.663291 0.32397,-0.962611 0.85626,-0.905634 2.27737,0.243769 1.06848,0.864199 1.53626,0.970166 1.1036,0.25 -1.32069,-2.198287 1.18955,-1.336868 2.91407,1 1.11208,1.506956 1.81881,1.837198 2.14004,1 0.26379,-0.6875 1.45462,-1.243109 2.64628,-1.234687 1.76549,0.01248 1.88893,0.1948 0.66667,0.984687 -1.04886,0.677823 -1.11461,0.97398 -0.21862,0.984687 0.70477,0.0084 1.52951,-0.631273 1.83276,-1.421545 0.60542,-1.577682 2.90571,-1.098228 5.53658,1.154 1.11338,0.953134 1.86501,1.066416 2.30902,0.348001 0.95308,-1.54212 5.0944,-1.307299 6.48451,0.367684 0.65403,0.788055 1.94744,1.375706 2.87425,1.305892 2.62776,-0.197944 11.02006,4.365952 12.67623,6.893579 1.32882,2.028046 1.32175,2.371022 -0.0649,3.147018 -1.3846,0.774862 -1.36319,1.028058 0.19418,2.295798 1.54676,1.259102 1.67781,1.230904 1.12633,-0.242355 -0.9924,-2.651189 2.05918,-3.046935 4.31873,-0.560078 1.11305,1.225026 2.79035,3.046876 3.72732,4.048557 0.93697,1.001681 1.72899,2.126681 1.76004,2.5 0.20232,2.432508 1.8393,7.88336 2.68146,8.928762 0.55383,0.6875 0.65712,1.25 0.22954,1.25 -0.42759,0 -0.0786,0.7875 0.77555,1.75 3.62322,4.082869 9.79873,22.216176 10.47227,30.75 0.31833,4.03322 0.17447,4.64988 -0.74401,3.18926 -0.62625,-0.9959 -0.88113,-2.481777 -0.56641,-3.301936 0.31473,-0.82016 0.18359,-1.251007 -0.29141,-0.957438 -0.47501,0.293568 -1.15464,-1.37056 -1.5103,-3.698062 -0.83263,-5.448849 -4.80597,-14.795062 -6.10315,-14.356026 -1.29277,0.437542 -0.84055,11.010685 0.4899,11.454168 0.55555,0.185185 1.0101,0.775758 1.0101,1.312384 0,0.536626 -0.46804,0.686421 -1.04008,0.332878 -1.27496,-0.787964 -0.46221,2.896338 2.28693,10.367052 1.59602,4.33714 1.89885,7.25345 1.60953,15.5 -0.23048,6.56937 0.005,10.09599 0.66786,9.98297 0.56333,-0.0961 1.02688,1.70389 1.03012,4 0.003,2.29611 0.3911,5.46202 0.86193,7.03536 0.80205,2.68017 0.70554,2.81796 -1.53012,2.18449 -1.65978,-0.47029 -1.96665,-0.38579 -1.00805,0.27759 0.75796,0.52454 1.10988,1.38772 0.78203,1.91817 -0.32784,0.53046 -0.19412,4.51828 0.29715,8.86181 0.54396,4.80941 0.53143,8.02767 -0.032,8.23066 -0.50889,0.18334 -0.92526,1.67239 -0.92526,3.30902 0,1.83014 -0.40562,2.725 -1.05364,2.3245 -0.69665,-0.43056 -0.97385,1.09752 -0.81814,4.51005 0.20258,4.43961 0.48971,5.09477 2.05364,4.68579 1.3566,-0.35476 1.7981,0.072 1.73919,1.68093 -0.0434,1.18601 -0.30592,1.59388 -0.58333,0.90638 -0.27741,-0.6875 -1.14189,-1.25 -1.92105,-1.25 -1.95655,0 -2.08839,-4.49945 2.05111,70 0.81589,14.68372 1.25817,20.09841 2.06247,25.25 0.4754,3.04498 0.37572,4.75 -0.27769,4.75 -1.46711,0 -2.38328,4.30118 -1.08685,5.10242 0.60814,0.37585 0.73881,1.24306 0.2954,1.96051 -0.85782,1.38798 -0.78966,9.72206 0.16028,19.59842 0.45823,4.76411 0.99729,6.26718 2.3771,6.62801 2.12543,0.55581 3.98857,8.88162 2.12643,9.50233 -0.65395,0.21799 -0.86856,1.38155 -0.51479,2.79107 0.35189,1.40207 0.16751,2.41724 -0.43904,2.41724 -0.57515,0 -1.02097,1.79383 -0.99072,3.98628 0.0303,2.19245 0.45206,3.74089 0.93732,3.44098 1.52859,-0.94472 0.9562,2.83362 -0.70782,4.67234 -1.60066,1.7687 -1.11148,6.45205 0.56565,5.41553 0.45735,-0.28266 0.98745,1.69349 1.17801,4.39144 0.19056,2.69794 0.0401,4.71533 -0.33443,4.48308 -0.3745,-0.23225 -0.96356,0.0351 -1.30902,0.59404 -0.34546,0.55897 -0.0391,1.0232 0.6809,1.03162 0.8429,0.01 0.93588,0.27693 0.26114,0.75 -0.57634,0.40408 -1.14599,2.19719 -1.26589,3.98469 -0.17869,2.66396 0.1455,3.25 1.79789,3.25 1.12523,0 2.01588,0.66273 2.01588,1.5 0,1.80819 -1.16679,1.93321 -2.8,0.3 -0.93333,-0.93333 -1.2,-0.63102 -1.2,1.36043 0,1.40823 -0.28617,4.64823 -0.63592,7.2 -0.43446,3.16971 -0.27606,4.63957 0.5,4.63957 0.62475,0 1.13592,-0.87344 1.13592,-1.94098 0,-2.35577 1.58762,-3.53529 2.58541,-1.92082 0.45192,0.73122 0.29014,0.90292 -0.4309,0.45729 -1.4302,-0.88391 -1.47028,-0.054 -0.11933,2.47025 0.84317,1.57548 0.70406,1.9371 -0.75,1.94957 -1.51835,0.013 -1.56098,0.1602 -0.28518,0.98469 0.87864,0.56782 1.01194,0.97572 0.3218,0.98469 -1.60847,0.0209 -1.4206,16.59626 0.22403,19.76629 1.08071,2.08307 0.93719,2.67509 -1.15596,4.76824 -2.39952,2.39952 -2.57826,2.87144 -2.8334,7.48078 -0.16923,3.05735 -2.51862,11.3122 -3.41529,12 -0.35852,0.275 -1.27501,2.3 -2.03666,4.5 -0.76164,2.2 -2.44674,5.07386 -3.74466,6.38636 -1.29792,1.3125 -2.35986,3.225 -2.35986,4.25 0,1.025 -0.36895,1.86364 -0.81989,1.86364 -0.77303,0 -2.62757,1.53592 -10.45571,8.65938 -3.37503,3.0712 -7.36424,4.73239 -8.18302,3.40757 -0.80573,-1.3037 -17.25401,-0.55034 -18.9637,0.86858 -1.30645,1.08426 -1.58315,1.07341 -1.60948,-0.0631 -0.0244,-1.05152 -0.31666,-1.00117 -1.25,0.21533 -0.67001,0.87327 -1.83274,1.38093 -2.58385,1.12812 -0.75111,-0.25281 -1.65111,-0.0197 -2,0.51798 -0.89535,1.37988 -8.13436,2.5995 -8.13436,1.37047 z m -93,-5.96566 c 0,-0.47373 1.07225,-0.65635 2.38278,-0.40583 1.31053,0.25053 2.64074,0.0381 2.95601,-0.472 0.31528,-0.51013 -0.84447,-0.92751 -2.57722,-0.92751 -1.73275,0 -3.32546,-0.525 -3.53935,-1.16666 -0.55031,-1.65095 -2.89983,-1.44918 -3.5737,0.30688 -0.31189,0.81277 0.20067,1.92021 1.14301,2.46959 2.13392,1.24408 3.20847,1.30956 3.20847,0.19553 z m -21.5,-1.43651 c 0,-0.42631 0.675,-1.2018 1.5,-1.72332 1.04779,-0.66235 -0.23347,-0.95283 -4.25,-0.96353 -4.75899,-0.0127 -5.76999,-0.31692 -5.866,-1.76531 -0.10754,-1.62236 -0.14994,-1.61933 -0.58133,0.0416 -0.28842,1.11046 -1.09972,1.60734 -2.134,1.30697 -3.80524,-1.1051 -9.304,-0.9976 -10.04189,0.19632 -0.61128,0.98907 -2.86133,1.02052 -10.67558,0.14917 -5.44559,-0.60721 -10.21875,-1.30037 -10.60704,-1.54034 -1.20593,-0.74531 -2.12788,1.71259 -1.04759,2.79288 0.56227,0.56227 7.47556,1.25387 15.36287,1.5369 7.88731,0.28302 14.53032,0.68604 14.76226,0.89559 0.79721,0.72028 13.5783,-0.1522 13.5783,-0.9269 z m 15.21402,-0.0601 c -0.29002,-0.87005 -2.58494,-1.0336 -9.96402,-0.71008 -1.67234,0.0733 -1.89849,0.32133 -0.88086,0.96598 1.8676,1.18311 11.25075,0.9617 10.84488,-0.2559 z m 60.67899,-0.22385 C 331.24719,446.19225 331.18089,446 329.55902,446 c -1.76659,0 -2.89606,1.64564 -2.05902,3 0.91226,1.47607 2.20294,1.21651 2.89301,-0.58179 z M 293.36163,447.5 c -0.31659,-0.825 -0.75246,-1.5 -0.96862,-1.5 -0.21615,0 -0.39301,0.675 -0.39301,1.5 0,0.825 0.43588,1.5 0.96862,1.5 0.53273,0 0.70959,-0.675 0.39301,-1.5 z m 50.39267,-0.2629 c 0.21555,-0.64666 -0.47143,-0.86233 -1.71278,-0.53771 -2.90158,0.75878 -3.64997,2.38092 -0.9052,1.96204 1.24194,-0.18954 2.42003,-0.83049 2.61798,-1.42433 z m 10.75433,0.77686 c -0.64943,-1.0508 -3.99592,-0.86 -5.14953,0.2936 -0.38084,0.38084 0.75912,0.69244 2.53325,0.69244 1.86536,0 2.96869,-0.41583 2.61628,-0.98604 z m 48.90958,0.37905 C 405.0521,447.76603 405.62251,446 404.19113,446 c -0.44488,0 -1.68238,0.66069 -2.75,1.4682 -1.9817,1.49888 -0.87182,2.01804 1.97708,0.92481 z M 209,446.2128 c 0,-0.43295 -0.9,-0.85499 -2,-0.93785 -1.1,-0.0829 -2,0.27138 -2,0.7872 0,0.51582 0.9,0.93785 2,0.93785 1.1,0 2,-0.35424 2,-0.7872 z m 106,-1.77182 C 315,444.19844 314.55,444 314,444 c -0.55,0 -1,0.47656 -1,1.05902 0,0.58246 0.45,0.7809 1,0.44098 0.55,-0.33992 1,-0.81648 1,-1.05902 z M 329.45088,441 c 0.71733,0 1.86443,0.675 2.54912,1.5 1.52834,1.84154 3,1.94404 3,0.20895 0,-1.51532 9.64141,-1.76188 11.90451,-0.30444 0.97005,0.62471 1.18379,0.54738 0.69098,-0.25 -0.50936,-0.82416 1.0202,-1.15451 5.34549,-1.15451 3.76308,0 6.05902,0.41947 6.05902,1.10699 0,0.60884 -0.60331,0.87548 -1.34068,0.59252 -0.73738,-0.28296 -1.96674,-0.12755 -2.73191,0.34535 -2.36352,1.46074 29.1041,0.83992 32.65625,-0.64426 1.71741,-0.71758 5.77616,-1.58679 9.01945,-1.93159 3.90844,-0.4155 6.7399,-1.35175 8.39689,-2.77653 6.81317,-5.85833 10,-9.23741 10,-10.60327 0,-0.82768 1.61463,-3.15841 3.58806,-5.17939 2.71284,-2.7782 4.19277,-5.71559 6.06716,-12.04216 3.8586,-13.02388 4.21416,-15.65063 3.61685,-26.7201 -0.4437,-8.22285 -0.27201,-10.53079 0.83466,-11.21948 1.12812,-0.70205 1.15864,-1.24569 0.16035,-2.85664 -0.73183,-1.18099 -0.92128,-2.832 -0.46614,-4.06237 0.42173,-1.14003 0.47521,-5.54595 0.11885,-9.79093 -0.35636,-4.24498 -0.70747,-18.05568 -0.78025,-30.69046 -0.0728,-12.63477 -0.35479,-24.33477 -0.6267,-26 -0.2719,-1.66522 -0.1569,-6.40268 0.25557,-10.52768 0.41247,-4.125 0.44719,-10.2 0.0772,-13.5 -0.37002,-3.3 -0.92183,-10.5 -1.22623,-16 -0.3044,-5.5 -1.26359,-17.32261 -2.13153,-26.27247 -0.86794,-8.94985 -1.34109,-16.65592 -1.05144,-17.12458 0.28965,-0.46866 0.11413,-5.74605 -0.39004,-11.72753 -2.16928,-25.73636 -3.04941,-43.67585 -3.50127,-71.3655 -0.43727,-26.79618 -0.64401,-29.61045 -2.26315,-30.80776 -1.69303,-1.251943 -1.69462,-1.36715 -0.0319,-2.309605 0.9625,-0.545565 1.75,-2.10877 1.75,-3.473791 0,-5.808861 -6.77768,-21.429383 -12.67744,-29.217695 -1.37444,-1.814411 -2.24841,-3.951911 -1.94216,-4.75 C 404.68666,60.652981 404.43846,60 403.82886,60 c -1.74922,0 -3.76224,-3.250514 -3.79706,-6.131285 -0.0275,-2.279339 -0.6395,-2.784305 -4.57517,-3.775319 -2.49885,-0.629218 -4.29823,-1.540673 -3.99862,-2.025456 0.29961,-0.484782 -0.30246,-0.659873 -1.33793,-0.38909 -1.07111,0.280101 -2.68824,-0.327674 -3.75138,-1.409906 -2.25839,-2.298922 -7.67069,-2.814924 -9.27314,-0.884089 -1.1367,1.369642 -0.5606,1.759205 5.40444,3.654546 1.01544,0.322648 3.50033,2.551622 3.4996,3.13917 -2.3e-4,0.176786 -2.13773,0.429366 -4.75,0.56129 -2.61228,0.131923 -6.64814,0.490527 -8.96858,0.796897 -2.32043,0.306371 -6.11527,0.04642 -8.43297,-0.577675 -2.3177,-0.624091 -6.02534,-1.263729 -8.2392,-1.421417 -2.21386,-0.157688 -4.19495,-0.795976 -4.40243,-1.418416 -0.20748,-0.622441 -0.78373,-0.880485 -1.28056,-0.57343 -0.49682,0.307055 -5.3921,-0.0019 -10.8784,-0.68661 -7.45304,-0.93014 -10.08132,-1.638596 -10.39527,-2.802051 -0.3256,-1.206619 -0.4463,-1.149922 -0.53619,0.251858 -0.0638,0.994959 -0.45937,1.596804 -0.87904,1.337433 C 325.88667,46.811926 312.87601,45.959003 298.75,45.778969 291.1875,45.682586 285,45.332889 285,45.001864 c 0,-0.331025 0.48921,-1.091074 1.08713,-1.688996 0.78285,-0.782843 0.7396,-1.301922 -0.15451,-1.854509 -0.74236,-0.458809 -0.98794,-0.356881 -0.61071,0.253486 1.13639,1.83871 -2.85056,4.44456 -5.70432,3.728313 C 278.17792,45.078822 277,44.381968 277,43.891592 277,43.401216 276.52344,43 275.94098,43 c -0.58246,0 -0.80873,0.404965 -0.50283,0.899921 0.3059,0.494957 -1.19628,0.832457 -3.33817,0.75 -2.14189,-0.08246 -3.75529,-0.380261 -3.58532,-0.661787 0.16996,-0.281527 -2.42671,-0.601985 -5.77039,-0.712129 -3.34369,-0.110144 -6.39783,-0.71546 -6.787,-1.345146 -0.44681,-0.722949 -1.5828,-0.856632 -3.08242,-0.362738 -2.62789,0.865485 -19.58588,0.858114 -23.73693,-0.01032 -2.15116,-0.450038 -13.54716,-1.552276 -18.88792,-1.826868 -0.6875,-0.03535 -1.25123,-0.326768 -1.25274,-0.647602 -0.002,-0.320833 -2.80658,-0.727937 -6.2335,-0.904676 -3.42692,-0.176738 -6.68818,-0.688851 -7.24726,-1.138029 -2.37349,-1.906933 -9.95268,-2.242502 -42.5165,-1.882422 -4.125,0.04561 -11.325,-0.17092 -16,-0.481183 -10.06782,-0.668165 -32.94555,0.733207 -38,2.327685 -0.275,0.08675 0.85,0.800783 2.5,1.586736 l 3,1.429007 -3,-0.260226 c -1.65,-0.143124 -3.516101,-0.921379 -4.14689,-1.729456 -0.993761,-1.273065 -1.826373,-1.150979 -6.236015,0.914387 -3.932432,1.841852 -4.844959,2.677822 -4.01486,3.67803 0.825967,0.995229 0.418251,1.428018 -1.763984,1.872463 -5.412171,1.102268 -7.83706,2.154361 -7.598203,3.296651 0.296748,1.419148 -3.420358,3.523313 -4.760715,2.694927 C 72.4407,50.154334 72,50.603978 72,51.486438 72,52.368897 70.837646,54.253264 69.41699,55.673919 63.706844,61.384065 61.935116,68.094423 60.353911,90 c -0.683819,9.473451 -0.712481,39.36141 -0.04627,48.25 0.256669,3.42448 0.02987,5.75 -0.56078,5.75 -0.651312,0 -0.654115,0.42909 -0.0082,1.25 0.540971,0.6875 1.071948,6.17234 1.179948,12.18853 0.107999,6.0162 0.424008,11.30688 0.702242,11.75707 0.278233,0.45019 -0.197644,1.08849 -1.057504,1.41845 C 59.703522,170.94401 59,171.84083 59,172.60699 59,173.37314 58.4949,174 57.877555,174 c -0.825616,0 -0.82791,0.35489 -0.0087,1.34201 0.612573,0.7381 0.828548,1.62723 0.479944,1.97583 -0.348603,0.34861 -0.144849,1.22301 0.452788,1.94312 0.597636,0.7201 1.569423,6.01848 2.159526,11.77416 1.603209,15.63721 2.086236,19.15981 2.864593,20.89079 1.507245,3.35196 0.272453,64.17895 -1.473259,72.57409 -0.601569,2.89295 -1.38417,13.61296 -1.756517,24.06065 -0.177603,4.98336 -0.875128,10.09247 -1.550057,11.35359 -0.88687,1.65713 -1.243181,10.56687 -1.284986,32.13164 -0.05359,27.64268 0.109939,30.56051 2.22191,39.64641 3.930802,16.91067 5.359091,20.29179 11.181276,26.46888 7.862126,8.34138 18.140135,13.51836 28.417104,14.31354 4.355343,0.337 11.293803,1.00519 15.418803,1.48488 4.125,0.47968 12.3375,1.42556 18.25,2.10196 8.25854,0.94478 10.75,1.57207 10.75,2.70657 0,1.14147 0.313,1.21701 1.37853,0.33269 1.6664,-1.38299 16.56113,-1.24735 18.37147,0.16729 0.81466,0.6366 1.68534,0.63245 2.5,-0.0119 1.37211,-1.08529 5.26095,-0.98853 8,0.19904 0.9625,0.41731 1.7499,0.3731 1.74978,-0.0982 -1.2e-4,-0.47135 10.91238,-0.71036 24.25,-0.53114 23.69608,0.3184 38.46645,-0.7938 39.84983,-3.00068 0.32979,-0.5261 3.64472,-1.15182 7.36651,-1.39049 6.76661,-0.43392 6.76687,-0.43383 6.28906,2.06569 -0.3204,1.67606 -0.0293,2.49963 0.88349,2.49963 0.74873,0 1.41353,0.7875 1.47733,1.75 0.0919,1.38692 0.2027,1.4294 0.53389,0.20476 0.33881,-1.2528 1.68888,-1.46764 7.134,-1.13525 3.69386,0.2255 7.27861,0.86345 7.96611,1.41768 0.86876,0.70036 1.25,0.6323 1.25,-0.22315 0,-0.81581 0.8488,-1.01782 2.51716,-0.59909 1.38444,0.34747 8.24694,0.56977 15.25,0.49399 35.7174,-0.3865 36.20281,-0.36191 36.34884,1.84106 0.11048,1.66667 0.13778,1.66667 0.57333,0 0.25152,-0.9625 1.04422,-1.75 1.76155,-1.75 z m 17.44331,-59.45671 c -1.54177,-4.44712 -4.47629,-5.83529 -6.49615,-3.07297 -0.67878,0.92829 -2.43858,1.82001 -3.91066,1.98161 -2.48512,0.2728 -2.63909,0.0705 -2.15329,-2.82906 0.28777,-1.71758 0.83899,-4.39284 1.22493,-5.94502 0.86432,-3.4761 -0.90079,-7.05691 -4.22527,-8.57165 -1.34559,-0.61309 -2.17319,-1.55697 -1.83912,-2.09751 0.33407,-0.54054 -0.31556,-1.97348 -1.44361,-3.18431 C 326.92296,356.61356 326,355.25773 326,354.81144 326,354.36515 325.35564,354 324.56809,354 c -0.78754,0 -2.35756,-1.29997 -3.48892,-2.88881 -1.13135,-1.58885 -3.13723,-3.15993 -4.4575,-3.4913 -1.47766,-0.37086 -2.64798,-1.5886 -3.04429,-3.16759 -0.57547,-2.29288 -1.01507,-2.50611 -4.14214,-2.00913 -3.93841,0.62591 -4.87372,-0.56968 -4.76229,-6.08753 0.0525,-2.60129 -0.53442,-3.50463 -3.21523,-4.94834 -2.05402,-1.10617 -3.4776,-2.75671 -3.80967,-4.41704 C 296.90999,323.29993 286.28815,312 283.55735,312 281.02166,312 279,310.24086 279,308.03444 c 0,-0.86105 -4.84912,-6.50855 -10.77582,-12.55 -12.5336,-12.77626 -15.97836,-15.75792 -18.72418,-16.20696 -1.1,-0.17989 -2.69997,-1.24645 -3.5555,-2.37014 -2.28557,-3.002 -6.20085,-1.60181 -10.702,3.82728 -2.05837,2.48272 -6.1129,7.22371 -9.01005,10.53554 -2.89715,3.31183 -5.54371,7.19338 -5.88124,8.62567 -0.76714,3.25532 -4.1805,7.10417 -6.30036,7.10417 -1.7112,0 -8.65614,6.90812 -11.69813,11.63611 -1.01344,1.57514 -2.85739,3.68405 -4.09767,4.68647 -1.24028,1.00242 -2.2644,2.35242 -2.27583,3 -0.0114,0.64758 -4.31591,5.67742 -9.5655,11.17742 -5.24959,5.5 -12.21894,13.6 -15.48744,18 -3.26849,4.4 -6.38902,8.54351 -6.9345,9.20779 -0.54548,0.66429 -0.99178,1.70335 -0.99178,2.30902 0,0.60567 -0.38868,0.86101 -0.86373,0.56741 -0.47505,-0.2936 -2.65265,1.14235 -4.83911,3.19098 -9.00123,8.43383 -11.39746,10.28084 -12.47442,9.61525 -0.67761,-0.41879 -0.856,-0.25328 -0.44455,0.41245 0.40068,0.64832 -0.63257,1.7944 -2.47819,2.74881 -3.32797,1.72096 -5.31381,0.69024 -4.21035,-2.18533 0.61544,-1.60382 -2.27466,-4.67004 -4.56053,-4.83845 -2.6415,-0.1946 -4.08927,-1.46819 -3.47846,-3.05996 0.3818,-0.99493 -0.0939,-1.46797 -1.47628,-1.46797 -1.16135,0 -2.31294,-0.86121 -2.67438,-2 -0.34913,-1.1 -1.02465,-2 -1.50117,-2 -0.47651,0 -0.67641,-1.04767 -0.44421,-2.32815 0.34189,-1.88544 -0.003,-2.3133 -1.81622,-2.25 -1.59003,0.0555 -2.33096,-0.57358 -2.55795,-2.17185 -0.17575,-1.2375 -0.91734,-2.25 -1.64797,-2.25 -0.73063,0 -4.13176,-2.67581 -7.55806,-5.94624 -6.44269,-6.14958 -7.18882,-8.59887 -2.8106,-9.2262 1.25736,-0.18016 2.83716,-1.4369 3.51065,-2.79277 C 112.39807,337.56489 122.23905,327 123.74759,327 124.43642,327 125,326.6609 125,326.24644 c 0,-0.41446 5.9625,-6.88676 13.25,-14.38289 11.90993,-12.25089 13.43336,-14.22271 15.06301,-19.49644 0.99715,-3.22691 1.89715,-6.99328 2,-8.3697 0.10284,-1.37642 1.17647,-3.49091 2.38584,-4.69885 1.96748,-1.96516 2.25537,-2.0175 2.73601,-0.49741 0.29543,0.93437 0.34727,3.19253 0.1152,5.01814 -0.3792,2.98291 -0.2511,3.18863 1.26399,2.03005 2.75049,-2.10327 4.66526,-4.33481 4.99817,-5.82506 0.17173,-0.76869 1.29673,-2.21201 2.5,-3.20736 C 177.82047,269.77884 181,266.51659 181,264.82506 c 0,-1.0687 0.45,-1.66498 1,-1.32506 0.89934,0.55582 1.43315,-0.75673 1.11842,-2.75 -0.0651,-0.4125 0.33734,-0.75 0.89439,-0.75 2.02559,0 14.4282,-13.15506 19.06965,-20.22657 4.43129,-6.75134 4.64539,-7.36559 3.08939,-8.86367 -1.29991,-1.25153 -1.74272,-1.31478 -1.99043,-0.28433 -0.59061,2.45696 -2.80861,-0.79913 -2.4191,-3.55131 0.20037,-1.41577 -0.22668,-3.3305 -0.949,-4.25497 -1.74244,-2.23006 -5.23016,-2.76037 -5.38728,-0.81915 -0.0668,0.825 -0.18995,2.0625 -0.27373,2.75 -0.0892,0.73203 -1.59797,1.25 -3.64111,1.25 -3.10989,0 -3.46633,-0.27152 -3.28189,-2.5 0.1138,-1.375 0.55876,-2.5 0.9888,-2.5 0.43004,0 0.78189,-0.47656 0.78189,-1.05902 0,-0.58246 -0.36203,-0.83527 -0.80452,-0.5618 -0.44248,0.27348 -0.63723,-1.85285 -0.43277,-4.72515 0.30911,-4.34257 0.0132,-5.54686 -1.75654,-7.14844 -1.81549,-1.643 -2.26291,-1.71146 -3.04439,-0.46583 -0.50387,0.80313 -0.70179,2.15095 -0.43983,2.99515 0.69666,2.24508 -4.95523,5.39424 -7.266,4.04852 -0.97081,-0.56537 -1.19704,-1.03621 -0.50595,-1.05302 C 177.24594,212.99402 177.49464,206 176,206 c -0.55,0 -1,-1.52252 -1,-3.38337 0,-2.60747 -0.48675,-3.51066 -2.12254,-3.93842 -1.71089,-0.44741 -2.03689,-1.13857 -1.68094,-3.56382 0.24288,-1.65482 0.073,-2.78097 -0.37746,-2.50256 C 170.36858,192.89024 170,192.4422 170,191.61618 c 0,-2.62369 -4.08851,-8.54922 -6.80054,-9.85611 -1.43819,-0.69304 -2.8792,-2.38507 -3.20226,-3.76007 -0.32305,-1.375 -1.01708,-2.53886 -1.54228,-2.58637 C 156.2668,175.21573 154,173.69472 154,172.4244 c 0,-2.51049 -8.02289,-13.08571 -15.03467,-19.81768 -3.81973,-3.6673 -6.83705,-7.06551 -6.70515,-7.55158 0.37952,-1.39857 -7.28668,-10.15679 -8.3274,-9.5136 -0.51509,0.31835 -1.40925,-0.46077 -1.98703,-1.73137 -0.57777,-1.27059 -2.12537,-4.33517 -3.4391,-6.81017 -1.31373,-2.475 -2.41516,-5.0625 -2.44762,-5.75 C 116.02656,120.5625 115.325,120 114.5,120 c -0.825,0 -1.5,-0.47656 -1.5,-1.05902 0,-0.58246 -0.43729,-0.78875 -0.97175,-0.45844 -0.53447,0.33032 -2.03289,-0.0947 -3.32983,-0.94449 -1.29694,-0.84978 -2.65965,-1.24349 -3.02825,-0.87489 C 105.30158,117.03175 105,116.82586 105,116.20562 105,114.6977 109.04075,111 110.68856,111 c 0.72129,0 1.31144,0.45 1.31144,1 0,0.55 1.02798,1 2.28439,1 2.32807,0 5.71561,-4.32243 5.71561,-7.293 0,-0.90609 1.37013,-1.74146 3.51679,-2.14417 2.68112,-0.50298 4.39519,-1.83635 7.21345,-5.611293 C 132.76341,95.228192 134.75919,93 135.16532,93 c 0.40612,0 2.23603,-1.542052 4.06645,-3.426783 2.74709,-2.828586 4.18398,-3.483205 8.23127,-3.75 L 152.36627,85.5 156.22663,91 c 2.12321,3.025 4.41168,5.625444 5.08549,5.778765 0.67382,0.15332 1.80751,1.594467 2.51931,3.202548 0.71181,1.608077 2.16593,3.200457 3.23138,3.538627 1.06546,0.33816 1.93719,0.9999 1.93719,1.47052 0,0.47063 1.27212,2.12781 2.82692,3.68262 2.74921,2.7492 3.17308,3.43706 3.17308,5.14929 0,0.89656 7.67909,6.17763 8.98275,6.17763 1.00381,0 2.01725,2.55158 2.01725,5.07891 0,2.5716 6.75335,9.92109 9.11636,9.92109 1.036,0 1.88364,0.45 1.88364,1 0,0.55 0.93391,1 2.07537,1 1.68968,0 2.01926,0.53485 1.77347,2.87806 -0.41081,3.91645 6.24609,11.54397 9.24444,10.59233 2.575,-0.81727 4.87565,1.09465 4.38472,3.64384 -0.23212,1.20529 0.28642,2.23839 1.31984,2.62956 2.69009,1.01825 4.20216,2.93025 4.20216,5.31358 0,1.21013 1.4625,3.92433 3.25,6.03156 1.7875,2.10724 4.15,5.00594 5.25,6.44157 1.75393,2.28907 2.33611,2.48243 4.73177,1.57154 2.299,-0.87413 2.89308,-0.73727 3.75,0.8639 1.35393,2.52985 1.28419,3.28724 -0.23177,2.51689 -0.6875,-0.34936 -0.26098,0.2397 0.94783,1.30903 1.20881,1.06933 2.50836,3.24111 2.88789,4.82619 0.94419,3.9433 2.24923,5.37633 4.23739,4.65293 1.97322,-0.71797 9.17471,-7.42221 9.176,-8.54242 0.002,-1.66282 5.34275,-8.72856 6.59773,-8.72856 1.66858,0 6.52032,-7.00142 5.7337,-8.27418 -0.33555,-0.54295 0.29038,-0.66352 1.48168,-0.28542 1.13448,0.36007 3.08146,0.0708 4.32663,-0.64286 2.37487,-1.36112 10.86115,-9.43238 10.86115,-10.33 0,-0.58792 4.87383,-6.13386 9.75,-11.09454 1.88376,-1.91641 3.25,-4.33692 3.25,-5.75788 0,-1.34835 0.27314,-3.16335 0.60699,-4.03333 0.69319,-1.80644 5.39301,-2.1801 5.39301,-0.42878 0,1.72562 3.91218,-3.09247 6.21407,-7.65301 2.753,-5.4543 4.71141,-7.49875 7.19092,-7.50683 1.23963,-0.004 3.00114,-1.33798 4.31431,-3.26707 1.22061,-1.79314 4.02638,-5.02482 6.23505,-7.18153 l 4.01576,-3.92128 2.3294,2.18836 c 1.28116,1.20359 2.84053,2.18835 3.46525,2.18835 0.62472,0 1.49572,0.57869 1.93555,1.28597 0.43983,0.70729 2.09788,2.28229 3.68455,3.5 1.58667,1.21772 2.60831,2.21403 2.27031,2.21403 -0.33799,0 0.28263,1.4625 1.37916,3.25 1.09653,1.7875 2.26487,4.0375 2.59631,5 0.71096,2.06462 1.52189,2.19747 3.19584,0.52352 0.96863,-0.96863 1.8511,-0.49562 4.19765,2.25 3.47302,4.06367 3.75532,5.35864 0.97587,4.47648 -2.50688,-0.79565 -2.60271,0.89729 -0.1875,3.3125 0.99687,0.99687 1.64982,2.30053 1.451,2.89701 -0.19883,0.59648 0.96051,2.02587 2.57631,3.17642 2.67069,1.9017 4.29546,5.12995 4.58709,9.11407 0.15013,2.05106 -3.40645,6 -5.40387,6 -0.89558,0 -3.54358,1.89628 -5.88443,4.21397 -3.45362,3.41944 -4.43067,3.93794 -5.18203,2.75 -0.7819,-1.23622 -0.92833,-1.20264 -0.94126,0.21585 -0.008,0.92391 -4.29031,5.62646 -9.51531,10.45013 -5.225,4.82366 -9.5,9.57509 -9.5,10.55874 0,2.02964 -2.91643,5.81131 -4.48169,5.81131 -1.59412,0 -3.41259,3.48664 -4.11745,7.89459 -0.61352,3.83675 -3.40086,6.70747 -3.40086,3.5026 0,-1.36068 -0.17262,-1.36743 -1.48214,-0.0579 -0.81518,0.81517 -1.90643,1.63482 -2.425,1.82142 -0.51857,0.18661 -1.08911,1.01429 -1.26786,1.83929 -0.17875,0.825 -0.65114,1.74453 -1.04975,2.04341 -0.39861,0.29887 -0.91523,1.42387 -1.14804,2.5 -0.97062,4.48641 -1.93502,6.45659 -3.16051,6.45659 -0.71502,0 -1.45003,0.39052 -1.63337,0.86782 -0.56112,1.46084 -4.83333,2.41292 -4.83333,1.07712 0,-1.83889 -2.68772,0.73269 -6.26839,5.99754 -1.70479,2.50664 -3.36471,4.78252 -3.68871,5.05752 -1.16115,0.98553 -4.0429,5.95001 -4.0429,6.96482 0,0.56935 0.60526,1.03518 1.34501,1.03518 1.70458,0 4.97404,3.56617 5.29894,5.77982 0.13593,0.92613 0.72164,1.84204 1.30159,2.03536 0.57995,0.19332 1.05446,0.95866 1.05446,1.70077 0,0.7421 0.86289,1.62315 1.91754,1.95788 3.29873,1.04698 7.02046,4.52416 6.44564,6.02212 -0.59946,1.56216 4.98292,5.49399 7.80927,5.50031 1.02392,0.002 2.12154,1.36451 2.83059,3.51295 0.63698,1.93006 1.52072,3.28513 1.96386,3.01125 0.44315,-0.27388 1.06917,0.50947 1.39117,1.74079 0.32199,1.23131 0.65109,2.46375 0.73132,2.73875 0.33784,1.15794 10.93408,13.00726 17.44892,19.51236 4.71578,4.70873 8.42332,7.48489 11.23554,8.41301 3.83508,1.26569 8.77014,5.05375 6.63114,5.08994 -0.49775,0.008 -0.22999,0.49746 0.59501,1.08675 1.18892,0.84924 1.00351,0.96135 -0.89405,0.54064 -1.43888,-0.31902 -2.03084,-0.16759 -1.48369,0.37956 0.5007,0.5007 2.33439,1.01886 4.07486,1.15148 1.74048,0.13262 2.94408,0.59779 2.67468,1.0337 C 357.10239,306.64335 357.38508,307 358,307 c 0.61492,0 0.82774,0.46971 0.47293,1.0438 -0.35481,0.5741 -0.17094,1.61514 0.40859,2.31344 0.57953,0.6983 0.84224,2.43577 0.58379,3.86104 -0.38735,2.13608 0.74198,3.85986 6.42734,9.81051 3.79349,3.9705 7.35824,6.93418 7.92168,6.58596 0.56344,-0.34822 1.70357,0.046 2.53362,0.87606 0.83006,0.83005 1.87884,1.5231 2.33062,1.54011 1.0669,0.0402 6.87124,7.75939 8.91486,11.85592 1.90443,3.8175 1.47127,4.66917 -6.72207,13.21675 -2.95425,3.08198 -6.69518,7.46948 -8.31319,9.75 -1.618,2.28053 -3.3055,4.14641 -3.75,4.14641 -0.44449,0 -0.80817,0.65917 -0.80817,1.46482 0,2.00482 -3.78661,3.86726 -7.57329,3.72491 -2.78533,-0.10472 -3.27113,0.30883 -4.40746,3.75194 -1.08225,3.27926 -1.76939,3.92709 -4.50398,4.24634 -2.98555,0.34855 -3.33118,0.0759 -4.62108,-3.64472 z M 360,366 c 0,-0.55 -0.47656,-1 -1.05902,-1 -0.58246,0 -0.7809,0.45 -0.44098,1 0.33992,0.55 0.81648,1 1.05902,1 0.24254,0 0.44098,-0.45 0.44098,-1 z m -12,-3.39301 c 0,-0.21616 -0.69837,-0.661 -1.55194,-0.98855 -0.88992,-0.34149 -1.29132,-0.17385 -0.94098,0.39301 0.58726,0.95021 2.49292,1.40545 2.49292,0.59554 z m -2.0318,-5.47943 c -0.0267,-1.36732 -0.26656,-1.31719 -1.5,0.31357 -1.91098,2.52654 -1.89075,4.15444 0.0318,2.55887 0.825,-0.68469 1.48569,-1.97729 1.4682,-2.87244 z M 126,353.94098 c 0,-0.58246 -0.45,-0.7809 -1,-0.44098 -0.55,0.33992 -1,0.81648 -1,1.05902 0,0.24254 0.45,0.44098 1,0.44098 0.55,0 1,-0.47656 1,-1.05902 z m 212.46223,-1.00209 c -0.28945,-0.46835 -1.18428,-0.59904 -1.98851,-0.29043 -0.80423,0.30861 -1.22541,0.9443 -0.93595,1.41265 0.28945,0.46835 1.18428,0.59904 1.98851,0.29043 0.80423,-0.30861 1.22541,-0.9443 0.93595,-1.41265 z m -211.06854,-2.52245 c 0.37373,-0.97391 0.15024,-1.43108 -0.58051,-1.1875 -1.49484,0.49828 -2.31789,2.77106 -1.0035,2.77106 0.53699,0 1.24979,-0.7126 1.58401,-1.58356 z M 160,344.88197 c 0,-0.55 -0.45,-0.72189 -1,-0.38197 -0.55,0.33992 -1,1.06803 -1,1.61803 0,0.55 0.45,0.72189 1,0.38197 0.55,-0.33992 1,-1.06803 1,-1.61803 z M 121,343 c 0,-1.1 -0.45,-2 -1,-2 -0.55,0 -1,0.9 -1,2 0,1.1 0.45,2 1,2 0.55,0 1,-0.9 1,-2 z m 17,-1 c 0,-0.55 -0.45,-1 -1,-1 -0.55,0 -1,0.45 -1,1 0,0.55 0.45,1 1,1 0.55,0 1,-0.45 1,-1 z m 187.43524,-1.10478 C 324.56262,339.48329 323,339.85123 323,341.46862 c 0,0.89208 0.5866,1.24351 1.49426,0.89521 0.82184,-0.31537 1.24528,-0.97625 0.94098,-1.46861 z M 134,340.44098 C 134,340.19844 133.55,340 133,340 c -0.55,0 -1,0.47656 -1,1.05902 0,0.58246 0.45,0.7809 1,0.44098 0.55,-0.33992 1,-0.81648 1,-1.05902 z M 134,338 c 0,-0.55 -0.45,-1 -1,-1 -0.55,0 -1,0.45 -1,1 0,0.55 0.45,1 1,1 0.55,0 1,-0.45 1,-1 z m 5,0 c 0,-0.55 -0.45,-1 -1,-1 -0.55,0 -1,0.45 -1,1 0,0.55 0.45,1 1,1 0.55,0 1,-0.45 1,-1 z m 21.60417,-3.72917 c -0.3323,-0.33229 -0.56864,0.25834 -0.52522,1.3125 0.048,1.16495 0.28494,1.4019 0.60416,0.60417 0.28887,-0.72188 0.25335,-1.58438 -0.0789,-1.91667 z m 196,-1 c -0.33229,-0.33229 -0.56864,0.25834 -0.52522,1.3125 0.048,1.16495 0.28494,1.4019 0.60416,0.60417 0.28887,-0.72188 0.25335,-1.58438 -0.0789,-1.91667 z M 129,331.5 c 0,-0.825 -0.45,-1.5 -1,-1.5 -0.55,0 -1,0.675 -1,1.5 0,0.825 0.45,1.5 1,1.5 0.55,0 1,-0.675 1,-1.5 z m 40.5,0.5 c 0.33992,-0.55 0.029,-1.00689 -0.69098,-1.01531 -0.95119,-0.0111 -0.89899,-0.2803 0.19098,-0.98469 1.2819,-0.82843 1.24555,-0.9716 -0.25,-0.98469 -1.08844,-0.01 -1.75,0.74076 -1.75,1.98469 0,2.10908 1.45488,2.69104 2.5,1 z m 180.37188,-0.89966 c 0.75454,-0.47797 1.20454,-1.27733 1,-1.77635 -0.20453,-0.49903 -1.15938,-0.10107 -2.12188,0.88434 -1.83619,1.87991 -1.21604,2.37299 1.12188,0.89201 z M 163.36163,329.5 c -0.31659,-0.825 -0.75246,-1.5 -0.96862,-1.5 -0.21615,0 -0.39301,0.675 -0.39301,1.5 0,0.825 0.43588,1.5 0.96862,1.5 0.53273,0 0.70959,-0.675 0.39301,-1.5 z M 339,329.90383 c 0,-0.36881 0.92589,-0.91269 2.05754,-1.20863 1.7876,-0.46746 1.89298,-0.80156 0.80325,-2.54651 -0.96275,-1.5416 -1.67346,-1.78413 -3.05755,-1.04339 -1.52617,0.81678 -1.80324,0.55909 -1.80324,-1.67711 0,-2.03894 0.37475,-2.49836 1.64144,-2.01229 1.39496,0.5353 1.44485,0.393 0.33225,-0.9476 -0.72006,-0.86762 -2.02121,-1.95479 -2.89145,-2.41593 -1.32296,-0.70104 -1.61768,-0.0877 -1.79849,3.74279 -0.11894,2.51968 0.2573,5.15183 0.83609,5.84923 0.57878,0.6974 0.77887,1.71048 0.44464,2.25128 -0.33424,0.54081 0.30202,0.91476 1.41391,0.831 1.11188,-0.0838 2.02161,-0.45403 2.02161,-0.82284 z m 16.36383,-0.39809 c -0.31537,-0.82184 -0.98359,-1.24074 -1.48493,-0.9309 -1.04858,0.64806 -0.20682,2.42516 1.14873,2.42516 0.50028,0 0.65157,-0.67242 0.3362,-1.49426 z M 134.33474,324.78647 C 133.78065,323.81673 130,327.69136 130,329.22897 c 0,0.67593 1.06705,0.11343 2.37121,-1.25 1.30417,-1.36343 2.18775,-2.80006 1.96353,-3.1925 z M 348,329 c 0,-0.55 -0.675,-1 -1.5,-1 -0.825,0 -1.5,0.45 -1.5,1 0,0.55 0.675,1 1.5,1 0.825,0 1.5,-0.45 1.5,-1 z m -19.41026,-1.62675 c -0.34334,-0.89471 -0.0926,-2.26729 0.5571,-3.05019 0.92645,-1.11629 0.82228,-1.78251 -0.48274,-3.08753 -1.05822,-1.05822 -1.6641,-1.22199 -1.6641,-0.44982 0,0.66786 0.525,1.21429 1.16667,1.21429 3.04737,0 -1.30408,1.70237 -4.91667,1.92349 -2.43189,0.14885 -1.29853,3.07651 1.19098,3.07651 1.34254,0 2.7191,0.45 3.05902,1 0.99035,1.60243 1.77252,1.15257 1.08974,-0.62675 z M 167.5,326.42875 c 0.55,-0.0683 1.5625,-0.19266 2.25,-0.27644 1.57079,-0.1914 1.63713,-2.79502 0.0955,-3.7478 -0.67417,-0.41666 -0.88459,-0.27679 -0.50574,0.3362 0.82864,1.34077 -2.37675,2.62229 -3.57125,1.42779 -0.52943,-0.52943 -0.29865,-1.4955 0.56311,-2.35725 1.28024,-1.28025 1.24801,-1.59269 -0.26158,-2.53544 -1.53396,-0.95797 -1.7466,-0.53077 -1.94953,3.91663 -0.17755,3.8911 0.0597,4.81201 1.07586,4.17616 0.717,-0.44866 1.75364,-0.87159 2.30364,-0.93985 z M 317,323.18153 c 0,-0.38524 -0.88894,-1.25559 -1.97543,-1.93411 -1.8459,-1.15279 -1.90188,-1.07226 -0.85377,1.22809 0.98724,2.16677 2.8292,2.62643 2.8292,0.70602 z m -136,-5.24055 c 0,-0.58246 -0.45,-0.7809 -1,-0.44098 -0.55,0.33992 -1,0.81648 -1,1.05902 0,0.24254 0.45,0.44098 1,0.44098 0.55,0 1,-0.47656 1,-1.05902 z M 300,317 c 0,-0.55 -0.45,-1 -1,-1 -0.55,0 -1,0.45 -1,1 0,0.55 0.45,1 1,1 0.55,0 1,-0.45 1,-1 z m 43,-0.94098 c 0,-0.51754 -0.45,-1.2191 -1,-1.55902 -0.55,-0.33992 -1,0.0835 -1,0.94098 0,0.85746 0.45,1.55902 1,1.55902 0.55,0 1,-0.42344 1,-0.94098 z M 145.82216,314.28571 C 145.23528,313.57857 144.43521,313 144.04422,313 c -0.39099,0 -0.71089,0.57857 -0.71089,1.28571 0,0.70715 0.80007,1.28572 1.77794,1.28572 1.33531,0 1.51229,-0.32009 0.71089,-1.28572 z m 25.90491,-2.98721 c -1.04874,-1.04874 -1.69569,-1.1583 -2.18308,-0.36968 -0.39619,0.64106 -0.12584,1.00313 0.63168,0.84596 0.87277,-0.18109 1.22951,0.57764 1.04623,2.22522 -0.25098,2.25627 -0.16726,2.3191 0.85875,0.64446 0.88712,-1.44792 0.80945,-2.18293 -0.35358,-3.34596 z M 340,314.94098 c 0,-0.58246 -0.45,-0.7809 -1,-0.44098 -0.55,0.33992 -1,0.81648 -1,1.05902 0,0.24254 0.45,0.44098 1,0.44098 0.55,0 1,-0.47656 1,-1.05902 z m -48.07389,-6.53001 c -1.77075,-2.13363 -3.14566,-1.68972 -1.91112,0.61704 0.59695,1.1154 1.53463,1.75034 2.08374,1.41097 0.64392,-0.39797 0.58264,-1.11798 -0.17262,-2.02801 z M 328,308.88337 c 0,-1.04547 -0.319,-1.08193 -2.41821,-0.27638 -2.29608,0.88109 -1.94336,2.30032 0.41821,1.68276 1.1,-0.28766 2,-0.92053 2,-1.40638 z m 2.45729,-4.95247 c -0.31643,-0.51199 -2.01127,-0.8787 -3.76631,-0.8149 -2.10206,0.0764 -2.50848,0.28016 -1.19098,0.59707 1.1,0.26458 2.40954,0.86942 2.91008,1.34408 1.13363,1.075 2.83067,0.1414 2.04721,-1.12625 z M 335.5,303 c -0.33992,-0.55 -1.04148,-1 -1.55902,-1 -0.51754,0 -0.94098,0.45 -0.94098,1 0,0.55 0.70156,1 1.55902,1 0.85746,0 1.2809,-0.45 0.94098,-1 z M 324,301.05902 c 0,-0.51754 -0.45,-1.2191 -1,-1.55902 -0.55,-0.33992 -1,0.0835 -1,0.94098 0,0.85746 0.45,1.55902 1,1.55902 0.55,0 1,-0.42344 1,-0.94098 z M 203.1125,297.7125 C 202.29583,296.89583 202,297.00774 202,298.13333 c 0,1.98786 1.3447,3.33256 1.84167,1.84167 0.21083,-0.6325 -0.1173,-1.65063 -0.72917,-2.2625 z m 109.48266,-0.22991 C 312.16277,293.427 311,293.36122 311,297.39235 c 0,2.04913 0.41854,3.46701 0.93009,3.15085 0.51156,-0.31615 0.81084,-1.69343 0.66507,-3.06061 z m -30.60296,-3.75164 c 0.004,-0.42298 -1.2297,-0.47218 -2.7422,-0.10933 -3.37006,0.80849 -3.60652,0.9925 -2.84946,2.21745 0.66007,1.06802 5.57825,-0.78618 5.59166,-2.10812 z M 292,293.87756 c 0,-1.20559 -2.73844,-1.10978 -3.5,0.12244 -1.08086,1.74886 0.52195,3.22667 2.08903,1.92611 C 291.36506,295.28206 292,294.36021 292,293.87756 z M 173.98469,287.19098 C 173.97149,285.73371 173.8354,285.70731 173,287 c -1.2656,1.95837 -1.2656,3.28218 0,2.5 0.55,-0.33992 0.99311,-1.37898 0.98469,-2.30902 z m 24.01531,0.75 c 0,-0.58246 -0.45,-0.7809 -1,-0.44098 -0.55,0.33992 -1,0.81648 -1,1.05902 0,0.24254 0.45,0.44098 1,0.44098 0.55,0 1,-0.47656 1,-1.05902 z m 119.12409,-2.20765 c -0.98762,-0.98026 -1.10248,-0.8654 -0.5598,0.5598 0.37553,0.98622 0.93469,1.54122 1.24258,1.23333 0.30789,-0.30789 6.4e-4,-1.11479 -0.68278,-1.79313 z M 309,280 c 0,-0.55 -0.47656,-1 -1.05902,-1 -0.58246,0 -0.7809,0.45 -0.44098,1 0.33992,0.55 0.81648,1 1.05902,1 0.24254,0 0.44098,-0.45 0.44098,-1 z m -90.54271,-4.0691 C 217.60006,274.54386 217,274.80249 217,276.55902 c 0,0.85746 0.45734,1.27636 1.01631,0.9309 0.55897,-0.34546 0.75742,-1.04702 0.44098,-1.55902 z M 311.75,275.20622 C 310.7875,275.01214 310,274.43635 310,273.92668 310,273.417 309.55,273 309,273 c -1.44318,0 -1.23273,2.75215 0.25,3.26936 0.6875,0.23981 1.925,0.17811 2.75,-0.13712 1.23252,-0.47095 1.18794,-0.63607 -0.25,-0.92602 z M 295.36163,273.5 c -0.31659,-0.825 -1.31496,-1.48569 -2.21862,-1.4682 -1.39458,0.027 -1.3495,0.2538 0.29812,1.5 2.4262,1.83509 2.63556,1.83163 1.9205,-0.0318 z M 289,271 c 0,-0.55 -0.45,-1 -1,-1 -0.55,0 -1,0.45 -1,1 0,0.55 0.45,1 1,1 0.55,0 1,-0.45 1,-1 z m -88.26949,-2.60282 c -0.33155,-0.33156 -0.19269,-1.68156 0.30858,-3 0.58794,-1.54641 0.55385,-2.39718 -0.0961,-2.39718 -1.15295,0 -2.93179,4.12025 -2.26659,5.25 0.24288,0.4125 0.94005,0.75 1.54925,0.75 0.60921,0 0.83638,-0.27127 0.50483,-0.60282 z M 280.5,265 c -0.33992,-0.55 -0.81648,-1 -1.05902,-1 -0.24254,0 -0.44098,0.45 -0.44098,1 0,0.55 0.47656,1 1.05902,1 0.58246,0 0.7809,-0.45 0.44098,-1 z M 208,262.44098 c 0,-0.85746 -0.45734,-1.27636 -1.01631,-0.9309 -0.55897,0.34546 -0.75742,1.04702 -0.44098,1.55902 0.85723,1.38704 1.45729,1.12841 1.45729,-0.62812 z M 233.5,263 c -0.33992,-0.55 -0.81648,-1 -1.05902,-1 -0.24254,0 -0.44098,0.45 -0.44098,1 0,0.55 0.47656,1 1.05902,1 0.58246,0 0.7809,-0.45 0.44098,-1 z m 8.27106,-3.81318 c 0.24358,-0.73075 -0.21359,-0.95424 -1.1875,-0.58051 -0.87096,0.33422 -1.58356,1.04702 -1.58356,1.58401 0,1.31439 2.27278,0.49134 2.77106,-1.0035 z m 52.41644,-0.51718 c 0.7317,-0.73169 2.00134,-1.18169 2.82143,-1 0.82009,0.1817 1.04107,0.10536 0.49107,-0.16964 -0.55,-0.275 -1.35391,-0.3875 -1.78647,-0.25 -0.43257,0.1375 -1.21317,-0.425 -1.73469,-1.25 -0.8083,-1.27867 -0.95047,-1.24178 -0.96353,0.25 -0.008,0.9625 -0.46531,1.75 -1.01531,1.75 -0.55,0 -1,0.45 -1,1 0,1.40938 1.61516,1.24198 3.1875,-0.33036 z m -85.64892,-8.31568 c -0.47906,-2.55363 -0.28769,-3.89732 0.63871,-4.48469 0.94362,-0.59829 0.68795,-0.84303 -0.89211,-0.85396 C 207.06703,245.00689 205.5887,245.9 205,247 c -0.76724,1.4336 -0.76049,2 0.0238,2 0.60181,0 0.81609,0.45 0.47617,1 -0.33992,0.55 -0.14148,1 0.44098,1 0.58246,0 1.05902,0.675 1.05902,1.5 0,0.825 0.50008,1.5 1.11129,1.5 0.73693,0 0.88087,-1.22826 0.42729,-3.64604 z M 269,250.94098 c 0,-0.58246 -0.45,-0.7809 -1,-0.44098 -0.55,0.33992 -1,0.81648 -1,1.05902 0,0.24254 0.45,0.44098 1,0.44098 0.55,0 1,-0.47656 1,-1.05902 z M 256,234 c 0,-0.55 -0.45,-1 -1,-1 -0.55,0 -1,0.45 -1,1 0,0.55 0.45,1 1,1 0.55,0 1,-0.45 1,-1 z m 32,-16.5 c 0,-0.825 -0.47656,-1.5 -1.05902,-1.5 -0.58246,0 -0.80465,0.41157 -0.49377,0.91459 0.31089,0.50302 -5e-5,1.1425 -0.69098,1.42105 -0.75786,0.30554 -0.56198,0.53778 0.49377,0.58541 0.9625,0.0434 1.75,-0.59605 1.75,-1.42105 z m -60.72779,-9.56708 c -0.31952,-1.22184 -0.90708,-1.69805 -1.43891,-1.16622 -1.06115,1.06115 0.009,4.44862 1.1776,3.72656 0.44074,-0.27239 0.55832,-1.42454 0.26131,-2.56034 z M 237,200.49036 c 0,-1.06255 -2.93657,-1.09804 -3.34242,-0.0404 -0.34677,0.90366 0.10292,1.16392 1.41724,0.82022 C 236.13367,200.99329 237,200.64237 237,200.49036 z m 74.48992,-17.50667 c -0.34546,-0.55897 -1.04702,-0.75742 -1.55902,-0.44098 -1.38704,0.85723 -1.12841,1.45729 0.62812,1.45729 0.85746,0 1.27636,-0.45734 0.9309,-1.01631 z M 189.36163,180.5 c -0.31659,-0.825 -0.97746,-1.5 -1.46862,-1.5 -0.49115,0 -0.89301,0.675 -0.89301,1.5 0,0.825 0.66088,1.5 1.46862,1.5 0.89459,0 1.24363,-0.58629 0.89301,-1.5 z m 116.24254,-1.22917 c -0.33229,-0.33229 -0.56864,0.25834 -0.52522,1.3125 0.048,1.16495 0.28494,1.4019 0.60416,0.60417 0.28887,-0.72188 0.25335,-1.58438 -0.0789,-1.91667 z M 277.5,171 c 0.33992,-0.55 0.35207,-1.43035 0.027,-1.95633 -0.82258,-1.33094 -3.527,-0.13222 -3.527,1.56332 0,1.5989 2.57595,1.88815 3.5,0.39301 z m -97.37917,-16.71858 c -0.82734,-1.45389 -0.9526,-1.22985 -0.6813,1.21858 0.43218,3.90025 0.69303,4.37872 1.24374,2.28142 0.2482,-0.94522 -0.005,-2.52022 -0.56244,-3.5 z m 9.2408,2.21858 c 0.31658,-0.825 0.13972,-1.5 -0.39301,-1.5 -0.53274,0 -0.96862,0.675 -0.96862,1.5 0,0.825 0.17686,1.5 0.39301,1.5 0.21616,0 0.65203,-0.675 0.96862,-1.5 z m -18.75746,-11.22917 c -0.3323,-0.33229 -0.56864,0.25834 -0.52522,1.3125 0.048,1.16495 0.28494,1.4019 0.60416,0.60417 0.28887,-0.72188 0.25335,-1.58438 -0.0789,-1.91667 z M 318,146 c 0,-0.55 -0.47656,-1 -1.05902,-1 -0.58246,0 -0.7809,0.45 -0.44098,1 0.33992,0.55 0.81648,1 1.05902,1 0.24254,0 0.44098,-0.45 0.44098,-1 z m -124,-1.88337 c 0,-0.48585 -0.9,-1.11872 -2,-1.40638 -1.9657,-0.51404 -2.64434,0.31208 -1.33333,1.62308 0.97013,0.97014 3.33333,0.8165 3.33333,-0.2167 z m 127,-8.5 c 0,-0.21085 -0.9,-0.61872 -2,-0.90638 -1.1,-0.28766 -2,-0.11514 -2,0.38337 0,0.49851 0.9,0.90638 2,0.90638 1.1,0 2,-0.17252 2,-0.38337 z M 111,112.94098 c 0,-0.58246 -0.45,-0.7809 -1,-0.44098 -0.55,0.33992 -1,0.81648 -1,1.05902 0,0.24254 0.45,0.44098 1,0.44098 0.55,0 1,-0.47656 1,-1.05902 z M 151,93 c 0,-0.55 -0.45,-1 -1,-1 -0.55,0 -1,0.45 -1,1 0,0.55 0.45,1 1,1 0.55,0 1,-0.45 1,-1 z M 346,442.44098 C 346,442.19844 345.55,442 345,442 c -0.55,0 -1,0.47656 -1,1.05902 0,0.58246 0.45,0.7809 1,0.44098 0.55,-0.33992 1,-0.81648 1,-1.05902 z m -227.8125,-0.12409 c -0.72187,-0.28887 -1.58437,-0.25335 -1.91667,0.0789 -0.33229,0.33229 0.25834,0.56864 1.3125,0.52522 1.16495,-0.048 1.4019,-0.28494 0.60417,-0.60416 z M 134,441 c 0,-0.55 -0.47656,-1 -1.05902,-1 -0.58246,0 -0.7809,0.45 -0.44098,1 0.33992,0.55 0.81648,1 1.05902,1 0.24254,0 0.44098,-0.45 0.44098,-1 z m -5.87793,-2.675 c -1.17884,-2.02721 -1.46351,-1.37835 -0.49853,1.13634 0.34294,0.8937 0.83419,1.41426 1.09166,1.15679 0.25747,-0.25747 -0.009,-1.28938 -0.59313,-2.29313 z M 105.5,439 c 0.33992,-0.55 0.16803,-1 -0.38197,-1 -0.55,0 -1.27811,0.45 -1.61803,1 -0.33992,0.55 -0.16803,1 0.38197,1 0.55,0 1.27811,-0.45 1.61803,-1 z m 10.48126,-0.52258 c -0.77042,-0.9283 -2.0374,-1.27699 -3.24609,-0.89337 -1.09035,0.34607 -2.58879,0.7182 -3.32987,0.82697 -3.75236,0.55073 -2.08585,1.58898 2.55048,1.58898 4.62291,0 5.12995,-0.19178 4.02548,-1.52258 z m 7.34819,-0.0613 c -0.33428,-0.87111 -0.88265,-1.16359 -1.21861,-0.64994 -0.33596,0.51365 -1.28584,1.19085 -2.11084,1.5049 -0.8816,0.33559 -0.3792,0.60354 1.21862,0.64994 2.08574,0.0606 2.57713,-0.28975 2.11083,-1.5049 z M 434.66228,385.75 c -0.27741,-0.6875 -0.50439,-0.125 -0.50439,1.25 0,1.375 0.22698,1.9375 0.50439,1.25 0.27741,-0.6875 0.27741,-1.8125 0,-2.5 z m -0.0581,-4.47917 c -0.33229,-0.33229 -0.56864,0.25834 -0.52522,1.3125 0.048,1.16495 0.28494,1.4019 0.60416,0.60417 0.28887,-0.72188 0.25335,-1.58438 -0.0789,-1.91667 z m -5,-8 c -0.33229,-0.33229 -0.56864,0.25834 -0.52522,1.3125 0.048,1.16495 0.28494,1.4019 0.60416,0.60417 0.28887,-0.72188 0.25335,-1.58438 -0.0789,-1.91667 z M 51.725944,334.01191 c -0.08886,-1.1797 -0.516105,-1.62175 -1.050719,-1.08713 -0.495528,0.49552 -0.598612,1.39016 -0.229076,1.98809 1.006658,1.6288 1.447005,1.31881 1.279795,-0.90096 z m 7.236318,-42.07297 c 0.867928,1.40434 0.367188,-13.40607 -0.537948,-15.91091 -1.899006,-5.25525 -3.482362,13.78702 -1.660659,19.97197 0.650684,2.20917 0.773787,2.04133 1.058201,-1.44275 0.208399,-2.55289 0.610404,-3.47587 1.140406,-2.61831 z m -0.259232,-43.1753 c 0.249186,-4.63493 0.0446,-6.89675 -0.56626,-6.26023 -1.421495,1.48122 -1.899728,15.59288 -0.480328,14.17348 0.361043,-0.36104 0.832007,-3.92201 1.046588,-7.91325 z m -7.382929,-2.73468 c -0.740414,-0.81326 -2.219167,2.32534 -1.581615,3.35692 0.333585,0.53975 0.922406,0.11124 1.30849,-0.95226 0.386084,-1.06349 0.50899,-2.14559 0.273125,-2.40466 z m -0.145836,-3.2547 c -0.55,-0.55 -1.537253,-0.66795 -2.193895,-0.26213 -0.907076,0.56061 -0.879419,0.93223 0.115122,1.54689 1.705934,1.05432 3.38199,0.0185 2.078773,-1.28476 z m 0.6361,-5.44696 c -0.170701,-2.01999 -0.892492,-3.86403 -1.603981,-4.09787 -0.957609,-0.31474 -1.109126,0.3099 -0.583334,2.40482 0.390656,1.55649 0.710283,3.40054 0.710283,4.09787 0,0.69733 0.402165,1.26788 0.893699,1.26788 0.491534,0 0.754034,-1.65272 0.583333,-3.6727 z M 50.97434,221.98414 C 50.070034,221.42525 50.110144,221.1083 51.136847,220.7 52.087256,220.32204 51.970124,220.13399 50.75,220.07895 49.7875,220.03553 49,220.675 49,221.5 c 0,0.825 0.476558,1.5 1.059017,1.5 0.582459,0 0.780902,0.45 0.440983,1 -0.339919,0.55 -0.254532,1.5625 0.189748,2.25 0.554116,0.85746 0.914152,0.50044 1.146509,-1.13691 0.1863,-1.3128 -0.201563,-2.72083 -0.861917,-3.12895 z M 52,209.94098 c 0,-0.58246 -0.45,-0.7809 -1,-0.44098 -0.55,0.33992 -1,0.81648 -1,1.05902 0,0.24254 0.45,0.44098 1,0.44098 0.55,0 1,-0.47656 1,-1.05902 z m -0.75,-12.60326 c -0.6875,-0.27741 -1.8125,-0.27741 -2.5,0 -0.6875,0.27741 -0.125,0.50439 1.25,0.50439 1.375,0 1.9375,-0.22698 1.25,-0.50439 z M 424.67578,159.75 c -0.26803,-6.7375 -0.70388,-13.825 -0.96857,-15.75 -0.26468,-1.925 -0.53209,-4.5125 -0.59423,-5.75 -0.0621,-1.2375 -0.45828,-2.25 -0.88031,-2.25 -0.42204,0 -0.67767,1.6875 -0.56806,3.75 0.1096,2.0625 0.27692,8.025 0.37182,13.25 0.22227,12.23782 0.99972,19 2.18442,19 0.56493,0 0.74711,-4.90559 0.45493,-12.25 z M 55,166.10699 c 0,-0.49116 -0.675,-1.15203 -1.5,-1.46862 -1.524276,-0.58492 -2.047994,0.4803 -0.833333,1.69496 C 53.622364,167.28903 55,167.15539 55,166.10699 z M 54.84795,142.77771 C 54.91869,137.67497 55.052729,132.825 55.145817,132 c 0.370492,-3.2835 -0.196023,-7 -1.067027,-7 -0.506665,0 -0.876882,2.1375 -0.822704,4.75 0.05418,2.6125 -0.012,8.575 -0.147061,13.25 -0.299565,10.36911 -0.309522,10.24195 0.750642,9.58673 0.472817,-0.29222 0.917544,-4.70627 0.988283,-9.80902 z M 427.70573,141.75 c -0.23835,-1.2375 -0.43337,-0.225 -0.43337,2.25 0,2.475 0.19502,3.4875 0.43337,2.25 0.23836,-1.2375 0.23836,-3.2625 0,-4.5 z m -9.75157,-61.835646 c -0.61391,-1.147106 -1.36887,-1.832981 -1.67768,-1.524166 -0.30882,0.308814 0.008,1.247355 0.70346,2.085646 1.79782,2.166234 2.28407,1.885989 0.97422,-0.56148 z M 413.64865,68.58653 C 412.74189,67.20264 412,65.226766 412,64.195698 c 0,-1.749394 -4.67448,-4.854555 -5.72562,-3.803414 -0.25694,0.256941 0.85045,2.411289 2.46087,4.787441 1.61042,2.376151 3.24355,5.183023 3.62918,6.237492 0.51596,1.410867 0.99584,1.622508 1.81701,0.801347 0.82116,-0.821161 0.68045,-1.780408 -0.53279,-3.632034 z M 368.5,52 c -0.33992,-0.55 -0.81648,-1 -1.05902,-1 C 367.19844,51 367,51.45 367,52 c 0,0.55 0.47656,1 1.05902,1 0.58246,0 0.7809,-0.45 0.44098,-1 z m -2.96896,-1.949781 c -0.36808,-0.595563 -1.13619,-0.794252 -1.7069,-0.441531 -0.67187,0.415239 -0.56959,0.930597 0.29014,1.461939 1.60476,0.991797 2.33522,0.465691 1.41676,-1.020408 z m -16.17716,-6.946337 c -0.17203,-0.217865 -1.7735,-0.511027 -3.55883,-0.651471 -2.83193,-0.222776 -3.02591,-0.09439 -1.52055,1.006361 0.94903,0.693942 1.7255,1.774604 1.7255,2.401471 0,0.631103 0.81818,0.358762 1.83333,-0.610243 1.00834,-0.9625 1.69258,-1.928253 1.52055,-2.146118 z M 374,45.490357 c 0,-1.062546 -2.93657,-1.09804 -3.34242,-0.0404 -0.34677,0.903666 0.10292,1.163927 1.41724,0.820227 C 373.13367,45.993288 374,45.642366 374,45.490357 z m 33,0.544827 C 407,45.504535 406.1,44.588702 405,44 c -2.20261,-1.178799 -2.68759,-0.08759 -0.8,1.8 1.44583,1.445828 2.8,1.559571 2.8,0.235184 z m -84,-0.912739 c 0,-1.301765 -2.9466,-3.509177 -3.69083,-2.764946 C 318.95579,42.710875 319.19167,43 319.83333,43 320.475,43 321,43.675 321,44.5 c 0,0.825 0.45,1.5 1,1.5 0.55,0 1,-0.3949 1,-0.877555 z m 18.77085,-1.559962 C 342.08022,43.253117 340.45833,43 338.16667,43 335.875,43 334,43.454281 334,44.009514 c 0,1.013826 6.69514,0.628677 7.77085,-0.447031 z m -40.217,-3.475351 c -0.36954,-0.597922 -1.43283,-1.034931 -2.36287,-0.971131 -1.58401,0.108664 -1.58379,0.144255 0.004,0.56265 1.08879,0.286978 1.48303,1.049856 1.10283,2.133999 -0.46178,1.316737 -0.315,1.431935 0.66829,0.524482 0.69302,-0.639577 0.9577,-1.652077 0.58816,-2.25 z M 281,40.5 c 0,-0.825 -0.45,-1.5 -1,-1.5 -0.55,0 -1,0.675 -1,1.5 0,0.825 0.45,1.5 1,1.5 0.55,0 1,-0.675 1,-1.5 z M 292,40 c 0,-0.55 -0.45,-1 -1,-1 -0.55,0 -1,0.45 -1,1 0,0.55 0.45,1 1,1 0.55,0 1,-0.45 1,-1 z m 4.5,0 c 0.33992,-0.55 -0.33508,-1 -1.5,-1 -1.16492,0 -1.83992,0.45 -1.5,1 0.33992,0.55 1.01492,1 1.5,1 0.48508,0 1.16008,-0.45 1.5,-1 z m 67,-0.948067 c -2.82729,-1.129239 -13.14429,-2.4285 -12.30075,-1.549084 0.92657,0.965975 6.44042,2.110665 10.80075,2.242263 2.68669,0.08109 3.03525,-0.07999 1.5,-0.693179 z M 214.45729,36.069098 c 0.31644,-0.511996 0.19299,-1.167201 -0.27431,-1.456011 -0.46731,-0.28881 -0.84965,0.130095 -0.84965,0.930902 0,1.686167 0.31534,1.833491 1.12396,0.525109 z M 82.898631,30.622143 c 0.902668,-1.087649 0.681075,-1.49879 -1.052082,-1.95202 -1.207581,-0.31579 -2.904565,-0.159438 -3.771076,0.347448 -1.347579,0.7883 -1.358497,0.928225 -0.07547,0.967333 1.333333,0.04064 1.333333,0.15343 0,1.015096 -1.178133,0.761368 -0.936185,0.97266 1.127555,0.984687 1.445156,0.0084 3.14214,-0.604723 3.771076,-1.362544 z M 137,29.440983 C 137,29.198442 136.55,29 136,29 c -0.55,0 -1,0.476558 -1,1.059017 0,0.582459 0.45,0.780902 1,0.440983 0.55,-0.339919 1,-0.816476 1,-1.059017 z M 83.489919,26.983688 C 83.144455,26.424717 82.442898,26.226274 81.930902,26.542705 80.543858,27.399945 80.802491,28 82.559017,28 c 0.857459,0 1.276365,-0.45734 0.930902,-1.016312 z M 104.5,27 c 0.33992,-0.55 0.16803,-1 -0.38197,-1 -0.55,0 -1.27811,0.45 -1.61803,1 -0.33992,0.55 -0.16803,1 0.38197,1 0.55,0 1.27811,-0.45 1.61803,-1 z M 50,347.5 c 0,-0.825 0.176855,-1.5 0.393011,-1.5 0.216156,0 0.652033,0.675 0.968615,1.5 0.316583,0.825 0.139728,1.5 -0.393011,1.5 C 50.435877,349 50,348.325 50,347.5 z m 387.07895,-43.91667 c -0.0434,-1.05416 0.19293,-1.64479 0.52522,-1.3125 0.33229,0.33229 0.36781,1.19479 0.0789,1.91667 -0.31922,0.79773 -0.55618,0.56078 -0.60416,-0.60417 z M 45.035184,301.06574 C 43.681508,298.53638 43.698692,292 45.059017,292 c 0.582459,0 0.780902,-0.45 0.440983,-1 -0.339919,-0.55 -0.141476,-1 0.440983,-1 1.44649,0 1.341544,4.31747 -0.140983,5.8 -0.933333,0.93333 -0.809107,1.2 0.559017,1.2 0.967459,0 1.476365,0.45734 1.130902,1.01631 -0.345464,0.55897 -1.041867,0.7606 -1.547563,0.44806 -0.505696,-0.31253 -0.652449,0.12754 -0.326117,0.97795 0.326332,0.85041 0.996177,1.29722 1.488546,0.99292 C 47.597153,300.13094 48,300.58352 48,301.44098 c 0,2.16766 -1.720434,1.94991 -2.964816,-0.37524 z M 436,300 c 0,-0.55 0.19844,-1 0.44098,-1 0.24254,0 0.7191,0.45 1.05902,1 0.33992,0.55 0.14148,1 -0.44098,1 C 436.47656,301 436,300.55 436,300 z m -1.36163,-16.5 c 0.31659,-0.825 0.75246,-1.5 0.96862,-1.5 0.21615,0 0.39301,0.675 0.39301,1.5 0,0.825 -0.43588,1.5 -0.96862,1.5 -0.53273,0 -0.70959,-0.675 -0.39301,-1.5 z M 434,280.05902 c 0,-0.51754 0.45,-1.2191 1,-1.55902 0.55,-0.33992 1,0.0835 1,0.94098 0,0.85746 -0.45,1.55902 -1,1.55902 -0.55,0 -1,-0.42344 -1,-0.94098 z M 432.63837,198.5 c -0.31658,-0.825 -0.13972,-1.5 0.39301,-1.5 0.53274,0 0.96862,0.675 0.96862,1.5 0,0.825 -0.17686,1.5 -0.39301,1.5 -0.21616,0 -0.65203,-0.675 -0.96862,-1.5 z M 432,188 c 0,-3.85 0.3375,-6.99888 0.75,-6.99752 0.4125,0.001 0.75,3.15139 0.75,7.00007 0,3.84867 -0.3375,6.99756 -0.75,6.99752 C 432.3375,195.00003 432,191.85 432,188 z m -0.66417,-17.56722 c -0.33077,-0.86197 -0.0254,-2.09947 0.67857,-2.75 1.01646,-0.93929 1.13975,-0.78751 0.59891,0.73727 -0.40628,1.14541 -0.16308,2.24871 0.60282,2.73469 1.04189,0.66109 1.04236,0.81752 0.002,0.82995 -0.70477,0.008 -1.55202,-0.68994 -1.88279,-1.55191 z M 431.6,101.4 c -0.35589,-0.92744 -0.42208,-1.911256 -0.14708,-2.186256 0.275,-0.275 0.79119,0.258815 1.14708,1.186256 0.35589,0.92744 0.42208,1.91126 0.14708,2.18626 -0.275,0.275 -0.79119,-0.25882 -1.14708,-1.18626 z M 45,27.059017 C 45,26.476558 45.45,26 46,26 c 0.55,0 1,0.198442 1,0.440983 0,0.242541 -0.45,0.719098 -1,1.059017 -0.55,0.339919 -1,0.141476 -1,-0.440983 z"
     id="path3214"
     inkscape:connector-curvature="0" />
</svg>
