<?xml version="1.0" encoding="UTF-8" standalone="no"?>
<!-- Created with Inkscape (http://www.inkscape.org/) -->

<svg
   xmlns:dc="http://purl.org/dc/elements/1.1/"
   xmlns:cc="http://creativecommons.org/ns#"
   xmlns:rdf="http://www.w3.org/1999/02/22-rdf-syntax-ns#"
   xmlns:svg="http://www.w3.org/2000/svg"
   xmlns="http://www.w3.org/2000/svg"
   xmlns:sodipodi="http://sodipodi.sourceforge.net/DTD/sodipodi-0.dtd"
   xmlns:inkscape="http://www.inkscape.org/namespaces/inkscape"
   width="256"
   height="256"
   id="svg4080"
   version="1.1"
   inkscape:version="0.48.5 r10040"
   sodipodi:docname="favicon.svg"
   inkscape:export-filename="E:\Documents\Professionnel\identité visuel\logos\favicon.png"
   inkscape:export-xdpi="90"
   inkscape:export-ydpi="90">
  <defs
     id="defs4082" />
  <sodipodi:namedview
     id="base"
     pagecolor="#ffffff"
     bordercolor="#666666"
     borderopacity="1.0"
     inkscape:pageopacity="0.0"
     inkscape:pageshadow="2"
     inkscape:zoom="1.979899"
     inkscape:cx="165.97987"
     inkscape:cy="93.330989"
     inkscape:document-units="px"
     inkscape:current-layer="layer1"
     showgrid="false"
     inkscape:window-width="1600"
     inkscape:window-height="877"
     inkscape:window-x="-8"
     inkscape:window-y="-8"
     inkscape:window-maximized="1" />
  <metadata
     id="metadata4085">
    <rdf:RDF>
      <cc:Work
         rdf:about="">
        <dc:format>image/svg+xml</dc:format>
        <dc:type
           rdf:resource="http://purl.org/dc/dcmitype/StillImage" />
        <dc:title></dc:title>
      </cc:Work>
    </rdf:RDF>
  </metadata>
  <g
     inkscape:label="Layer 1"
     inkscape:groupmode="layer"
     id="layer1"
     transform="translate(0,-796.36218)">
    <g
       id="g4103"
       transform="matrix(3.6460713,0,0,3.6460713,-465.78875,-2183.4111)">
      <path
         inkscape:connector-curvature="0"
         id="path3204"
         d="m 146.2261,825.90928 0,1.17211 c 10.96571,-0.0628 24.20265,-0.05 24.40826,0.0732 0.20112,0.12058 4.06284,0.3794 8.58808,0.58606 4.52526,0.20668 9.12045,0.43692 10.22662,0.5128 0.82218,0.0564 1.99706,0.0452 3.05103,0 -0.41772,1.20049 -0.5723,7.9895 0.14125,25.3468 0.16397,22.36486 0.14197,22.98164 -0.53676,23.29562 -1.0374,0.4799 -7.14925,1.28084 -10.2831,1.34304 -1.50842,0.0299 -2.13847,0.10271 -1.38428,0.17093 1.96818,0.17796 1.70111,0.61387 -0.53674,0.85466 -4.74073,0.51011 -19.08633,-0.29342 -19.66221,-1.09885 -0.14843,-0.20758 -0.6986,-0.13792 -1.55376,0.17093 -1.17895,0.42581 -3.5494,0.54286 -8.67285,0.46397 -0.56659,-0.009 -2.15359,0.12472 -3.78554,0.2686 l 0,0.95234 c 7.28334,-0.10478 9.60768,-0.21098 9.94411,-0.3907 0.62221,-0.33239 1.94377,0.12166 1.63851,0.56163 -0.1552,0.22364 -0.0224,0.20439 0.33901,-0.0489 0.44446,-0.31142 1.30579,-0.37091 3.27703,-0.21976 1.46754,0.11252 4.31684,0.26403 6.32807,0.34186 2.01122,0.0778 4.29845,0.27912 5.1133,0.46396 1.04808,0.23814 2.91858,0.24023 6.38457,0 2.69471,-0.18679 6.76141,-0.34187 9.01184,-0.34187 6.22391,0 5.72301,0.99461 5.65006,-11.23269 -0.0331,-5.5554 -0.0325,-16.35457 0,-24.00376 0.50599,-5.48316 -0.41198,-15.44651 -1.10176,-16.92229 0.24817,-0.0133 0.55203,-0.005 0.76275,-0.0244 1.15615,-0.10348 2.0049,-0.30715 1.89277,-0.46396 -0.11211,-0.15681 -0.5177,-0.29303 -0.904,-0.29303 -0.38631,0 -1.38198,-0.22867 -2.20353,-0.5128 -1.24039,-0.42897 -1.62635,-0.45444 -2.34477,-0.12208 -1.00705,0.46583 -8.29664,0.24736 -16.10266,-0.48839 -3.84554,-0.36248 -5.86867,-0.38369 -10.65037,-0.0977 -4.38151,0.26233 -6.95069,0.26516 -9.8876,0 -2.4784,-0.22375 -4.78669,-0.3241 -7.14733,-0.31745 z m 8.07959,2.61283 c -0.16925,0.0118 -0.37622,0.0393 -0.59326,0.0732 -1.89763,0.29654 -1.9377,0.43954 -0.14124,0.43954 0.838,0 1.52551,-0.16015 1.52551,-0.34186 0,-0.1569 -0.28325,-0.20638 -0.79101,-0.17093 z m 36.86663,49.10638 c 0.72128,-0.0425 0.83343,0.17682 1.15827,0.7814 0.25139,0.46791 0.45199,0.95967 0.45199,1.09885 0,0.1392 -1.04888,0.26861 -2.34477,0.26861 -2.02873,0 -2.44137,-0.12021 -2.93803,-0.73257 -0.57148,-0.70462 -0.5652,-0.69663 1.52552,-1.07443 1.06392,-0.19225 1.71426,-0.31638 2.14702,-0.34186 z m -16.66767,0.58605 c -0.16569,0 -0.32631,0.0293 -0.45201,0.0732 -0.25139,0.0877 -0.0508,0.17093 0.45201,0.17093 0.50285,0 0.7034,-0.0832 0.452,-0.17093 -0.1257,-0.0438 -0.28631,-0.0732 -0.452,-0.0732 z m 11.52612,0.92792 c 0.70392,0 1.27126,0.1436 1.27126,0.31744 0,0.17385 -0.56734,0.31745 -1.27126,0.31745 -0.70393,0 -1.29952,-0.1436 -1.29952,-0.31745 0,-0.17384 0.59559,-0.31744 1.29952,-0.31744 z m -3.24878,0.36628 c 0.17568,-0.0105 0.31696,0.005 0.36725,0.0488 0.1005,0.087 -0.1607,0.24761 -0.59326,0.36629 -0.43256,0.11868 -0.88819,0.13575 -0.98876,0.0488 -0.1006,-0.087 0.18895,-0.24761 0.62151,-0.36629 0.21627,-0.0594 0.41756,-0.0873 0.59326,-0.0977 z"
         style="fill:#000000;display:inline" />
      <path
         sodipodi:nodetypes="cscccssssscssscscscscsscssssssscsscscc"
         inkscape:export-ydpi="59.324745"
         inkscape:export-xdpi="59.324745"
         inkscape:export-filename="E:\Documents\Professionnel\identité visuel\logos\log372x50blanc.png"
         inkscape:connector-curvature="0"
         d="m 167.80603,862.74109 c -0.45118,0.24147 -0.70802,0.62077 -0.57074,0.84289 0.16098,0.26046 0.45223,0.23568 0.82034,-0.0698 0.86306,-0.71628 0.6835,-1.27244 -0.2496,-0.77306 z m 2.82987,-4.05111 c -0.82998,0 -3.34047,1.23093 -3.06741,1.50399 0.15392,0.15392 1.00099,0.29794 1.88238,0.32005 1.41505,0.0355 1.60253,-0.0688 1.60253,-0.89191 0,-0.51267 -0.18787,-0.93213 -0.4175,-0.93213 z m 6.38395,12.71 c -0.72305,0.29346 -1.858,0.708 -2.52211,0.92119 -1.1905,0.38217 -1.37651,0.73373 -1.99082,3.76252 -0.20218,0.99682 -0.26825,1.01269 -4.62542,1.11052 -5.01412,0.11259 -4.90141,0.19422 -4.91267,-3.55777 -0.008,-2.65633 -0.32026,-2.8221 -4.76638,-2.53005 l -3.82036,0.25095 0.54323,-0.86984 c 0.40044,-0.64121 0.75737,-0.79089 1.35794,-0.56948 0.4481,0.16519 2.53761,0.30035 4.64335,0.30035 l 3.82862,0 0.91766,-1.61802 c 1.25513,-2.21307 1.16633,-3.21151 -0.48581,-5.46218 -1.76327,-2.40205 -2.23441,-4.27253 -1.15381,-4.58076 1.79751,-0.5127 7.42464,-0.75071 7.42464,-0.31403 0,0.24563 0.34339,0.4466 0.76309,0.4466 0.5507,0 0.81815,0.36593 0.96087,1.31464 0.17382,1.15546 -0.0277,1.5228 -1.66442,3.03379 -1.06792,0.98589 -2.25955,1.71914 -2.79383,1.71914 -1.04023,0 -1.44565,0.68942 -1.23155,2.09424 0.13929,0.91394 0.16088,0.9071 0.79221,-0.25116 l 0.64902,-1.1907 0.29802,1.79746 c 0.39728,2.39621 0.85044,3.17016 2.15005,3.67204 1.3987,0.54015 5.09321,0.50812 6.14214,-0.0532 0.44604,-0.23871 0.81098,-0.32731 0.81098,-0.19689 0,0.13042 -0.59159,0.47723 -1.31464,0.77069 z"
         style="fill:#000000;display:inline"
         id="path2986-1-1-7" />
      <path
         sodipodi:nodetypes="ssssscsscccsssccsscsssssssssssscscsssscssccssssssssscss"
         inkscape:export-ydpi="59.324745"
         inkscape:export-xdpi="59.324745"
         inkscape:export-filename="E:\Documents\Professionnel\identité visuel\logos\log372x50blanc.png"
         inkscape:connector-curvature="0"
         d="m 173.13796,845.95374 c -0.22248,0 -0.4045,0.27304 -0.4045,0.60676 0,0.33371 0.18202,0.60675 0.4045,0.60675 0.22248,0 0.40451,-0.27304 0.40451,-0.60675 0,-0.33372 -0.18203,-0.60676 -0.40451,-0.60676 z m 1.48337,2.4985 c -0.38234,-0.0742 -0.67436,0.12606 -0.67436,0.46235 0,0.63987 0.97501,1.18787 1.38465,0.77823 0.4092,-0.40921 0.0136,-1.1002 -0.71029,-1.24058 z m 2.77689,3.02326 c -0.32659,-0.12533 -0.70139,-0.0538 -0.83289,0.15897 -0.13149,0.21276 -0.15221,0.38684 -0.046,0.38684 0.10618,0 0.48097,0.11049 0.83289,0.24553 0.35191,0.13504 0.63984,0.0635 0.63984,-0.15897 0,-0.22248 -0.26721,-0.50705 -0.5938,-0.63237 z m 5.3692,-7.64541 c -0.48821,0.48821 -0.74637,1.02895 -0.57368,1.20164 0.17269,0.17269 0.57214,-0.0391 0.88766,-0.47058 0.89109,-1.21864 0.67552,-1.72056 -0.31398,-0.73106 z m 2.02219,1.31464 c -0.66458,0 -2.75254,2.05187 -2.75254,2.70496 0,0.9324 1.10773,0.57133 2.18882,-0.71347 1.13851,-1.35305 1.31923,-1.99149 0.56372,-1.99149 z m 0.95851,1.61802 c -0.18369,0 -0.7615,0.45507 -1.28402,1.01126 -0.97762,1.04062 -0.55785,1.33828 0.8356,0.59253 0.7691,-0.41161 1.10244,-1.60379 0.44842,-1.60379 z m 3.28796,2.14046 c -0.13008,0.50081 -0.4261,0.64921 -0.95816,0.48034 -0.47974,-0.15226 -1.26776,0.12098 -2.09075,0.72497 -1.69476,1.24377 -5.67493,2.72224 -7.32326,2.72029 -0.70325,-8.1e-4 -1.87143,-0.36294 -2.59595,-0.80468 -1.55304,-0.9469 -4.95541,-4.40734 -4.94595,-5.03037 0.004,-0.2383 1.26064,-2.11085 2.79338,-4.16123 2.75833,-3.6899 3.19171,-3.93748 3.75085,-2.14275 0.10304,0.33074 -0.59077,1.59276 -1.54181,2.80447 -2.17218,2.76759 -1.82594,3.60786 0.48069,1.16655 l 1.72326,-1.82388 0.41544,1.6367 c 0.37726,1.4863 0.32464,1.72752 -0.57268,2.62484 -1.15772,1.15772 -1.2821,1.83281 -0.28025,1.52105 0.38934,-0.12115 0.98093,-0.0389 1.31465,0.18268 0.52478,0.34852 0.5004,0.4841 -0.18052,1.00355 -1.28153,0.97764 -0.27797,1.5612 1.74708,1.01591 1.69294,-0.45586 2.14579,-1.06998 1.08826,-1.47579 -0.31967,-0.12267 -0.48222,-0.48101 -0.36123,-0.79632 0.13011,-0.33907 -0.0301,-0.57328 -0.39218,-0.57328 -0.36627,0 -0.55636,-0.28434 -0.47324,-0.70788 0.77251,-3.93617 1.60606,-7.05524 1.94073,-7.26208 0.24371,-0.15062 0.30699,0.0133 0.15653,0.40539 -0.39317,1.02457 1.60203,2.39908 3.02786,2.08592 1.09338,-0.24015 1.12504,-0.20657 0.69505,0.73718 -0.64469,1.41493 0.47138,3.52796 1.8634,3.52796 1.0104,0 1.15946,0.44387 0.7188,2.14046 z"
         style="fill:#000000;display:inline"
         id="path2986-1-1-0" />
      <path
         sodipodi:nodetypes="ssssscsscccsssccsscsssssssssssscscsssscssccssssssssscss"
         inkscape:export-ydpi="59.324745"
         inkscape:export-xdpi="59.324745"
         inkscape:export-filename="E:\Documents\Professionnel\identité visuel\logos\log372x50blanc.png"
         inkscape:connector-curvature="0"
         d="m 163.59202,845.95374 c 0.22248,0 0.4045,0.27304 0.4045,0.60676 0,0.33371 -0.18202,0.60675 -0.4045,0.60675 -0.22248,0 -0.40451,-0.27304 -0.40451,-0.60675 0,-0.33372 0.18203,-0.60676 0.40451,-0.60676 z m -1.48337,2.4985 c 0.38234,-0.0742 0.67436,0.12606 0.67436,0.46235 0,0.63987 -0.97501,1.18787 -1.38465,0.77823 -0.4092,-0.40921 -0.0136,-1.1002 0.71029,-1.24058 z m -2.77689,3.02326 c 0.32659,-0.12533 0.70139,-0.0538 0.83289,0.15897 0.13149,0.21276 0.15221,0.38684 0.046,0.38684 -0.10618,0 -0.48097,0.11049 -0.83289,0.24553 -0.35191,0.13504 -0.63984,0.0635 -0.63984,-0.15897 0,-0.22248 0.26721,-0.50705 0.5938,-0.63237 z m -5.3692,-7.64541 c 0.48821,0.48821 0.74637,1.02895 0.57368,1.20164 -0.17269,0.17269 -0.57214,-0.0391 -0.88766,-0.47058 -0.89109,-1.21864 -0.67552,-1.72056 0.31398,-0.73106 z m -2.02219,1.31464 c 0.66458,0 2.75254,2.05187 2.75254,2.70496 0,0.9324 -1.10773,0.57133 -2.18882,-0.71347 -1.13851,-1.35305 -1.31923,-1.99149 -0.56372,-1.99149 z m -0.95851,1.61802 c 0.18369,0 0.7615,0.45507 1.28402,1.01126 0.97762,1.04062 0.55785,1.33828 -0.8356,0.59253 -0.7691,-0.41161 -1.10244,-1.60379 -0.44842,-1.60379 z m -3.28796,2.14046 c 0.13008,0.50081 0.4261,0.64921 0.95816,0.48034 0.47974,-0.15226 1.26776,0.12098 2.09075,0.72497 1.69476,1.24377 5.67493,2.72224 7.32326,2.72029 0.70325,-8.1e-4 1.87143,-0.36294 2.59595,-0.80468 1.55304,-0.9469 4.95541,-4.40734 4.94595,-5.03037 -0.004,-0.2383 -1.26064,-2.11085 -2.79338,-4.16123 -2.75833,-3.6899 -3.19171,-3.93748 -3.75085,-2.14275 -0.10304,0.33074 0.59077,1.59276 1.54181,2.80447 2.17218,2.76759 1.82594,3.60786 -0.48069,1.16655 l -1.72326,-1.82388 -0.41544,1.6367 c -0.37726,1.4863 -0.32464,1.72752 0.57268,2.62484 1.15772,1.15772 1.2821,1.83281 0.28025,1.52105 -0.38934,-0.12115 -0.98093,-0.0389 -1.31465,0.18268 -0.52478,0.34852 -0.5004,0.4841 0.18052,1.00355 1.28153,0.97764 0.27797,1.5612 -1.74708,1.01591 -1.69294,-0.45586 -2.14579,-1.06998 -1.08826,-1.47579 0.31967,-0.12267 0.48222,-0.48101 0.36123,-0.79632 -0.13011,-0.33907 0.0301,-0.57328 0.39218,-0.57328 0.36627,0 0.55636,-0.28434 0.47324,-0.70788 -0.77251,-3.93617 -1.60606,-7.05524 -1.94073,-7.26208 -0.24371,-0.15062 -0.30699,0.0133 -0.15653,0.40539 0.39317,1.02457 -1.60203,2.39908 -3.02786,2.08592 -1.09338,-0.24015 -1.12504,-0.20657 -0.69505,0.73718 0.64469,1.41493 -0.47138,3.52796 -1.8634,3.52796 -1.0104,0 -1.15946,0.44387 -0.7188,2.14046 z"
         style="fill:#000000;display:inline"
         id="path2986-1-1-0-9" />
      <path
         sodipodi:nodetypes="csccc"
         inkscape:connector-curvature="0"
         id="path3200"
         d="m 164.84227,826.67646 c 0,0 -14.92453,-3.84653 -16.15542,33.38788 -1.4958,45.24814 -16.77087,18.92493 -16.77087,18.92493 0,0 -5.07742,-9.69326 5.84672,-54.313 0,0 4.7697,-16.00157 27.07957,2.00019 z"
         style="fill:#000000;fill-opacity:1;stroke:#000000;stroke-width:0.99921262;stroke-linecap:butt;stroke-linejoin:miter;stroke-miterlimit:4;stroke-opacity:1;stroke-dasharray:none" />
    </g>
  </g>
</svg>
